G04 #@! TF.FileFunction,Legend,Bot*
%FSLAX46Y46*%
G04 Gerber Fmt 4.6, Leading zero omitted, Abs format (unit mm)*
G04 Created by KiCad (PCBNEW 4.0.2+e4-6225~38~ubuntu15.04.1-stable) date Wed 22 Jun 2016 12:24:41 PM PDT*
%MOMM*%
G01*
G04 APERTURE LIST*
%ADD10C,0.100000*%
%ADD11C,0.300000*%
%ADD12C,0.375000*%
G04 APERTURE END LIST*
D10*
D11*
X145565476Y-92380953D02*
X144315476Y-92380953D01*
X144315476Y-92678572D01*
X144375000Y-92857144D01*
X144494048Y-92976191D01*
X144613095Y-93035715D01*
X144851190Y-93095239D01*
X145029762Y-93095239D01*
X145267857Y-93035715D01*
X145386905Y-92976191D01*
X145505952Y-92857144D01*
X145565476Y-92678572D01*
X145565476Y-92380953D01*
X145505952Y-94107144D02*
X145565476Y-93988096D01*
X145565476Y-93750001D01*
X145505952Y-93630953D01*
X145386905Y-93571429D01*
X144910714Y-93571429D01*
X144791667Y-93630953D01*
X144732143Y-93750001D01*
X144732143Y-93988096D01*
X144791667Y-94107144D01*
X144910714Y-94166667D01*
X145029762Y-94166667D01*
X145148810Y-93571429D01*
X145505952Y-94642858D02*
X145565476Y-94761906D01*
X145565476Y-95000001D01*
X145505952Y-95119049D01*
X145386905Y-95178573D01*
X145327381Y-95178573D01*
X145208333Y-95119049D01*
X145148810Y-95000001D01*
X145148810Y-94821430D01*
X145089286Y-94702382D01*
X144970238Y-94642858D01*
X144910714Y-94642858D01*
X144791667Y-94702382D01*
X144732143Y-94821430D01*
X144732143Y-95000001D01*
X144791667Y-95119049D01*
X145565476Y-95714287D02*
X144732143Y-95714287D01*
X144315476Y-95714287D02*
X144375000Y-95654763D01*
X144434524Y-95714287D01*
X144375000Y-95773811D01*
X144315476Y-95714287D01*
X144434524Y-95714287D01*
X144732143Y-96845239D02*
X145744048Y-96845239D01*
X145863095Y-96785716D01*
X145922619Y-96726192D01*
X145982143Y-96607144D01*
X145982143Y-96428573D01*
X145922619Y-96309525D01*
X145505952Y-96845239D02*
X145565476Y-96726192D01*
X145565476Y-96488096D01*
X145505952Y-96369049D01*
X145446429Y-96309525D01*
X145327381Y-96250001D01*
X144970238Y-96250001D01*
X144851190Y-96309525D01*
X144791667Y-96369049D01*
X144732143Y-96488096D01*
X144732143Y-96726192D01*
X144791667Y-96845239D01*
X144732143Y-97440477D02*
X145565476Y-97440477D01*
X144851190Y-97440477D02*
X144791667Y-97500001D01*
X144732143Y-97619048D01*
X144732143Y-97797620D01*
X144791667Y-97916668D01*
X144910714Y-97976191D01*
X145565476Y-97976191D01*
X145505952Y-99047620D02*
X145565476Y-98928572D01*
X145565476Y-98690477D01*
X145505952Y-98571429D01*
X145386905Y-98511905D01*
X144910714Y-98511905D01*
X144791667Y-98571429D01*
X144732143Y-98690477D01*
X144732143Y-98928572D01*
X144791667Y-99047620D01*
X144910714Y-99107143D01*
X145029762Y-99107143D01*
X145148810Y-98511905D01*
X145565476Y-100178572D02*
X144315476Y-100178572D01*
X145505952Y-100178572D02*
X145565476Y-100059525D01*
X145565476Y-99821429D01*
X145505952Y-99702382D01*
X145446429Y-99642858D01*
X145327381Y-99583334D01*
X144970238Y-99583334D01*
X144851190Y-99642858D01*
X144791667Y-99702382D01*
X144732143Y-99821429D01*
X144732143Y-100059525D01*
X144791667Y-100178572D01*
X145565476Y-101726191D02*
X144315476Y-101726191D01*
X144791667Y-101726191D02*
X144732143Y-101845239D01*
X144732143Y-102083334D01*
X144791667Y-102202382D01*
X144851190Y-102261905D01*
X144970238Y-102321429D01*
X145327381Y-102321429D01*
X145446429Y-102261905D01*
X145505952Y-102202382D01*
X145565476Y-102083334D01*
X145565476Y-101845239D01*
X145505952Y-101726191D01*
X144732143Y-102738095D02*
X145565476Y-103035714D01*
X144732143Y-103333334D02*
X145565476Y-103035714D01*
X145863095Y-102916667D01*
X145922619Y-102857143D01*
X145982143Y-102738095D01*
X144315476Y-105000000D02*
X144315476Y-105238096D01*
X144375000Y-105357143D01*
X144494048Y-105476191D01*
X144732143Y-105535715D01*
X145148810Y-105535715D01*
X145386905Y-105476191D01*
X145505952Y-105357143D01*
X145565476Y-105238096D01*
X145565476Y-105000000D01*
X145505952Y-104880953D01*
X145386905Y-104761905D01*
X145148810Y-104702381D01*
X144732143Y-104702381D01*
X144494048Y-104761905D01*
X144375000Y-104880953D01*
X144315476Y-105000000D01*
X144732143Y-106071429D02*
X145982143Y-106071429D01*
X144791667Y-106071429D02*
X144732143Y-106190477D01*
X144732143Y-106428572D01*
X144791667Y-106547620D01*
X144851190Y-106607143D01*
X144970238Y-106666667D01*
X145327381Y-106666667D01*
X145446429Y-106607143D01*
X145505952Y-106547620D01*
X145565476Y-106428572D01*
X145565476Y-106190477D01*
X145505952Y-106071429D01*
X145505952Y-107142857D02*
X145565476Y-107261905D01*
X145565476Y-107500000D01*
X145505952Y-107619048D01*
X145386905Y-107678572D01*
X145327381Y-107678572D01*
X145208333Y-107619048D01*
X145148810Y-107500000D01*
X145148810Y-107321429D01*
X145089286Y-107202381D01*
X144970238Y-107142857D01*
X144910714Y-107142857D01*
X144791667Y-107202381D01*
X144732143Y-107321429D01*
X144732143Y-107500000D01*
X144791667Y-107619048D01*
D12*
X140769048Y-93483334D02*
X139069048Y-93483334D01*
X140769048Y-94454762D01*
X139069048Y-94454762D01*
X139069048Y-95588095D02*
X139069048Y-95911905D01*
X139150000Y-96073810D01*
X139311905Y-96235714D01*
X139635714Y-96316667D01*
X140202381Y-96316667D01*
X140526190Y-96235714D01*
X140688095Y-96073810D01*
X140769048Y-95911905D01*
X140769048Y-95588095D01*
X140688095Y-95426191D01*
X140526190Y-95264286D01*
X140202381Y-95183334D01*
X139635714Y-95183334D01*
X139311905Y-95264286D01*
X139150000Y-95426191D01*
X139069048Y-95588095D01*
X140607143Y-98016666D02*
X140688095Y-97935714D01*
X140769048Y-97692857D01*
X140769048Y-97530952D01*
X140688095Y-97288095D01*
X140526190Y-97126190D01*
X140364286Y-97045238D01*
X140040476Y-96964286D01*
X139797619Y-96964286D01*
X139473810Y-97045238D01*
X139311905Y-97126190D01*
X139150000Y-97288095D01*
X139069048Y-97530952D01*
X139069048Y-97692857D01*
X139150000Y-97935714D01*
X139230952Y-98016666D01*
X139069048Y-98502381D02*
X139069048Y-99473809D01*
X140769048Y-98988095D02*
X139069048Y-98988095D01*
X140769048Y-100040476D02*
X139069048Y-100040476D01*
X139069048Y-100607143D02*
X140769048Y-101173809D01*
X139069048Y-101740476D01*
X139069048Y-102630952D02*
X139069048Y-102954762D01*
X139150000Y-103116667D01*
X139311905Y-103278571D01*
X139635714Y-103359524D01*
X140202381Y-103359524D01*
X140526190Y-103278571D01*
X140688095Y-103116667D01*
X140769048Y-102954762D01*
X140769048Y-102630952D01*
X140688095Y-102469048D01*
X140526190Y-102307143D01*
X140202381Y-102226191D01*
X139635714Y-102226191D01*
X139311905Y-102307143D01*
X139150000Y-102469048D01*
X139069048Y-102630952D01*
X140769048Y-105059523D02*
X139959524Y-104492857D01*
X140769048Y-104088095D02*
X139069048Y-104088095D01*
X139069048Y-104735714D01*
X139150000Y-104897619D01*
X139230952Y-104978571D01*
X139392857Y-105059523D01*
X139635714Y-105059523D01*
X139797619Y-104978571D01*
X139878571Y-104897619D01*
X139959524Y-104735714D01*
X139959524Y-104088095D01*
X139878571Y-105788095D02*
X139878571Y-106354762D01*
X140769048Y-106597619D02*
X140769048Y-105788095D01*
X139069048Y-105788095D01*
X139069048Y-106597619D01*
M02*
