G04 #@! TF.FileFunction,Copper,L2,Bot,Signal*
%FSLAX46Y46*%
G04 Gerber Fmt 4.6, Leading zero omitted, Abs format (unit mm)*
G04 Created by KiCad (PCBNEW 4.0.2+e4-6225~38~ubuntu15.04.1-stable) date Sat 09 Jul 2016 10:26:06 PM PDT*
%MOMM*%
G01*
G04 APERTURE LIST*
%ADD10C,0.100000*%
%ADD11C,2.000000*%
%ADD12R,2.032000X2.032000*%
%ADD13O,2.032000X2.032000*%
%ADD14C,2.000000*%
%ADD15C,0.254000*%
G04 APERTURE END LIST*
D10*
D11*
X150000000Y-105000000D03*
X150000000Y-100000000D03*
X150000000Y-95000000D03*
D12*
X135000000Y-98730000D03*
D13*
X135000000Y-101270000D03*
D14*
X150000000Y-95000000D02*
X150000000Y-100000000D01*
D15*
G36*
X153488338Y-91821046D02*
X153902333Y-92097669D01*
X154178953Y-92511660D01*
X154290000Y-93069931D01*
X154290000Y-106930069D01*
X154178953Y-107488340D01*
X153902333Y-107902331D01*
X153488338Y-108178954D01*
X152930069Y-108290000D01*
X135069931Y-108290000D01*
X134511660Y-108178953D01*
X134097669Y-107902333D01*
X133821046Y-107488338D01*
X133710000Y-106930069D01*
X133710000Y-106152532D01*
X149027073Y-106152532D01*
X149125736Y-106419387D01*
X149735461Y-106645908D01*
X150385460Y-106621856D01*
X150874264Y-106419387D01*
X150972927Y-106152532D01*
X150000000Y-105179605D01*
X149027073Y-106152532D01*
X133710000Y-106152532D01*
X133710000Y-104735461D01*
X148354092Y-104735461D01*
X148378144Y-105385460D01*
X148580613Y-105874264D01*
X148847468Y-105972927D01*
X149820395Y-105000000D01*
X150179605Y-105000000D01*
X151152532Y-105972927D01*
X151419387Y-105874264D01*
X151645908Y-105264539D01*
X151621856Y-104614540D01*
X151419387Y-104125736D01*
X151152532Y-104027073D01*
X150179605Y-105000000D01*
X149820395Y-105000000D01*
X148847468Y-104027073D01*
X148580613Y-104125736D01*
X148354092Y-104735461D01*
X133710000Y-104735461D01*
X133710000Y-103847468D01*
X149027073Y-103847468D01*
X150000000Y-104820395D01*
X150972927Y-103847468D01*
X150874264Y-103580613D01*
X150264539Y-103354092D01*
X149614540Y-103378144D01*
X149125736Y-103580613D01*
X149027073Y-103847468D01*
X133710000Y-103847468D01*
X133710000Y-102286344D01*
X133832567Y-102469778D01*
X134368190Y-102827670D01*
X135000000Y-102953345D01*
X135631810Y-102827670D01*
X136167433Y-102469778D01*
X136525325Y-101934155D01*
X136651000Y-101302345D01*
X136651000Y-101237655D01*
X136525325Y-100605845D01*
X136324628Y-100305481D01*
X136375699Y-100284327D01*
X136554327Y-100105698D01*
X136651000Y-99872309D01*
X136651000Y-99015750D01*
X136492250Y-98857000D01*
X135127000Y-98857000D01*
X135127000Y-98877000D01*
X134873000Y-98877000D01*
X134873000Y-98857000D01*
X134853000Y-98857000D01*
X134853000Y-98603000D01*
X134873000Y-98603000D01*
X134873000Y-97237750D01*
X135127000Y-97237750D01*
X135127000Y-98603000D01*
X136492250Y-98603000D01*
X136651000Y-98444250D01*
X136651000Y-97587691D01*
X136554327Y-97354302D01*
X136375699Y-97175673D01*
X136142310Y-97079000D01*
X135285750Y-97079000D01*
X135127000Y-97237750D01*
X134873000Y-97237750D01*
X134714250Y-97079000D01*
X133857690Y-97079000D01*
X133710000Y-97140175D01*
X133710000Y-95323795D01*
X148364716Y-95323795D01*
X148365000Y-95324482D01*
X148365000Y-99998574D01*
X148364716Y-100323795D01*
X148613106Y-100924943D01*
X149072637Y-101385278D01*
X149673352Y-101634716D01*
X150323795Y-101635284D01*
X150924943Y-101386894D01*
X151385278Y-100927363D01*
X151634716Y-100326648D01*
X151635284Y-99676205D01*
X151635000Y-99675518D01*
X151635000Y-95001427D01*
X151635284Y-94676205D01*
X151386894Y-94075057D01*
X150927363Y-93614722D01*
X150326648Y-93365284D01*
X149676205Y-93364716D01*
X149075057Y-93613106D01*
X148614722Y-94072637D01*
X148365284Y-94673352D01*
X148364716Y-95323795D01*
X133710000Y-95323795D01*
X133710000Y-93069931D01*
X133821046Y-92511662D01*
X134097669Y-92097667D01*
X134511660Y-91821047D01*
X135069931Y-91710000D01*
X152930069Y-91710000D01*
X153488338Y-91821046D01*
X153488338Y-91821046D01*
G37*
X153488338Y-91821046D02*
X153902333Y-92097669D01*
X154178953Y-92511660D01*
X154290000Y-93069931D01*
X154290000Y-106930069D01*
X154178953Y-107488340D01*
X153902333Y-107902331D01*
X153488338Y-108178954D01*
X152930069Y-108290000D01*
X135069931Y-108290000D01*
X134511660Y-108178953D01*
X134097669Y-107902333D01*
X133821046Y-107488338D01*
X133710000Y-106930069D01*
X133710000Y-106152532D01*
X149027073Y-106152532D01*
X149125736Y-106419387D01*
X149735461Y-106645908D01*
X150385460Y-106621856D01*
X150874264Y-106419387D01*
X150972927Y-106152532D01*
X150000000Y-105179605D01*
X149027073Y-106152532D01*
X133710000Y-106152532D01*
X133710000Y-104735461D01*
X148354092Y-104735461D01*
X148378144Y-105385460D01*
X148580613Y-105874264D01*
X148847468Y-105972927D01*
X149820395Y-105000000D01*
X150179605Y-105000000D01*
X151152532Y-105972927D01*
X151419387Y-105874264D01*
X151645908Y-105264539D01*
X151621856Y-104614540D01*
X151419387Y-104125736D01*
X151152532Y-104027073D01*
X150179605Y-105000000D01*
X149820395Y-105000000D01*
X148847468Y-104027073D01*
X148580613Y-104125736D01*
X148354092Y-104735461D01*
X133710000Y-104735461D01*
X133710000Y-103847468D01*
X149027073Y-103847468D01*
X150000000Y-104820395D01*
X150972927Y-103847468D01*
X150874264Y-103580613D01*
X150264539Y-103354092D01*
X149614540Y-103378144D01*
X149125736Y-103580613D01*
X149027073Y-103847468D01*
X133710000Y-103847468D01*
X133710000Y-102286344D01*
X133832567Y-102469778D01*
X134368190Y-102827670D01*
X135000000Y-102953345D01*
X135631810Y-102827670D01*
X136167433Y-102469778D01*
X136525325Y-101934155D01*
X136651000Y-101302345D01*
X136651000Y-101237655D01*
X136525325Y-100605845D01*
X136324628Y-100305481D01*
X136375699Y-100284327D01*
X136554327Y-100105698D01*
X136651000Y-99872309D01*
X136651000Y-99015750D01*
X136492250Y-98857000D01*
X135127000Y-98857000D01*
X135127000Y-98877000D01*
X134873000Y-98877000D01*
X134873000Y-98857000D01*
X134853000Y-98857000D01*
X134853000Y-98603000D01*
X134873000Y-98603000D01*
X134873000Y-97237750D01*
X135127000Y-97237750D01*
X135127000Y-98603000D01*
X136492250Y-98603000D01*
X136651000Y-98444250D01*
X136651000Y-97587691D01*
X136554327Y-97354302D01*
X136375699Y-97175673D01*
X136142310Y-97079000D01*
X135285750Y-97079000D01*
X135127000Y-97237750D01*
X134873000Y-97237750D01*
X134714250Y-97079000D01*
X133857690Y-97079000D01*
X133710000Y-97140175D01*
X133710000Y-95323795D01*
X148364716Y-95323795D01*
X148365000Y-95324482D01*
X148365000Y-99998574D01*
X148364716Y-100323795D01*
X148613106Y-100924943D01*
X149072637Y-101385278D01*
X149673352Y-101634716D01*
X150323795Y-101635284D01*
X150924943Y-101386894D01*
X151385278Y-100927363D01*
X151634716Y-100326648D01*
X151635284Y-99676205D01*
X151635000Y-99675518D01*
X151635000Y-95001427D01*
X151635284Y-94676205D01*
X151386894Y-94075057D01*
X150927363Y-93614722D01*
X150326648Y-93365284D01*
X149676205Y-93364716D01*
X149075057Y-93613106D01*
X148614722Y-94072637D01*
X148365284Y-94673352D01*
X148364716Y-95323795D01*
X133710000Y-95323795D01*
X133710000Y-93069931D01*
X133821046Y-92511662D01*
X134097669Y-92097667D01*
X134511660Y-91821047D01*
X135069931Y-91710000D01*
X152930069Y-91710000D01*
X153488338Y-91821046D01*
M02*
