G04 #@! TF.FileFunction,Legend,Top*
%FSLAX46Y46*%
G04 Gerber Fmt 4.6, Leading zero omitted, Abs format (unit mm)*
G04 Created by KiCad (PCBNEW 4.0.2+e4-6225~38~ubuntu15.04.1-stable) date Sat 09 Jul 2016 10:26:06 PM PDT*
%MOMM*%
G01*
G04 APERTURE LIST*
%ADD10C,0.100000*%
%ADD11C,0.300000*%
%ADD12C,0.127000*%
%ADD13C,0.150000*%
G04 APERTURE END LIST*
D10*
D11*
X133964286Y-104877143D02*
X134178572Y-104948571D01*
X134535715Y-104948571D01*
X134678572Y-104877143D01*
X134750001Y-104805714D01*
X134821429Y-104662857D01*
X134821429Y-104520000D01*
X134750001Y-104377143D01*
X134678572Y-104305714D01*
X134535715Y-104234286D01*
X134250001Y-104162857D01*
X134107143Y-104091429D01*
X134035715Y-104020000D01*
X133964286Y-103877143D01*
X133964286Y-103734286D01*
X134035715Y-103591429D01*
X134107143Y-103520000D01*
X134250001Y-103448571D01*
X134607143Y-103448571D01*
X134821429Y-103520000D01*
X135464286Y-104948571D02*
X135464286Y-103448571D01*
X136964286Y-103520000D02*
X136821429Y-103448571D01*
X136607143Y-103448571D01*
X136392858Y-103520000D01*
X136250000Y-103662857D01*
X136178572Y-103805714D01*
X136107143Y-104091429D01*
X136107143Y-104305714D01*
X136178572Y-104591429D01*
X136250000Y-104734286D01*
X136392858Y-104877143D01*
X136607143Y-104948571D01*
X136750000Y-104948571D01*
X136964286Y-104877143D01*
X137035715Y-104805714D01*
X137035715Y-104305714D01*
X136750000Y-104305714D01*
X134357143Y-94980000D02*
X134214286Y-94908571D01*
X134000000Y-94908571D01*
X133785715Y-94980000D01*
X133642857Y-95122857D01*
X133571429Y-95265714D01*
X133500000Y-95551429D01*
X133500000Y-95765714D01*
X133571429Y-96051429D01*
X133642857Y-96194286D01*
X133785715Y-96337143D01*
X134000000Y-96408571D01*
X134142857Y-96408571D01*
X134357143Y-96337143D01*
X134428572Y-96265714D01*
X134428572Y-95765714D01*
X134142857Y-95765714D01*
X135071429Y-96408571D02*
X135071429Y-94908571D01*
X135928572Y-96408571D01*
X135928572Y-94908571D01*
X136642858Y-96408571D02*
X136642858Y-94908571D01*
X137000001Y-94908571D01*
X137214286Y-94980000D01*
X137357144Y-95122857D01*
X137428572Y-95265714D01*
X137500001Y-95551429D01*
X137500001Y-95765714D01*
X137428572Y-96051429D01*
X137357144Y-96194286D01*
X137214286Y-96337143D01*
X137000001Y-96408571D01*
X136642858Y-96408571D01*
D12*
X154300000Y-107500000D02*
X146000000Y-107500000D01*
X154300000Y-92500000D02*
X154300000Y-107500000D01*
X146000000Y-92500000D02*
X154300000Y-92500000D01*
X146000000Y-107500000D02*
X146000000Y-92500000D01*
X153700000Y-92500000D02*
X153700000Y-107500000D01*
D13*
X133450000Y-97180000D02*
X133450000Y-98730000D01*
X133730000Y-102540000D02*
X133730000Y-100000000D01*
X133730000Y-100000000D02*
X136270000Y-100000000D01*
X136550000Y-98730000D02*
X136550000Y-97180000D01*
X136550000Y-97180000D02*
X133450000Y-97180000D01*
X136270000Y-100000000D02*
X136270000Y-102540000D01*
X136270000Y-102540000D02*
X133730000Y-102540000D01*
X142897000Y-100506000D02*
X142897000Y-103681000D01*
X142897000Y-103681000D02*
X144675000Y-103681000D01*
X144675000Y-103681000D02*
X144675000Y-100506000D01*
X138325000Y-100506000D02*
X138325000Y-103681000D01*
X138325000Y-103681000D02*
X140103000Y-103681000D01*
X140103000Y-103681000D02*
X140103000Y-100506000D01*
X144929000Y-94410000D02*
X144929000Y-100506000D01*
X144929000Y-100506000D02*
X138071000Y-100506000D01*
X138071000Y-100506000D02*
X138071000Y-92632000D01*
X138071000Y-92505000D02*
X144929000Y-92505000D01*
X144929000Y-92632000D02*
X144929000Y-94410000D01*
X143200000Y-104425000D02*
X144200000Y-104425000D01*
X144200000Y-105775000D02*
X143200000Y-105775000D01*
X138820000Y-104425000D02*
X139820000Y-104425000D01*
X139820000Y-105775000D02*
X138820000Y-105775000D01*
X141404762Y-102577619D02*
X141309524Y-102530000D01*
X141214286Y-102434762D01*
X141071429Y-102291905D01*
X140976190Y-102244286D01*
X140880952Y-102244286D01*
X140928571Y-102482381D02*
X140833333Y-102434762D01*
X140738095Y-102339524D01*
X140690476Y-102149048D01*
X140690476Y-101815714D01*
X140738095Y-101625238D01*
X140833333Y-101530000D01*
X140928571Y-101482381D01*
X141119048Y-101482381D01*
X141214286Y-101530000D01*
X141309524Y-101625238D01*
X141357143Y-101815714D01*
X141357143Y-102149048D01*
X141309524Y-102339524D01*
X141214286Y-102434762D01*
X141119048Y-102482381D01*
X140928571Y-102482381D01*
X142309524Y-102482381D02*
X141738095Y-102482381D01*
X142023809Y-102482381D02*
X142023809Y-101482381D01*
X141928571Y-101625238D01*
X141833333Y-101720476D01*
X141738095Y-101768095D01*
X143533334Y-107452381D02*
X143200000Y-106976190D01*
X142961905Y-107452381D02*
X142961905Y-106452381D01*
X143342858Y-106452381D01*
X143438096Y-106500000D01*
X143485715Y-106547619D01*
X143533334Y-106642857D01*
X143533334Y-106785714D01*
X143485715Y-106880952D01*
X143438096Y-106928571D01*
X143342858Y-106976190D01*
X142961905Y-106976190D01*
X144485715Y-107452381D02*
X143914286Y-107452381D01*
X144200000Y-107452381D02*
X144200000Y-106452381D01*
X144104762Y-106595238D01*
X144009524Y-106690476D01*
X143914286Y-106738095D01*
X139153334Y-107452381D02*
X138820000Y-106976190D01*
X138581905Y-107452381D02*
X138581905Y-106452381D01*
X138962858Y-106452381D01*
X139058096Y-106500000D01*
X139105715Y-106547619D01*
X139153334Y-106642857D01*
X139153334Y-106785714D01*
X139105715Y-106880952D01*
X139058096Y-106928571D01*
X138962858Y-106976190D01*
X138581905Y-106976190D01*
X139534286Y-106547619D02*
X139581905Y-106500000D01*
X139677143Y-106452381D01*
X139915239Y-106452381D01*
X140010477Y-106500000D01*
X140058096Y-106547619D01*
X140105715Y-106642857D01*
X140105715Y-106738095D01*
X140058096Y-106880952D01*
X139486667Y-107452381D01*
X140105715Y-107452381D01*
M02*
