G04 #@! TF.FileFunction,Copper,L1,Top,Signal*
%FSLAX46Y46*%
G04 Gerber Fmt 4.6, Leading zero omitted, Abs format (unit mm)*
G04 Created by KiCad (PCBNEW 4.0.2+e4-6225~38~ubuntu15.04.1-stable) date Sat 11 Jun 2016 05:41:06 PM PDT*
%MOMM*%
G01*
G04 APERTURE LIST*
%ADD10C,0.100000*%
%ADD11C,2.000000*%
%ADD12R,2.032000X2.032000*%
%ADD13O,2.032000X2.032000*%
%ADD14R,1.651000X3.048000*%
%ADD15R,6.096000X6.096000*%
%ADD16R,0.500000X0.900000*%
%ADD17C,2.000000*%
%ADD18C,0.500000*%
%ADD19C,0.254000*%
G04 APERTURE END LIST*
D10*
D11*
X150000000Y-105000000D03*
X150000000Y-100000000D03*
X150000000Y-95000000D03*
D12*
X135000000Y-98730000D03*
D13*
X135000000Y-101270000D03*
D14*
X139214000Y-102030000D03*
D15*
X141500000Y-95680000D03*
D14*
X143786000Y-102030000D03*
D16*
X144450000Y-105100000D03*
X142950000Y-105100000D03*
X140070000Y-105100000D03*
X138570000Y-105100000D03*
D17*
X150000000Y-95000000D02*
X142180000Y-95000000D01*
X142180000Y-95000000D02*
X141500000Y-95680000D01*
X150000000Y-95000000D02*
X150000000Y-100000000D01*
D18*
X138570000Y-105100000D02*
X135000000Y-101530000D01*
X135000000Y-101530000D02*
X135000000Y-101270000D01*
X140070000Y-105100000D02*
X140070000Y-102886000D01*
X140070000Y-102886000D02*
X139214000Y-102030000D01*
X140070000Y-105100000D02*
X142950000Y-105100000D01*
D19*
G36*
X153488338Y-91821046D02*
X153902333Y-92097669D01*
X154178953Y-92511660D01*
X154290000Y-93069931D01*
X154290000Y-106930069D01*
X154178953Y-107488340D01*
X153902333Y-107902331D01*
X153488338Y-108178954D01*
X152930069Y-108290000D01*
X135069931Y-108290000D01*
X134511660Y-108178953D01*
X134097669Y-107902333D01*
X133821046Y-107488338D01*
X133710000Y-106930069D01*
X133710000Y-102286344D01*
X133832567Y-102469778D01*
X134368190Y-102827670D01*
X135000000Y-102953345D01*
X135143267Y-102924847D01*
X137672560Y-105454139D01*
X137672560Y-105550000D01*
X137716838Y-105785317D01*
X137855910Y-106001441D01*
X138068110Y-106146431D01*
X138320000Y-106197440D01*
X138820000Y-106197440D01*
X139055317Y-106153162D01*
X139271441Y-106014090D01*
X139319134Y-105944289D01*
X139355910Y-106001441D01*
X139568110Y-106146431D01*
X139820000Y-106197440D01*
X140320000Y-106197440D01*
X140555317Y-106153162D01*
X140771441Y-106014090D01*
X140791317Y-105985000D01*
X142225331Y-105985000D01*
X142235910Y-106001441D01*
X142448110Y-106146431D01*
X142700000Y-106197440D01*
X143200000Y-106197440D01*
X143435317Y-106153162D01*
X143651441Y-106014090D01*
X143697969Y-105945994D01*
X143840302Y-106088327D01*
X144073691Y-106185000D01*
X144166250Y-106185000D01*
X144325000Y-106026250D01*
X144325000Y-105227000D01*
X144575000Y-105227000D01*
X144575000Y-106026250D01*
X144733750Y-106185000D01*
X144826309Y-106185000D01*
X145059698Y-106088327D01*
X145238327Y-105909699D01*
X145335000Y-105676310D01*
X145335000Y-105385750D01*
X145273045Y-105323795D01*
X148364716Y-105323795D01*
X148613106Y-105924943D01*
X149072637Y-106385278D01*
X149673352Y-106634716D01*
X150323795Y-106635284D01*
X150924943Y-106386894D01*
X151385278Y-105927363D01*
X151634716Y-105326648D01*
X151635284Y-104676205D01*
X151386894Y-104075057D01*
X150927363Y-103614722D01*
X150326648Y-103365284D01*
X149676205Y-103364716D01*
X149075057Y-103613106D01*
X148614722Y-104072637D01*
X148365284Y-104673352D01*
X148364716Y-105323795D01*
X145273045Y-105323795D01*
X145176250Y-105227000D01*
X144575000Y-105227000D01*
X144325000Y-105227000D01*
X144303000Y-105227000D01*
X144303000Y-104973000D01*
X144325000Y-104973000D01*
X144325000Y-104953000D01*
X144575000Y-104953000D01*
X144575000Y-104973000D01*
X145176250Y-104973000D01*
X145335000Y-104814250D01*
X145335000Y-104523690D01*
X145238327Y-104290301D01*
X145059698Y-104111673D01*
X144983439Y-104080086D01*
X145149827Y-103913699D01*
X145246500Y-103680310D01*
X145246500Y-102315750D01*
X145087750Y-102157000D01*
X143913000Y-102157000D01*
X143913000Y-102177000D01*
X143659000Y-102177000D01*
X143659000Y-102157000D01*
X142484250Y-102157000D01*
X142325500Y-102315750D01*
X142325500Y-103680310D01*
X142422173Y-103913699D01*
X142540960Y-104032485D01*
X142464683Y-104046838D01*
X142248559Y-104185910D01*
X142228683Y-104215000D01*
X140955000Y-104215000D01*
X140955000Y-102886005D01*
X140955001Y-102886000D01*
X140887633Y-102547326D01*
X140887633Y-102547325D01*
X140695790Y-102260210D01*
X140695787Y-102260208D01*
X140686940Y-102251361D01*
X140686940Y-100506000D01*
X140663174Y-100379690D01*
X142325500Y-100379690D01*
X142325500Y-101744250D01*
X142484250Y-101903000D01*
X143659000Y-101903000D01*
X143659000Y-100029750D01*
X143913000Y-100029750D01*
X143913000Y-101903000D01*
X145087750Y-101903000D01*
X145246500Y-101744250D01*
X145246500Y-100379690D01*
X145149827Y-100146301D01*
X144971198Y-99967673D01*
X144737809Y-99871000D01*
X144071750Y-99871000D01*
X143913000Y-100029750D01*
X143659000Y-100029750D01*
X143500250Y-99871000D01*
X142834191Y-99871000D01*
X142600802Y-99967673D01*
X142422173Y-100146301D01*
X142325500Y-100379690D01*
X140663174Y-100379690D01*
X140642662Y-100270683D01*
X140503590Y-100054559D01*
X140291390Y-99909569D01*
X140039500Y-99858560D01*
X138388500Y-99858560D01*
X138153183Y-99902838D01*
X137937059Y-100041910D01*
X137792069Y-100254110D01*
X137741060Y-100506000D01*
X137741060Y-103019481D01*
X136546961Y-101825382D01*
X136651000Y-101302345D01*
X136651000Y-101237655D01*
X136525325Y-100605845D01*
X136324628Y-100305481D01*
X136375699Y-100284327D01*
X136554327Y-100105698D01*
X136651000Y-99872309D01*
X136651000Y-99015750D01*
X136492250Y-98857000D01*
X135127000Y-98857000D01*
X135127000Y-98877000D01*
X134873000Y-98877000D01*
X134873000Y-98857000D01*
X134853000Y-98857000D01*
X134853000Y-98603000D01*
X134873000Y-98603000D01*
X134873000Y-97237750D01*
X135127000Y-97237750D01*
X135127000Y-98603000D01*
X136492250Y-98603000D01*
X136651000Y-98444250D01*
X136651000Y-97587691D01*
X136554327Y-97354302D01*
X136375699Y-97175673D01*
X136142310Y-97079000D01*
X135285750Y-97079000D01*
X135127000Y-97237750D01*
X134873000Y-97237750D01*
X134714250Y-97079000D01*
X133857690Y-97079000D01*
X133710000Y-97140175D01*
X133710000Y-93069931D01*
X133797109Y-92632000D01*
X137804560Y-92632000D01*
X137804560Y-98728000D01*
X137848838Y-98963317D01*
X137987910Y-99179441D01*
X138200110Y-99324431D01*
X138452000Y-99375440D01*
X144548000Y-99375440D01*
X144783317Y-99331162D01*
X144999441Y-99192090D01*
X145144431Y-98979890D01*
X145195440Y-98728000D01*
X145195440Y-96635000D01*
X148365000Y-96635000D01*
X148365000Y-99998574D01*
X148364716Y-100323795D01*
X148613106Y-100924943D01*
X149072637Y-101385278D01*
X149673352Y-101634716D01*
X150323795Y-101635284D01*
X150924943Y-101386894D01*
X151385278Y-100927363D01*
X151634716Y-100326648D01*
X151635284Y-99676205D01*
X151635000Y-99675518D01*
X151635000Y-95001427D01*
X151635284Y-94676205D01*
X151386894Y-94075057D01*
X150927363Y-93614722D01*
X150326648Y-93365284D01*
X149676205Y-93364716D01*
X149675518Y-93365000D01*
X145195440Y-93365000D01*
X145195440Y-92632000D01*
X145151162Y-92396683D01*
X145012090Y-92180559D01*
X144799890Y-92035569D01*
X144548000Y-91984560D01*
X138452000Y-91984560D01*
X138216683Y-92028838D01*
X138000559Y-92167910D01*
X137855569Y-92380110D01*
X137804560Y-92632000D01*
X133797109Y-92632000D01*
X133821046Y-92511662D01*
X134097669Y-92097667D01*
X134511660Y-91821047D01*
X135069931Y-91710000D01*
X152930069Y-91710000D01*
X153488338Y-91821046D01*
X153488338Y-91821046D01*
G37*
X153488338Y-91821046D02*
X153902333Y-92097669D01*
X154178953Y-92511660D01*
X154290000Y-93069931D01*
X154290000Y-106930069D01*
X154178953Y-107488340D01*
X153902333Y-107902331D01*
X153488338Y-108178954D01*
X152930069Y-108290000D01*
X135069931Y-108290000D01*
X134511660Y-108178953D01*
X134097669Y-107902333D01*
X133821046Y-107488338D01*
X133710000Y-106930069D01*
X133710000Y-102286344D01*
X133832567Y-102469778D01*
X134368190Y-102827670D01*
X135000000Y-102953345D01*
X135143267Y-102924847D01*
X137672560Y-105454139D01*
X137672560Y-105550000D01*
X137716838Y-105785317D01*
X137855910Y-106001441D01*
X138068110Y-106146431D01*
X138320000Y-106197440D01*
X138820000Y-106197440D01*
X139055317Y-106153162D01*
X139271441Y-106014090D01*
X139319134Y-105944289D01*
X139355910Y-106001441D01*
X139568110Y-106146431D01*
X139820000Y-106197440D01*
X140320000Y-106197440D01*
X140555317Y-106153162D01*
X140771441Y-106014090D01*
X140791317Y-105985000D01*
X142225331Y-105985000D01*
X142235910Y-106001441D01*
X142448110Y-106146431D01*
X142700000Y-106197440D01*
X143200000Y-106197440D01*
X143435317Y-106153162D01*
X143651441Y-106014090D01*
X143697969Y-105945994D01*
X143840302Y-106088327D01*
X144073691Y-106185000D01*
X144166250Y-106185000D01*
X144325000Y-106026250D01*
X144325000Y-105227000D01*
X144575000Y-105227000D01*
X144575000Y-106026250D01*
X144733750Y-106185000D01*
X144826309Y-106185000D01*
X145059698Y-106088327D01*
X145238327Y-105909699D01*
X145335000Y-105676310D01*
X145335000Y-105385750D01*
X145273045Y-105323795D01*
X148364716Y-105323795D01*
X148613106Y-105924943D01*
X149072637Y-106385278D01*
X149673352Y-106634716D01*
X150323795Y-106635284D01*
X150924943Y-106386894D01*
X151385278Y-105927363D01*
X151634716Y-105326648D01*
X151635284Y-104676205D01*
X151386894Y-104075057D01*
X150927363Y-103614722D01*
X150326648Y-103365284D01*
X149676205Y-103364716D01*
X149075057Y-103613106D01*
X148614722Y-104072637D01*
X148365284Y-104673352D01*
X148364716Y-105323795D01*
X145273045Y-105323795D01*
X145176250Y-105227000D01*
X144575000Y-105227000D01*
X144325000Y-105227000D01*
X144303000Y-105227000D01*
X144303000Y-104973000D01*
X144325000Y-104973000D01*
X144325000Y-104953000D01*
X144575000Y-104953000D01*
X144575000Y-104973000D01*
X145176250Y-104973000D01*
X145335000Y-104814250D01*
X145335000Y-104523690D01*
X145238327Y-104290301D01*
X145059698Y-104111673D01*
X144983439Y-104080086D01*
X145149827Y-103913699D01*
X145246500Y-103680310D01*
X145246500Y-102315750D01*
X145087750Y-102157000D01*
X143913000Y-102157000D01*
X143913000Y-102177000D01*
X143659000Y-102177000D01*
X143659000Y-102157000D01*
X142484250Y-102157000D01*
X142325500Y-102315750D01*
X142325500Y-103680310D01*
X142422173Y-103913699D01*
X142540960Y-104032485D01*
X142464683Y-104046838D01*
X142248559Y-104185910D01*
X142228683Y-104215000D01*
X140955000Y-104215000D01*
X140955000Y-102886005D01*
X140955001Y-102886000D01*
X140887633Y-102547326D01*
X140887633Y-102547325D01*
X140695790Y-102260210D01*
X140695787Y-102260208D01*
X140686940Y-102251361D01*
X140686940Y-100506000D01*
X140663174Y-100379690D01*
X142325500Y-100379690D01*
X142325500Y-101744250D01*
X142484250Y-101903000D01*
X143659000Y-101903000D01*
X143659000Y-100029750D01*
X143913000Y-100029750D01*
X143913000Y-101903000D01*
X145087750Y-101903000D01*
X145246500Y-101744250D01*
X145246500Y-100379690D01*
X145149827Y-100146301D01*
X144971198Y-99967673D01*
X144737809Y-99871000D01*
X144071750Y-99871000D01*
X143913000Y-100029750D01*
X143659000Y-100029750D01*
X143500250Y-99871000D01*
X142834191Y-99871000D01*
X142600802Y-99967673D01*
X142422173Y-100146301D01*
X142325500Y-100379690D01*
X140663174Y-100379690D01*
X140642662Y-100270683D01*
X140503590Y-100054559D01*
X140291390Y-99909569D01*
X140039500Y-99858560D01*
X138388500Y-99858560D01*
X138153183Y-99902838D01*
X137937059Y-100041910D01*
X137792069Y-100254110D01*
X137741060Y-100506000D01*
X137741060Y-103019481D01*
X136546961Y-101825382D01*
X136651000Y-101302345D01*
X136651000Y-101237655D01*
X136525325Y-100605845D01*
X136324628Y-100305481D01*
X136375699Y-100284327D01*
X136554327Y-100105698D01*
X136651000Y-99872309D01*
X136651000Y-99015750D01*
X136492250Y-98857000D01*
X135127000Y-98857000D01*
X135127000Y-98877000D01*
X134873000Y-98877000D01*
X134873000Y-98857000D01*
X134853000Y-98857000D01*
X134853000Y-98603000D01*
X134873000Y-98603000D01*
X134873000Y-97237750D01*
X135127000Y-97237750D01*
X135127000Y-98603000D01*
X136492250Y-98603000D01*
X136651000Y-98444250D01*
X136651000Y-97587691D01*
X136554327Y-97354302D01*
X136375699Y-97175673D01*
X136142310Y-97079000D01*
X135285750Y-97079000D01*
X135127000Y-97237750D01*
X134873000Y-97237750D01*
X134714250Y-97079000D01*
X133857690Y-97079000D01*
X133710000Y-97140175D01*
X133710000Y-93069931D01*
X133797109Y-92632000D01*
X137804560Y-92632000D01*
X137804560Y-98728000D01*
X137848838Y-98963317D01*
X137987910Y-99179441D01*
X138200110Y-99324431D01*
X138452000Y-99375440D01*
X144548000Y-99375440D01*
X144783317Y-99331162D01*
X144999441Y-99192090D01*
X145144431Y-98979890D01*
X145195440Y-98728000D01*
X145195440Y-96635000D01*
X148365000Y-96635000D01*
X148365000Y-99998574D01*
X148364716Y-100323795D01*
X148613106Y-100924943D01*
X149072637Y-101385278D01*
X149673352Y-101634716D01*
X150323795Y-101635284D01*
X150924943Y-101386894D01*
X151385278Y-100927363D01*
X151634716Y-100326648D01*
X151635284Y-99676205D01*
X151635000Y-99675518D01*
X151635000Y-95001427D01*
X151635284Y-94676205D01*
X151386894Y-94075057D01*
X150927363Y-93614722D01*
X150326648Y-93365284D01*
X149676205Y-93364716D01*
X149675518Y-93365000D01*
X145195440Y-93365000D01*
X145195440Y-92632000D01*
X145151162Y-92396683D01*
X145012090Y-92180559D01*
X144799890Y-92035569D01*
X144548000Y-91984560D01*
X138452000Y-91984560D01*
X138216683Y-92028838D01*
X138000559Y-92167910D01*
X137855569Y-92380110D01*
X137804560Y-92632000D01*
X133797109Y-92632000D01*
X133821046Y-92511662D01*
X134097669Y-92097667D01*
X134511660Y-91821047D01*
X135069931Y-91710000D01*
X152930069Y-91710000D01*
X153488338Y-91821046D01*
M02*
