G04 #@! TF.FileFunction,Legend,Top*
%FSLAX46Y46*%
G04 Gerber Fmt 4.6, Leading zero omitted, Abs format (unit mm)*
G04 Created by KiCad (PCBNEW 4.0.2-4+6225~38~ubuntu15.04.1-stable) date Fri 29 Apr 2016 12:43:49 PM PDT*
%MOMM*%
G01*
G04 APERTURE LIST*
%ADD10C,0.100000*%
%ADD11C,0.150000*%
%ADD12C,0.300000*%
%ADD13C,0.250000*%
%ADD14C,0.127000*%
%ADD15C,0.400000*%
G04 APERTURE END LIST*
D10*
D11*
X152880000Y-70000000D02*
X152880000Y-71000000D01*
X151700000Y-70450000D02*
X151800000Y-70450000D01*
D12*
X151321429Y-78478571D02*
X151321429Y-76978571D01*
X151678572Y-76978571D01*
X151892857Y-77050000D01*
X152035715Y-77192857D01*
X152107143Y-77335714D01*
X152178572Y-77621429D01*
X152178572Y-77835714D01*
X152107143Y-78121429D01*
X152035715Y-78264286D01*
X151892857Y-78407143D01*
X151678572Y-78478571D01*
X151321429Y-78478571D01*
X153392857Y-78407143D02*
X153250000Y-78478571D01*
X152964286Y-78478571D01*
X152821429Y-78407143D01*
X152750000Y-78264286D01*
X152750000Y-77692857D01*
X152821429Y-77550000D01*
X152964286Y-77478571D01*
X153250000Y-77478571D01*
X153392857Y-77550000D01*
X153464286Y-77692857D01*
X153464286Y-77835714D01*
X152750000Y-77978571D01*
X154035714Y-78407143D02*
X154178571Y-78478571D01*
X154464286Y-78478571D01*
X154607143Y-78407143D01*
X154678571Y-78264286D01*
X154678571Y-78192857D01*
X154607143Y-78050000D01*
X154464286Y-77978571D01*
X154250000Y-77978571D01*
X154107143Y-77907143D01*
X154035714Y-77764286D01*
X154035714Y-77692857D01*
X154107143Y-77550000D01*
X154250000Y-77478571D01*
X154464286Y-77478571D01*
X154607143Y-77550000D01*
X155321429Y-78478571D02*
X155321429Y-77478571D01*
X155321429Y-76978571D02*
X155250000Y-77050000D01*
X155321429Y-77121429D01*
X155392857Y-77050000D01*
X155321429Y-76978571D01*
X155321429Y-77121429D01*
X156678572Y-77478571D02*
X156678572Y-78692857D01*
X156607143Y-78835714D01*
X156535715Y-78907143D01*
X156392858Y-78978571D01*
X156178572Y-78978571D01*
X156035715Y-78907143D01*
X156678572Y-78407143D02*
X156535715Y-78478571D01*
X156250001Y-78478571D01*
X156107143Y-78407143D01*
X156035715Y-78335714D01*
X155964286Y-78192857D01*
X155964286Y-77764286D01*
X156035715Y-77621429D01*
X156107143Y-77550000D01*
X156250001Y-77478571D01*
X156535715Y-77478571D01*
X156678572Y-77550000D01*
X157392858Y-77478571D02*
X157392858Y-78478571D01*
X157392858Y-77621429D02*
X157464286Y-77550000D01*
X157607144Y-77478571D01*
X157821429Y-77478571D01*
X157964286Y-77550000D01*
X158035715Y-77692857D01*
X158035715Y-78478571D01*
X159321429Y-78407143D02*
X159178572Y-78478571D01*
X158892858Y-78478571D01*
X158750001Y-78407143D01*
X158678572Y-78264286D01*
X158678572Y-77692857D01*
X158750001Y-77550000D01*
X158892858Y-77478571D01*
X159178572Y-77478571D01*
X159321429Y-77550000D01*
X159392858Y-77692857D01*
X159392858Y-77835714D01*
X158678572Y-77978571D01*
X160678572Y-78478571D02*
X160678572Y-76978571D01*
X160678572Y-78407143D02*
X160535715Y-78478571D01*
X160250001Y-78478571D01*
X160107143Y-78407143D01*
X160035715Y-78335714D01*
X159964286Y-78192857D01*
X159964286Y-77764286D01*
X160035715Y-77621429D01*
X160107143Y-77550000D01*
X160250001Y-77478571D01*
X160535715Y-77478571D01*
X160678572Y-77550000D01*
X152464286Y-80878571D02*
X152464286Y-79378571D01*
X152464286Y-79950000D02*
X152607143Y-79878571D01*
X152892857Y-79878571D01*
X153035714Y-79950000D01*
X153107143Y-80021429D01*
X153178572Y-80164286D01*
X153178572Y-80592857D01*
X153107143Y-80735714D01*
X153035714Y-80807143D01*
X152892857Y-80878571D01*
X152607143Y-80878571D01*
X152464286Y-80807143D01*
X153678572Y-79878571D02*
X154035715Y-80878571D01*
X154392857Y-79878571D02*
X154035715Y-80878571D01*
X153892857Y-81235714D01*
X153821429Y-81307143D01*
X153678572Y-81378571D01*
X156392857Y-79378571D02*
X156678571Y-79378571D01*
X156821429Y-79450000D01*
X156964286Y-79592857D01*
X157035714Y-79878571D01*
X157035714Y-80378571D01*
X156964286Y-80664286D01*
X156821429Y-80807143D01*
X156678571Y-80878571D01*
X156392857Y-80878571D01*
X156250000Y-80807143D01*
X156107143Y-80664286D01*
X156035714Y-80378571D01*
X156035714Y-79878571D01*
X156107143Y-79592857D01*
X156250000Y-79450000D01*
X156392857Y-79378571D01*
X157678572Y-79878571D02*
X157678572Y-81378571D01*
X157678572Y-79950000D02*
X157821429Y-79878571D01*
X158107143Y-79878571D01*
X158250000Y-79950000D01*
X158321429Y-80021429D01*
X158392858Y-80164286D01*
X158392858Y-80592857D01*
X158321429Y-80735714D01*
X158250000Y-80807143D01*
X158107143Y-80878571D01*
X157821429Y-80878571D01*
X157678572Y-80807143D01*
X158964286Y-80807143D02*
X159107143Y-80878571D01*
X159392858Y-80878571D01*
X159535715Y-80807143D01*
X159607143Y-80664286D01*
X159607143Y-80592857D01*
X159535715Y-80450000D01*
X159392858Y-80378571D01*
X159178572Y-80378571D01*
X159035715Y-80307143D01*
X158964286Y-80164286D01*
X158964286Y-80092857D01*
X159035715Y-79950000D01*
X159178572Y-79878571D01*
X159392858Y-79878571D01*
X159535715Y-79950000D01*
D13*
X125982857Y-69882381D02*
X125649523Y-69406190D01*
X125411428Y-69882381D02*
X125411428Y-68882381D01*
X125792381Y-68882381D01*
X125887619Y-68930000D01*
X125935238Y-68977619D01*
X125982857Y-69072857D01*
X125982857Y-69215714D01*
X125935238Y-69310952D01*
X125887619Y-69358571D01*
X125792381Y-69406190D01*
X125411428Y-69406190D01*
X126363809Y-69834762D02*
X126459047Y-69882381D01*
X126649523Y-69882381D01*
X126744762Y-69834762D01*
X126792381Y-69739524D01*
X126792381Y-69691905D01*
X126744762Y-69596667D01*
X126649523Y-69549048D01*
X126506666Y-69549048D01*
X126411428Y-69501429D01*
X126363809Y-69406190D01*
X126363809Y-69358571D01*
X126411428Y-69263333D01*
X126506666Y-69215714D01*
X126649523Y-69215714D01*
X126744762Y-69263333D01*
X127078095Y-69215714D02*
X127459047Y-69215714D01*
X127220952Y-68882381D02*
X127220952Y-69739524D01*
X127268571Y-69834762D01*
X127363809Y-69882381D01*
X127459047Y-69882381D01*
X128744762Y-68882381D02*
X128935239Y-68882381D01*
X129030477Y-68930000D01*
X129125715Y-69025238D01*
X129173334Y-69215714D01*
X129173334Y-69549048D01*
X129125715Y-69739524D01*
X129030477Y-69834762D01*
X128935239Y-69882381D01*
X128744762Y-69882381D01*
X128649524Y-69834762D01*
X128554286Y-69739524D01*
X128506667Y-69549048D01*
X128506667Y-69215714D01*
X128554286Y-69025238D01*
X128649524Y-68930000D01*
X128744762Y-68882381D01*
X129459048Y-69215714D02*
X129840000Y-69215714D01*
X129601905Y-69882381D02*
X129601905Y-69025238D01*
X129649524Y-68930000D01*
X129744762Y-68882381D01*
X129840000Y-68882381D01*
X130030477Y-69215714D02*
X130411429Y-69215714D01*
X130173334Y-69882381D02*
X130173334Y-69025238D01*
X130220953Y-68930000D01*
X130316191Y-68882381D01*
X130411429Y-68882381D01*
D12*
X154139048Y-88750000D02*
X154139048Y-87883333D01*
X154786667Y-88350000D01*
X154786667Y-88150000D01*
X154867619Y-88016667D01*
X154948571Y-87950000D01*
X155110476Y-87883333D01*
X155515238Y-87883333D01*
X155677143Y-87950000D01*
X155758095Y-88016667D01*
X155839048Y-88150000D01*
X155839048Y-88550000D01*
X155758095Y-88683333D01*
X155677143Y-88750000D01*
X154139048Y-87483334D02*
X155839048Y-87016667D01*
X154139048Y-86550000D01*
X154139048Y-86216667D02*
X154139048Y-85350000D01*
X154786667Y-85816667D01*
X154786667Y-85616667D01*
X154867619Y-85483334D01*
X154948571Y-85416667D01*
X155110476Y-85350000D01*
X155515238Y-85350000D01*
X155677143Y-85416667D01*
X155758095Y-85483334D01*
X155839048Y-85616667D01*
X155839048Y-86016667D01*
X155758095Y-86150000D01*
X155677143Y-86216667D01*
X158357143Y-87816667D02*
X158438095Y-87883333D01*
X158519048Y-88083333D01*
X158519048Y-88216667D01*
X158438095Y-88416667D01*
X158276190Y-88550000D01*
X158114286Y-88616667D01*
X157790476Y-88683333D01*
X157547619Y-88683333D01*
X157223810Y-88616667D01*
X157061905Y-88550000D01*
X156900000Y-88416667D01*
X156819048Y-88216667D01*
X156819048Y-88083333D01*
X156900000Y-87883333D01*
X156980952Y-87816667D01*
X158438095Y-87283333D02*
X158519048Y-87083333D01*
X158519048Y-86750000D01*
X158438095Y-86616667D01*
X158357143Y-86550000D01*
X158195238Y-86483333D01*
X158033333Y-86483333D01*
X157871429Y-86550000D01*
X157790476Y-86616667D01*
X157709524Y-86750000D01*
X157628571Y-87016667D01*
X157547619Y-87150000D01*
X157466667Y-87216667D01*
X157304762Y-87283333D01*
X157142857Y-87283333D01*
X156980952Y-87216667D01*
X156900000Y-87150000D01*
X156819048Y-87016667D01*
X156819048Y-86683333D01*
X156900000Y-86483333D01*
X161037143Y-87816667D02*
X161118095Y-87883333D01*
X161199048Y-88083333D01*
X161199048Y-88216667D01*
X161118095Y-88416667D01*
X160956190Y-88550000D01*
X160794286Y-88616667D01*
X160470476Y-88683333D01*
X160227619Y-88683333D01*
X159903810Y-88616667D01*
X159741905Y-88550000D01*
X159580000Y-88416667D01*
X159499048Y-88216667D01*
X159499048Y-88083333D01*
X159580000Y-87883333D01*
X159660952Y-87816667D01*
X161199048Y-86550000D02*
X161199048Y-87216667D01*
X159499048Y-87216667D01*
X161199048Y-86083334D02*
X159499048Y-86083334D01*
X161199048Y-85283334D02*
X160227619Y-85883334D01*
X159499048Y-85283334D02*
X160470476Y-86083334D01*
X163879048Y-88616667D02*
X162179048Y-88616667D01*
X163393333Y-88150000D01*
X162179048Y-87683333D01*
X163879048Y-87683333D01*
X163879048Y-87016667D02*
X162179048Y-87016667D01*
X163798095Y-86416666D02*
X163879048Y-86216666D01*
X163879048Y-85883333D01*
X163798095Y-85750000D01*
X163717143Y-85683333D01*
X163555238Y-85616666D01*
X163393333Y-85616666D01*
X163231429Y-85683333D01*
X163150476Y-85750000D01*
X163069524Y-85883333D01*
X162988571Y-86150000D01*
X162907619Y-86283333D01*
X162826667Y-86350000D01*
X162664762Y-86416666D01*
X162502857Y-86416666D01*
X162340952Y-86350000D01*
X162260000Y-86283333D01*
X162179048Y-86150000D01*
X162179048Y-85816666D01*
X162260000Y-85616666D01*
X162179048Y-84750000D02*
X162179048Y-84483333D01*
X162260000Y-84350000D01*
X162421905Y-84216667D01*
X162745714Y-84150000D01*
X163312381Y-84150000D01*
X163636190Y-84216667D01*
X163798095Y-84350000D01*
X163879048Y-84483333D01*
X163879048Y-84750000D01*
X163798095Y-84883333D01*
X163636190Y-85016667D01*
X163312381Y-85083333D01*
X162745714Y-85083333D01*
X162421905Y-85016667D01*
X162260000Y-84883333D01*
X162179048Y-84750000D01*
X166559048Y-88616667D02*
X164859048Y-88616667D01*
X166073333Y-88150000D01*
X164859048Y-87683333D01*
X166559048Y-87683333D01*
X164859048Y-86750000D02*
X164859048Y-86483333D01*
X164940000Y-86350000D01*
X165101905Y-86216667D01*
X165425714Y-86150000D01*
X165992381Y-86150000D01*
X166316190Y-86216667D01*
X166478095Y-86350000D01*
X166559048Y-86483333D01*
X166559048Y-86750000D01*
X166478095Y-86883333D01*
X166316190Y-87016667D01*
X165992381Y-87083333D01*
X165425714Y-87083333D01*
X165101905Y-87016667D01*
X164940000Y-86883333D01*
X164859048Y-86750000D01*
X166478095Y-85616666D02*
X166559048Y-85416666D01*
X166559048Y-85083333D01*
X166478095Y-84950000D01*
X166397143Y-84883333D01*
X166235238Y-84816666D01*
X166073333Y-84816666D01*
X165911429Y-84883333D01*
X165830476Y-84950000D01*
X165749524Y-85083333D01*
X165668571Y-85350000D01*
X165587619Y-85483333D01*
X165506667Y-85550000D01*
X165344762Y-85616666D01*
X165182857Y-85616666D01*
X165020952Y-85550000D01*
X164940000Y-85483333D01*
X164859048Y-85350000D01*
X164859048Y-85016666D01*
X164940000Y-84816666D01*
X166559048Y-84216667D02*
X164859048Y-84216667D01*
X167620000Y-87883333D02*
X167539048Y-88016667D01*
X167539048Y-88216667D01*
X167620000Y-88416667D01*
X167781905Y-88550000D01*
X167943810Y-88616667D01*
X168267619Y-88683333D01*
X168510476Y-88683333D01*
X168834286Y-88616667D01*
X168996190Y-88550000D01*
X169158095Y-88416667D01*
X169239048Y-88216667D01*
X169239048Y-88083333D01*
X169158095Y-87883333D01*
X169077143Y-87816667D01*
X168510476Y-87816667D01*
X168510476Y-88083333D01*
X169239048Y-87216667D02*
X167539048Y-87216667D01*
X169239048Y-86416667D01*
X167539048Y-86416667D01*
X169239048Y-85750000D02*
X167539048Y-85750000D01*
X167539048Y-85416666D01*
X167620000Y-85216666D01*
X167781905Y-85083333D01*
X167943810Y-85016666D01*
X168267619Y-84950000D01*
X168510476Y-84950000D01*
X168834286Y-85016666D01*
X168996190Y-85083333D01*
X169158095Y-85216666D01*
X169239048Y-85416666D01*
X169239048Y-85750000D01*
X123506667Y-65820000D02*
X123373333Y-65739048D01*
X123173333Y-65739048D01*
X122973333Y-65820000D01*
X122840000Y-65981905D01*
X122773333Y-66143810D01*
X122706667Y-66467619D01*
X122706667Y-66710476D01*
X122773333Y-67034286D01*
X122840000Y-67196190D01*
X122973333Y-67358095D01*
X123173333Y-67439048D01*
X123306667Y-67439048D01*
X123506667Y-67358095D01*
X123573333Y-67277143D01*
X123573333Y-66710476D01*
X123306667Y-66710476D01*
X124773333Y-67439048D02*
X124773333Y-65739048D01*
X124773333Y-67358095D02*
X124640000Y-67439048D01*
X124373333Y-67439048D01*
X124240000Y-67358095D01*
X124173333Y-67277143D01*
X124106667Y-67115238D01*
X124106667Y-66629524D01*
X124173333Y-66467619D01*
X124240000Y-66386667D01*
X124373333Y-66305714D01*
X124640000Y-66305714D01*
X124773333Y-66386667D01*
X123573333Y-69957143D02*
X123506667Y-70038095D01*
X123306667Y-70119048D01*
X123173333Y-70119048D01*
X122973333Y-70038095D01*
X122840000Y-69876190D01*
X122773333Y-69714286D01*
X122706667Y-69390476D01*
X122706667Y-69147619D01*
X122773333Y-68823810D01*
X122840000Y-68661905D01*
X122973333Y-68500000D01*
X123173333Y-68419048D01*
X123306667Y-68419048D01*
X123506667Y-68500000D01*
X123573333Y-68580952D01*
X123973333Y-68985714D02*
X124506667Y-68985714D01*
X124173333Y-68419048D02*
X124173333Y-69876190D01*
X124240000Y-70038095D01*
X124373333Y-70119048D01*
X124506667Y-70119048D01*
X123440000Y-71099048D02*
X122773333Y-71099048D01*
X122706667Y-71908571D01*
X122773333Y-71827619D01*
X122906667Y-71746667D01*
X123240000Y-71746667D01*
X123373333Y-71827619D01*
X123440000Y-71908571D01*
X123506667Y-72070476D01*
X123506667Y-72475238D01*
X123440000Y-72637143D01*
X123373333Y-72718095D01*
X123240000Y-72799048D01*
X122906667Y-72799048D01*
X122773333Y-72718095D01*
X122706667Y-72637143D01*
X123973333Y-71665714D02*
X124306666Y-72799048D01*
X124640000Y-71665714D01*
X123573333Y-75479048D02*
X123106667Y-74669524D01*
X122773333Y-75479048D02*
X122773333Y-73779048D01*
X123306667Y-73779048D01*
X123440000Y-73860000D01*
X123506667Y-73940952D01*
X123573333Y-74102857D01*
X123573333Y-74345714D01*
X123506667Y-74507619D01*
X123440000Y-74588571D01*
X123306667Y-74669524D01*
X122773333Y-74669524D01*
X124040000Y-75479048D02*
X124773333Y-74345714D01*
X124040000Y-74345714D02*
X124773333Y-75479048D01*
X122573333Y-76459048D02*
X123373333Y-76459048D01*
X122973333Y-78159048D02*
X122973333Y-76459048D01*
X123706667Y-78159048D02*
X124440000Y-77025714D01*
X123706667Y-77025714D02*
X124440000Y-78159048D01*
X123573333Y-80839048D02*
X123106667Y-80029524D01*
X122773333Y-80839048D02*
X122773333Y-79139048D01*
X123306667Y-79139048D01*
X123440000Y-79220000D01*
X123506667Y-79300952D01*
X123573333Y-79462857D01*
X123573333Y-79705714D01*
X123506667Y-79867619D01*
X123440000Y-79948571D01*
X123306667Y-80029524D01*
X122773333Y-80029524D01*
X123973333Y-79705714D02*
X124506667Y-79705714D01*
X124173333Y-79139048D02*
X124173333Y-80596190D01*
X124240000Y-80758095D01*
X124373333Y-80839048D01*
X124506667Y-80839048D01*
X124906667Y-80758095D02*
X125040000Y-80839048D01*
X125306667Y-80839048D01*
X125440000Y-80758095D01*
X125506667Y-80596190D01*
X125506667Y-80515238D01*
X125440000Y-80353333D01*
X125306667Y-80272381D01*
X125106667Y-80272381D01*
X124973333Y-80191429D01*
X124906667Y-80029524D01*
X124906667Y-79948571D01*
X124973333Y-79786667D01*
X125106667Y-79705714D01*
X125306667Y-79705714D01*
X125440000Y-79786667D01*
D13*
X119238096Y-84439048D02*
X118761905Y-84439048D01*
X118714286Y-85248571D01*
X118761905Y-85167619D01*
X118857143Y-85086667D01*
X119095239Y-85086667D01*
X119190477Y-85167619D01*
X119238096Y-85248571D01*
X119285715Y-85410476D01*
X119285715Y-85815238D01*
X119238096Y-85977143D01*
X119190477Y-86058095D01*
X119095239Y-86139048D01*
X118857143Y-86139048D01*
X118761905Y-86058095D01*
X118714286Y-85977143D01*
X118666667Y-87069048D02*
X119285715Y-87069048D01*
X118952381Y-87716667D01*
X119095239Y-87716667D01*
X119190477Y-87797619D01*
X119238096Y-87878571D01*
X119285715Y-88040476D01*
X119285715Y-88445238D01*
X119238096Y-88607143D01*
X119190477Y-88688095D01*
X119095239Y-88769048D01*
X118809524Y-88769048D01*
X118714286Y-88688095D01*
X118666667Y-88607143D01*
X119285715Y-91399048D02*
X118714286Y-91399048D01*
X119000000Y-91399048D02*
X119000000Y-89699048D01*
X118904762Y-89941905D01*
X118809524Y-90103810D01*
X118714286Y-90184762D01*
X125690477Y-84439048D02*
X125500000Y-84439048D01*
X125404762Y-84520000D01*
X125357143Y-84600952D01*
X125261905Y-84843810D01*
X125214286Y-85167619D01*
X125214286Y-85815238D01*
X125261905Y-85977143D01*
X125309524Y-86058095D01*
X125404762Y-86139048D01*
X125595239Y-86139048D01*
X125690477Y-86058095D01*
X125738096Y-85977143D01*
X125785715Y-85815238D01*
X125785715Y-85410476D01*
X125738096Y-85248571D01*
X125690477Y-85167619D01*
X125595239Y-85086667D01*
X125404762Y-85086667D01*
X125309524Y-85167619D01*
X125261905Y-85248571D01*
X125214286Y-85410476D01*
X125690477Y-87635714D02*
X125690477Y-88769048D01*
X125452381Y-86988095D02*
X125214286Y-88202381D01*
X125833334Y-88202381D01*
X125214286Y-89860952D02*
X125261905Y-89780000D01*
X125357143Y-89699048D01*
X125595239Y-89699048D01*
X125690477Y-89780000D01*
X125738096Y-89860952D01*
X125785715Y-90022857D01*
X125785715Y-90184762D01*
X125738096Y-90427619D01*
X125166667Y-91399048D01*
X125785715Y-91399048D01*
D11*
X129700000Y-75150000D02*
X129700000Y-75850000D01*
X128500000Y-75850000D02*
X128500000Y-75150000D01*
X151900000Y-89350000D02*
X151900000Y-88650000D01*
X153100000Y-88650000D02*
X153100000Y-89350000D01*
X151800000Y-70450000D02*
X159800000Y-70450000D01*
X159800000Y-66050000D02*
X151700000Y-66050000D01*
X151800000Y-74950000D02*
X159800000Y-74950000D01*
X159800000Y-70550000D02*
X151700000Y-70550000D01*
X127775494Y-86775494D02*
X127506086Y-86506086D01*
X128493914Y-87493914D02*
X128224506Y-87224506D01*
X128224506Y-87224506D02*
X127506086Y-87044901D01*
X127506086Y-87044901D02*
X128044901Y-86506086D01*
X128044901Y-86506086D02*
X128224506Y-87224506D01*
X127865296Y-87583717D02*
X128583717Y-86865296D01*
X130050610Y-87777817D02*
X127547452Y-85274659D01*
X128777817Y-89050610D02*
X126274659Y-86547452D01*
D14*
X165000000Y-65000000D02*
X171000000Y-65000000D01*
X165000000Y-79500000D02*
X165000000Y-65000000D01*
X171000000Y-79500000D02*
X165000000Y-79500000D01*
X171000000Y-65000000D02*
X171000000Y-79500000D01*
D11*
X119730000Y-84150000D02*
X119730000Y-89230000D01*
X119450000Y-92050000D02*
X119450000Y-90500000D01*
X122270000Y-91770000D02*
X122270000Y-89230000D01*
X122270000Y-89230000D02*
X119730000Y-89230000D01*
X119730000Y-84150000D02*
X124810000Y-84150000D01*
X124810000Y-84150000D02*
X124810000Y-89230000D01*
X119450000Y-92050000D02*
X121000000Y-92050000D01*
X124810000Y-91770000D02*
X122270000Y-91770000D01*
X124810000Y-89230000D02*
X124810000Y-91770000D01*
X119730000Y-68270000D02*
X119730000Y-80970000D01*
X119730000Y-80970000D02*
X122270000Y-80970000D01*
X122270000Y-80970000D02*
X122270000Y-68270000D01*
X119450000Y-65450000D02*
X119450000Y-67000000D01*
X119730000Y-68270000D02*
X122270000Y-68270000D01*
X122550000Y-67000000D02*
X122550000Y-65450000D01*
X122550000Y-65450000D02*
X119450000Y-65450000D01*
X166730000Y-89230000D02*
X154030000Y-89230000D01*
X154030000Y-89230000D02*
X154030000Y-91770000D01*
X154030000Y-91770000D02*
X166730000Y-91770000D01*
X169550000Y-88950000D02*
X168000000Y-88950000D01*
X166730000Y-89230000D02*
X166730000Y-91770000D01*
X168000000Y-92050000D02*
X169550000Y-92050000D01*
X169550000Y-92050000D02*
X169550000Y-88950000D01*
X130550000Y-65450000D02*
X129000000Y-65450000D01*
X125190000Y-65730000D02*
X127730000Y-65730000D01*
X127730000Y-65730000D02*
X127730000Y-68270000D01*
X129000000Y-68550000D02*
X130550000Y-68550000D01*
X130550000Y-68550000D02*
X130550000Y-65450000D01*
X127730000Y-68270000D02*
X125190000Y-68270000D01*
X125190000Y-68270000D02*
X125190000Y-65730000D01*
X171825000Y-74400000D02*
X171825000Y-73400000D01*
X173175000Y-73400000D02*
X173175000Y-74400000D01*
X163625000Y-81800000D02*
X163625000Y-80800000D01*
X164975000Y-80800000D02*
X164975000Y-81800000D01*
D10*
X132710000Y-88880000D02*
X132710000Y-64980000D01*
X148610000Y-88880000D02*
X132710000Y-88880000D01*
X148610000Y-64980000D02*
X148610000Y-88880000D01*
X132710000Y-64980000D02*
X148610000Y-64980000D01*
D11*
X128400000Y-73750000D02*
G75*
G03X128400000Y-73750000I-100000J0D01*
G01*
X127750000Y-73500000D02*
X128250000Y-73500000D01*
X127750000Y-70600000D02*
X127750000Y-73500000D01*
X128250000Y-70600000D02*
X127750000Y-70600000D01*
X128250000Y-73500000D02*
X128250000Y-70600000D01*
X128933334Y-78107143D02*
X128885715Y-78154762D01*
X128742858Y-78202381D01*
X128647620Y-78202381D01*
X128504762Y-78154762D01*
X128409524Y-78059524D01*
X128361905Y-77964286D01*
X128314286Y-77773810D01*
X128314286Y-77630952D01*
X128361905Y-77440476D01*
X128409524Y-77345238D01*
X128504762Y-77250000D01*
X128647620Y-77202381D01*
X128742858Y-77202381D01*
X128885715Y-77250000D01*
X128933334Y-77297619D01*
X129885715Y-78202381D02*
X129314286Y-78202381D01*
X129600000Y-78202381D02*
X129600000Y-77202381D01*
X129504762Y-77345238D01*
X129409524Y-77440476D01*
X129314286Y-77488095D01*
X150333334Y-89357143D02*
X150285715Y-89404762D01*
X150142858Y-89452381D01*
X150047620Y-89452381D01*
X149904762Y-89404762D01*
X149809524Y-89309524D01*
X149761905Y-89214286D01*
X149714286Y-89023810D01*
X149714286Y-88880952D01*
X149761905Y-88690476D01*
X149809524Y-88595238D01*
X149904762Y-88500000D01*
X150047620Y-88452381D01*
X150142858Y-88452381D01*
X150285715Y-88500000D01*
X150333334Y-88547619D01*
X150714286Y-88547619D02*
X150761905Y-88500000D01*
X150857143Y-88452381D01*
X151095239Y-88452381D01*
X151190477Y-88500000D01*
X151238096Y-88547619D01*
X151285715Y-88642857D01*
X151285715Y-88738095D01*
X151238096Y-88880952D01*
X150666667Y-89452381D01*
X151285715Y-89452381D01*
X155833334Y-68607143D02*
X155785715Y-68654762D01*
X155642858Y-68702381D01*
X155547620Y-68702381D01*
X155404762Y-68654762D01*
X155309524Y-68559524D01*
X155261905Y-68464286D01*
X155214286Y-68273810D01*
X155214286Y-68130952D01*
X155261905Y-67940476D01*
X155309524Y-67845238D01*
X155404762Y-67750000D01*
X155547620Y-67702381D01*
X155642858Y-67702381D01*
X155785715Y-67750000D01*
X155833334Y-67797619D01*
X156166667Y-67702381D02*
X156785715Y-67702381D01*
X156452381Y-68083333D01*
X156595239Y-68083333D01*
X156690477Y-68130952D01*
X156738096Y-68178571D01*
X156785715Y-68273810D01*
X156785715Y-68511905D01*
X156738096Y-68607143D01*
X156690477Y-68654762D01*
X156595239Y-68702381D01*
X156309524Y-68702381D01*
X156214286Y-68654762D01*
X156166667Y-68607143D01*
X155833334Y-73107143D02*
X155785715Y-73154762D01*
X155642858Y-73202381D01*
X155547620Y-73202381D01*
X155404762Y-73154762D01*
X155309524Y-73059524D01*
X155261905Y-72964286D01*
X155214286Y-72773810D01*
X155214286Y-72630952D01*
X155261905Y-72440476D01*
X155309524Y-72345238D01*
X155404762Y-72250000D01*
X155547620Y-72202381D01*
X155642858Y-72202381D01*
X155785715Y-72250000D01*
X155833334Y-72297619D01*
X156690477Y-72535714D02*
X156690477Y-73202381D01*
X156452381Y-72154762D02*
X156214286Y-72869048D01*
X156833334Y-72869048D01*
X128676119Y-86038167D02*
X128676119Y-85038167D01*
X128914214Y-85038167D01*
X129057072Y-85085786D01*
X129152310Y-85181024D01*
X129199929Y-85276262D01*
X129247548Y-85466738D01*
X129247548Y-85609596D01*
X129199929Y-85800072D01*
X129152310Y-85895310D01*
X129057072Y-85990548D01*
X128914214Y-86038167D01*
X128676119Y-86038167D01*
X130199929Y-86038167D02*
X129628500Y-86038167D01*
X129914214Y-86038167D02*
X129914214Y-85038167D01*
X129818976Y-85181024D01*
X129723738Y-85276262D01*
X129628500Y-85323881D01*
X172333334Y-76352381D02*
X172000000Y-75876190D01*
X171761905Y-76352381D02*
X171761905Y-75352381D01*
X172142858Y-75352381D01*
X172238096Y-75400000D01*
X172285715Y-75447619D01*
X172333334Y-75542857D01*
X172333334Y-75685714D01*
X172285715Y-75780952D01*
X172238096Y-75828571D01*
X172142858Y-75876190D01*
X171761905Y-75876190D01*
X173285715Y-76352381D02*
X172714286Y-76352381D01*
X173000000Y-76352381D02*
X173000000Y-75352381D01*
X172904762Y-75495238D01*
X172809524Y-75590476D01*
X172714286Y-75638095D01*
X162133334Y-81752381D02*
X161800000Y-81276190D01*
X161561905Y-81752381D02*
X161561905Y-80752381D01*
X161942858Y-80752381D01*
X162038096Y-80800000D01*
X162085715Y-80847619D01*
X162133334Y-80942857D01*
X162133334Y-81085714D01*
X162085715Y-81180952D01*
X162038096Y-81228571D01*
X161942858Y-81276190D01*
X161561905Y-81276190D01*
X162514286Y-80847619D02*
X162561905Y-80800000D01*
X162657143Y-80752381D01*
X162895239Y-80752381D01*
X162990477Y-80800000D01*
X163038096Y-80847619D01*
X163085715Y-80942857D01*
X163085715Y-81038095D01*
X163038096Y-81180952D01*
X162466667Y-81752381D01*
X163085715Y-81752381D01*
D15*
X136660000Y-75584762D02*
X137136191Y-77584762D01*
X137517143Y-76156190D01*
X137898096Y-77584762D01*
X138374286Y-75584762D01*
X138850476Y-75584762D02*
X139993333Y-75584762D01*
X139421905Y-77584762D02*
X139421905Y-75584762D01*
X140469524Y-75584762D02*
X141707620Y-75584762D01*
X141040953Y-76346667D01*
X141326667Y-76346667D01*
X141517143Y-76441905D01*
X141612381Y-76537143D01*
X141707620Y-76727619D01*
X141707620Y-77203810D01*
X141612381Y-77394286D01*
X141517143Y-77489524D01*
X141326667Y-77584762D01*
X140755239Y-77584762D01*
X140564762Y-77489524D01*
X140469524Y-77394286D01*
X142469524Y-75775238D02*
X142564762Y-75680000D01*
X142755239Y-75584762D01*
X143231429Y-75584762D01*
X143421905Y-75680000D01*
X143517143Y-75775238D01*
X143612382Y-75965714D01*
X143612382Y-76156190D01*
X143517143Y-76441905D01*
X142374286Y-77584762D01*
X143612382Y-77584762D01*
X144469524Y-77584762D02*
X144469524Y-76251429D01*
X144469524Y-75584762D02*
X144374286Y-75680000D01*
X144469524Y-75775238D01*
X144564763Y-75680000D01*
X144469524Y-75584762D01*
X144469524Y-75775238D01*
D11*
X126138095Y-74002381D02*
X126138095Y-74811905D01*
X126185714Y-74907143D01*
X126233333Y-74954762D01*
X126328571Y-75002381D01*
X126519048Y-75002381D01*
X126614286Y-74954762D01*
X126661905Y-74907143D01*
X126709524Y-74811905D01*
X126709524Y-74002381D01*
X127138095Y-74097619D02*
X127185714Y-74050000D01*
X127280952Y-74002381D01*
X127519048Y-74002381D01*
X127614286Y-74050000D01*
X127661905Y-74097619D01*
X127709524Y-74192857D01*
X127709524Y-74288095D01*
X127661905Y-74430952D01*
X127090476Y-75002381D01*
X127709524Y-75002381D01*
M02*
