M48
INCH,TZ
T1C0.016
T2C0.040
T3C0.067
%
G90
G05
T1
X042559Y-040551
X043839Y-039083
X043839Y-039890
X043976Y-041142
X044193Y-034941
X045157Y-040551
X045472Y-033610
X045472Y-034004
X046850Y-040945
X046890Y-034004
X048031Y-040945
X051634Y-032823
X051634Y-034791
X051634Y-036366
X051683Y-039516
X053051Y-032823
X053051Y-034791
X056890Y-031142
X056890Y-034898
X058543Y-031142
X058543Y-034898
X061378Y-031559
T2
X042913Y-033268
X042913Y-034268
X042913Y-035268
X042913Y-036268
X042913Y-037268
X042913Y-038268
X044110Y-031504
X045110Y-031504
X049213Y-041929
X050213Y-041929
X051213Y-041929
X052213Y-041929
T3
X060000Y-033020
X062756Y-033020
T0
M30
