G04 #@! TF.FileFunction,Copper,L1,Top,Signal*
%FSLAX46Y46*%
G04 Gerber Fmt 4.6, Leading zero omitted, Abs format (unit mm)*
G04 Created by KiCad (PCBNEW 4.0.2+e4-6225~38~ubuntu15.04.1-stable) date Wed 22 Jun 2016 12:26:55 PM PDT*
%MOMM*%
G01*
G04 APERTURE LIST*
%ADD10C,0.100000*%
%ADD11C,0.600000*%
%ADD12R,0.750000X0.800000*%
%ADD13R,2.370000X2.430000*%
%ADD14R,0.797560X0.797560*%
%ADD15R,0.600000X0.500000*%
%ADD16R,2.032000X1.727200*%
%ADD17O,2.032000X1.727200*%
%ADD18R,1.727200X2.032000*%
%ADD19O,1.727200X2.032000*%
%ADD20R,2.200000X2.800000*%
%ADD21R,2.800000X2.800000*%
%ADD22R,0.900000X0.500000*%
%ADD23R,0.500000X0.900000*%
%ADD24O,2.250000X0.600000*%
%ADD25O,2.500000X0.600000*%
%ADD26O,0.600000X2.250000*%
%ADD27O,0.600000X2.500000*%
%ADD28R,1.060000X0.650000*%
%ADD29R,2.032000X2.032000*%
%ADD30O,2.032000X2.032000*%
%ADD31C,0.500000*%
%ADD32C,0.650000*%
%ADD33C,0.250000*%
%ADD34C,0.400000*%
%ADD35C,0.600000*%
%ADD36C,0.254000*%
G04 APERTURE END LIST*
D10*
D11*
X148700000Y-79100000D03*
X144500000Y-79100000D03*
X148700000Y-88640000D03*
X144500000Y-88640000D03*
X131150000Y-83370000D03*
X134750000Y-83370000D03*
X134750000Y-88370000D03*
X131150000Y-88370000D03*
X131150000Y-92370000D03*
X131275000Y-100370000D03*
X122000000Y-104000000D03*
X119000000Y-104000000D03*
X114700000Y-103000000D03*
X111700000Y-104500000D03*
X111350000Y-101320000D03*
X108100000Y-103000000D03*
X112250000Y-88750000D03*
X119100000Y-86370000D03*
X115500000Y-86370000D03*
X115500000Y-85370000D03*
D12*
X108100000Y-100370000D03*
X108100000Y-101870000D03*
X114700000Y-100370000D03*
X114700000Y-101870000D03*
D13*
X143120000Y-81000000D03*
X136880000Y-81000000D03*
X143120000Y-86740000D03*
X136880000Y-86740000D03*
D12*
X145750000Y-87140000D03*
X145750000Y-88640000D03*
X145750000Y-79100000D03*
X145750000Y-80600000D03*
D14*
X113500000Y-93370000D03*
X113500000Y-91871400D03*
X117179300Y-104500000D03*
X115680700Y-104500000D03*
D15*
X146000000Y-81965000D03*
X147100000Y-81965000D03*
X147100000Y-85775000D03*
X146000000Y-85775000D03*
D16*
X109000000Y-84500000D03*
D17*
X109000000Y-87040000D03*
X109000000Y-89580000D03*
X109000000Y-92120000D03*
X109000000Y-94660000D03*
X109000000Y-97200000D03*
D18*
X125000000Y-106500000D03*
D19*
X127540000Y-106500000D03*
X130080000Y-106500000D03*
X132620000Y-106500000D03*
D20*
X160500000Y-80170000D03*
D21*
X151100000Y-80170000D03*
D20*
X158500000Y-87570000D03*
D22*
X113500000Y-90250000D03*
X113500000Y-88750000D03*
D23*
X114250000Y-104500000D03*
X112750000Y-104500000D03*
D22*
X147400000Y-79100000D03*
X147400000Y-80600000D03*
X147400000Y-87140000D03*
X147400000Y-88640000D03*
D24*
X117175000Y-100370000D03*
D25*
X117300000Y-99370000D03*
X117300000Y-98370000D03*
X117300000Y-97370000D03*
X117300000Y-96370000D03*
X117300000Y-95370000D03*
X117300000Y-94370000D03*
X117300000Y-93370000D03*
X117300000Y-92370000D03*
X117300000Y-91370000D03*
X117300000Y-90370000D03*
X117300000Y-89370000D03*
X117300000Y-88370000D03*
X117300000Y-87370000D03*
X117300000Y-86370000D03*
X117300000Y-85370000D03*
X117300000Y-84370000D03*
D24*
X133075000Y-100370000D03*
D25*
X132950000Y-99370000D03*
X132950000Y-98370000D03*
X132950000Y-97370000D03*
X132950000Y-96370000D03*
X132950000Y-95370000D03*
X132950000Y-94370000D03*
X132950000Y-93370000D03*
X132950000Y-92370000D03*
X132950000Y-91370000D03*
X132950000Y-90370000D03*
X132950000Y-89370000D03*
X132950000Y-88370000D03*
X132950000Y-87370000D03*
X132950000Y-86370000D03*
X132950000Y-85370000D03*
X132950000Y-84370000D03*
X132950000Y-83370000D03*
X132950000Y-82370000D03*
X132950000Y-81370000D03*
D26*
X119000000Y-102325000D03*
D27*
X120000000Y-102200000D03*
X121000000Y-102200000D03*
X122000000Y-102200000D03*
X123000000Y-102200000D03*
X124000000Y-102200000D03*
X125000000Y-102200000D03*
X126000000Y-102200000D03*
X127000000Y-102200000D03*
X128000000Y-102200000D03*
X129000000Y-102200000D03*
X130000000Y-102200000D03*
D26*
X131000000Y-102325000D03*
D28*
X110250000Y-100370000D03*
X110250000Y-101320000D03*
X110250000Y-102270000D03*
X112450000Y-102270000D03*
X112450000Y-100370000D03*
D29*
X112040000Y-80020000D03*
D30*
X114580000Y-80020000D03*
D11*
X111350000Y-99270000D03*
X155900000Y-80160000D03*
D31*
X110250000Y-100370000D02*
X111350000Y-99270000D01*
D32*
X108100000Y-100370000D02*
X110250000Y-100370000D01*
D33*
X110250000Y-100370000D02*
X109759998Y-100370000D01*
X109759998Y-100370000D02*
X109150000Y-100979998D01*
X109150000Y-100979998D02*
X109150000Y-101950000D01*
X109150000Y-101950000D02*
X109470000Y-102270000D01*
X109470000Y-102270000D02*
X110250000Y-102270000D01*
D34*
X117175000Y-100370000D02*
X117175000Y-104495700D01*
D33*
X117175000Y-104495700D02*
X117179300Y-104500000D01*
D31*
X117300000Y-84370000D02*
X118580000Y-84370000D01*
X118580000Y-84370000D02*
X120600000Y-86390000D01*
X120600000Y-86390000D02*
X120600000Y-98350000D01*
X120600000Y-98350000D02*
X118580000Y-100370000D01*
X118580000Y-100370000D02*
X117175000Y-100370000D01*
X117175000Y-100370000D02*
X125240000Y-100370000D01*
X117300000Y-82740000D02*
X117300000Y-84370000D01*
X114580000Y-80020000D02*
X117300000Y-82740000D01*
D32*
X112450000Y-100370000D02*
X114700000Y-100370000D01*
D35*
X114700000Y-100370000D02*
X117175000Y-100370000D01*
D31*
X125240000Y-100370000D02*
X131240000Y-94370000D01*
X131240000Y-94370000D02*
X132950000Y-94370000D01*
D34*
X145750000Y-80600000D02*
X143520000Y-80600000D01*
X143520000Y-80600000D02*
X143120000Y-81000000D01*
X146000000Y-81965000D02*
X144085000Y-81965000D01*
X144085000Y-81965000D02*
X143120000Y-81000000D01*
X132950000Y-82370000D02*
X135510000Y-82370000D01*
X135510000Y-82370000D02*
X136880000Y-81000000D01*
X145750000Y-87140000D02*
X143520000Y-87140000D01*
X143520000Y-87140000D02*
X143120000Y-86740000D01*
X146000000Y-85775000D02*
X144085000Y-85775000D01*
X144085000Y-85775000D02*
X143120000Y-86740000D01*
X132950000Y-85370000D02*
X135510000Y-85370000D01*
X135510000Y-85370000D02*
X136880000Y-86740000D01*
X113500000Y-93370000D02*
X117300000Y-93370000D01*
X113500000Y-91871400D02*
X113500000Y-90250000D01*
X115680700Y-104500000D02*
X114250000Y-104500000D01*
X147400000Y-80600000D02*
X147400000Y-81665000D01*
X147400000Y-81665000D02*
X147100000Y-81965000D01*
X147400000Y-80600000D02*
X150670000Y-80600000D01*
X150670000Y-80600000D02*
X151100000Y-80170000D01*
X147400000Y-87140000D02*
X147400000Y-86075000D01*
X147400000Y-86075000D02*
X147100000Y-85775000D01*
X147400000Y-87140000D02*
X158070000Y-87140000D01*
X158070000Y-87140000D02*
X158500000Y-87570000D01*
X117300000Y-98370000D02*
X115250000Y-98370000D01*
X115250000Y-98370000D02*
X109000000Y-92120000D01*
X117300000Y-99370000D02*
X113710000Y-99370000D01*
X113710000Y-99370000D02*
X109000000Y-94660000D01*
X128000000Y-102200000D02*
X128000000Y-103347600D01*
X128000000Y-103347600D02*
X125000000Y-106347600D01*
X125000000Y-106347600D02*
X125000000Y-106500000D01*
X127540000Y-106500000D02*
X127540000Y-105810000D01*
X127540000Y-105810000D02*
X129000000Y-104350000D01*
X129000000Y-104350000D02*
X129000000Y-102200000D01*
X130000000Y-102200000D02*
X130000000Y-106420000D01*
X130000000Y-106420000D02*
X130080000Y-106500000D01*
X132620000Y-103395000D02*
X132620000Y-106500000D01*
X131000000Y-102325000D02*
X131550000Y-102325000D01*
X131550000Y-102325000D02*
X132620000Y-103395000D01*
D31*
X155900000Y-80160000D02*
X160490000Y-80160000D01*
D33*
X160490000Y-80160000D02*
X160500000Y-80170000D01*
D36*
G36*
X110389000Y-79734250D02*
X110547750Y-79893000D01*
X111913000Y-79893000D01*
X111913000Y-79873000D01*
X112167000Y-79873000D01*
X112167000Y-79893000D01*
X112187000Y-79893000D01*
X112187000Y-80147000D01*
X112167000Y-80147000D01*
X112167000Y-81512250D01*
X112325750Y-81671000D01*
X113182309Y-81671000D01*
X113415698Y-81574327D01*
X113594327Y-81395699D01*
X113664621Y-81225994D01*
X113966933Y-81427992D01*
X114550143Y-81544000D01*
X114609857Y-81544000D01*
X114961983Y-81473957D01*
X116542000Y-83053974D01*
X116542000Y-83562000D01*
X116315559Y-83562000D01*
X116006351Y-83623505D01*
X115744217Y-83798658D01*
X115569064Y-84060792D01*
X115507559Y-84370000D01*
X115569064Y-84679208D01*
X115630372Y-84770962D01*
X115599052Y-84798657D01*
X115454937Y-85099653D01*
X115584210Y-85243000D01*
X117173000Y-85243000D01*
X117173000Y-85223000D01*
X117427000Y-85223000D01*
X117427000Y-85243000D01*
X117447000Y-85243000D01*
X117447000Y-85435000D01*
X117427000Y-85435000D01*
X117427000Y-86305000D01*
X118377000Y-86305000D01*
X118557214Y-86243000D01*
X119015790Y-86243000D01*
X119145063Y-86099653D01*
X119059984Y-85921958D01*
X119842000Y-86703974D01*
X119842000Y-98036026D01*
X118945339Y-98932687D01*
X118903452Y-98870000D01*
X119030936Y-98679208D01*
X119092441Y-98370000D01*
X119030936Y-98060792D01*
X118903452Y-97870000D01*
X119030936Y-97679208D01*
X119092441Y-97370000D01*
X119030936Y-97060792D01*
X118903452Y-96870000D01*
X119030936Y-96679208D01*
X119092441Y-96370000D01*
X119030936Y-96060792D01*
X118903452Y-95870000D01*
X119030936Y-95679208D01*
X119092441Y-95370000D01*
X119030936Y-95060792D01*
X118903452Y-94870000D01*
X119030936Y-94679208D01*
X119092441Y-94370000D01*
X119030936Y-94060792D01*
X118903452Y-93870000D01*
X119030936Y-93679208D01*
X119092441Y-93370000D01*
X119030936Y-93060792D01*
X118903452Y-92870000D01*
X119030936Y-92679208D01*
X119092441Y-92370000D01*
X119030936Y-92060792D01*
X118903452Y-91870000D01*
X119030936Y-91679208D01*
X119092441Y-91370000D01*
X119030936Y-91060792D01*
X118903452Y-90870000D01*
X119030936Y-90679208D01*
X119092441Y-90370000D01*
X119030936Y-90060792D01*
X118903452Y-89870000D01*
X119030936Y-89679208D01*
X119092441Y-89370000D01*
X119030936Y-89060792D01*
X118903452Y-88870000D01*
X119030936Y-88679208D01*
X119092441Y-88370000D01*
X119030936Y-88060792D01*
X118969628Y-87969038D01*
X119000948Y-87941343D01*
X119145063Y-87640347D01*
X119015790Y-87497000D01*
X117427000Y-87497000D01*
X117427000Y-87517000D01*
X117173000Y-87517000D01*
X117173000Y-87497000D01*
X115584210Y-87497000D01*
X115454937Y-87640347D01*
X115599052Y-87941343D01*
X115630372Y-87969038D01*
X115569064Y-88060792D01*
X115507559Y-88370000D01*
X115569064Y-88679208D01*
X115696548Y-88870000D01*
X115569064Y-89060792D01*
X115507559Y-89370000D01*
X115569064Y-89679208D01*
X115696548Y-89870000D01*
X115569064Y-90060792D01*
X115507559Y-90370000D01*
X115569064Y-90679208D01*
X115696548Y-90870000D01*
X115569064Y-91060792D01*
X115507559Y-91370000D01*
X115569064Y-91679208D01*
X115696548Y-91870000D01*
X115569064Y-92060792D01*
X115507559Y-92370000D01*
X115565641Y-92662000D01*
X114303470Y-92662000D01*
X114275545Y-92618603D01*
X114375925Y-92471692D01*
X114416732Y-92270180D01*
X114416732Y-91472620D01*
X114381310Y-91284367D01*
X114270052Y-91111467D01*
X114208000Y-91069069D01*
X114208000Y-90937649D01*
X114311153Y-90871272D01*
X114427145Y-90701512D01*
X114467952Y-90500000D01*
X114467952Y-90000000D01*
X114432530Y-89811747D01*
X114321272Y-89638847D01*
X114225313Y-89573281D01*
X114309699Y-89538327D01*
X114488327Y-89359698D01*
X114585000Y-89126309D01*
X114585000Y-89033750D01*
X114426250Y-88875000D01*
X113627000Y-88875000D01*
X113627000Y-88897000D01*
X113373000Y-88897000D01*
X113373000Y-88875000D01*
X112573750Y-88875000D01*
X112415000Y-89033750D01*
X112415000Y-89126309D01*
X112511673Y-89359698D01*
X112690301Y-89538327D01*
X112774886Y-89573363D01*
X112688847Y-89628728D01*
X112572855Y-89798488D01*
X112532048Y-90000000D01*
X112532048Y-90500000D01*
X112567470Y-90688253D01*
X112678728Y-90861153D01*
X112792000Y-90938548D01*
X112792000Y-91067930D01*
X112740067Y-91101348D01*
X112624075Y-91271108D01*
X112583268Y-91472620D01*
X112583268Y-92270180D01*
X112618690Y-92458433D01*
X112724455Y-92622797D01*
X112624075Y-92769708D01*
X112583268Y-92971220D01*
X112583268Y-93768780D01*
X112618690Y-93957033D01*
X112729948Y-94129933D01*
X112899708Y-94245925D01*
X113101220Y-94286732D01*
X113898780Y-94286732D01*
X114087033Y-94251310D01*
X114259933Y-94140052D01*
X114302331Y-94078000D01*
X115565641Y-94078000D01*
X115507559Y-94370000D01*
X115569064Y-94679208D01*
X115696548Y-94870000D01*
X115569064Y-95060792D01*
X115507559Y-95370000D01*
X115569064Y-95679208D01*
X115696548Y-95870000D01*
X115569064Y-96060792D01*
X115507559Y-96370000D01*
X115569064Y-96679208D01*
X115696548Y-96870000D01*
X115569064Y-97060792D01*
X115507559Y-97370000D01*
X115565641Y-97662000D01*
X115543263Y-97662000D01*
X110462176Y-92580912D01*
X110553857Y-92120000D01*
X110449450Y-91595111D01*
X110152125Y-91150132D01*
X109707146Y-90852807D01*
X109693034Y-90850000D01*
X109707146Y-90847193D01*
X110152125Y-90549868D01*
X110449450Y-90104889D01*
X110553857Y-89580000D01*
X110449450Y-89055111D01*
X110152125Y-88610132D01*
X109798266Y-88373691D01*
X112415000Y-88373691D01*
X112415000Y-88466250D01*
X112573750Y-88625000D01*
X113373000Y-88625000D01*
X113373000Y-88023750D01*
X113627000Y-88023750D01*
X113627000Y-88625000D01*
X114426250Y-88625000D01*
X114585000Y-88466250D01*
X114585000Y-88373691D01*
X114488327Y-88140302D01*
X114309699Y-87961673D01*
X114076310Y-87865000D01*
X113785750Y-87865000D01*
X113627000Y-88023750D01*
X113373000Y-88023750D01*
X113214250Y-87865000D01*
X112923690Y-87865000D01*
X112690301Y-87961673D01*
X112511673Y-88140302D01*
X112415000Y-88373691D01*
X109798266Y-88373691D01*
X109707146Y-88312807D01*
X109693034Y-88310000D01*
X109707146Y-88307193D01*
X110152125Y-88009868D01*
X110449450Y-87564889D01*
X110553857Y-87040000D01*
X110474362Y-86640347D01*
X115454937Y-86640347D01*
X115564893Y-86870000D01*
X115454937Y-87099653D01*
X115584210Y-87243000D01*
X116042786Y-87243000D01*
X116223000Y-87305000D01*
X117173000Y-87305000D01*
X117173000Y-86435000D01*
X117427000Y-86435000D01*
X117427000Y-87305000D01*
X118377000Y-87305000D01*
X118557214Y-87243000D01*
X119015790Y-87243000D01*
X119145063Y-87099653D01*
X119035107Y-86870000D01*
X119145063Y-86640347D01*
X119015790Y-86497000D01*
X118557214Y-86497000D01*
X118377000Y-86435000D01*
X117427000Y-86435000D01*
X117173000Y-86435000D01*
X116223000Y-86435000D01*
X116042786Y-86497000D01*
X115584210Y-86497000D01*
X115454937Y-86640347D01*
X110474362Y-86640347D01*
X110449450Y-86515111D01*
X110152125Y-86070132D01*
X110045070Y-85998600D01*
X110142310Y-85998600D01*
X110375699Y-85901927D01*
X110554327Y-85723298D01*
X110588686Y-85640347D01*
X115454937Y-85640347D01*
X115564893Y-85870000D01*
X115454937Y-86099653D01*
X115584210Y-86243000D01*
X116042786Y-86243000D01*
X116223000Y-86305000D01*
X117173000Y-86305000D01*
X117173000Y-85435000D01*
X116223000Y-85435000D01*
X116042786Y-85497000D01*
X115584210Y-85497000D01*
X115454937Y-85640347D01*
X110588686Y-85640347D01*
X110651000Y-85489909D01*
X110651000Y-84785750D01*
X110492250Y-84627000D01*
X109127000Y-84627000D01*
X109127000Y-84647000D01*
X108873000Y-84647000D01*
X108873000Y-84627000D01*
X107507750Y-84627000D01*
X107349000Y-84785750D01*
X107349000Y-85489909D01*
X107445673Y-85723298D01*
X107624301Y-85901927D01*
X107857690Y-85998600D01*
X107954930Y-85998600D01*
X107847875Y-86070132D01*
X107550550Y-86515111D01*
X107446143Y-87040000D01*
X107550550Y-87564889D01*
X107847875Y-88009868D01*
X108292854Y-88307193D01*
X108306966Y-88310000D01*
X108292854Y-88312807D01*
X107847875Y-88610132D01*
X107550550Y-89055111D01*
X107446143Y-89580000D01*
X107550550Y-90104889D01*
X107847875Y-90549868D01*
X108292854Y-90847193D01*
X108306966Y-90850000D01*
X108292854Y-90852807D01*
X107847875Y-91150132D01*
X107550550Y-91595111D01*
X107446143Y-92120000D01*
X107550550Y-92644889D01*
X107847875Y-93089868D01*
X108292854Y-93387193D01*
X108306966Y-93390000D01*
X108292854Y-93392807D01*
X107847875Y-93690132D01*
X107550550Y-94135111D01*
X107446143Y-94660000D01*
X107550550Y-95184889D01*
X107847875Y-95629868D01*
X108292854Y-95927193D01*
X108306966Y-95930000D01*
X108292854Y-95932807D01*
X107847875Y-96230132D01*
X107550550Y-96675111D01*
X107446143Y-97200000D01*
X107550550Y-97724889D01*
X107847875Y-98169868D01*
X108292854Y-98467193D01*
X108817743Y-98571600D01*
X109182257Y-98571600D01*
X109707146Y-98467193D01*
X110152125Y-98169868D01*
X110449450Y-97724889D01*
X110551348Y-97212612D01*
X112865784Y-99527048D01*
X112118154Y-99527048D01*
X112157860Y-99431426D01*
X112158140Y-99109984D01*
X112035389Y-98812903D01*
X111808293Y-98585410D01*
X111511426Y-98462140D01*
X111189984Y-98461860D01*
X110892903Y-98584611D01*
X110665410Y-98811707D01*
X110615058Y-98932968D01*
X110020978Y-99527048D01*
X109720000Y-99527048D01*
X109667109Y-99537000D01*
X108741120Y-99537000D01*
X108676512Y-99492855D01*
X108475000Y-99452048D01*
X107725000Y-99452048D01*
X107536747Y-99487470D01*
X107363847Y-99598728D01*
X107247855Y-99768488D01*
X107207048Y-99970000D01*
X107207048Y-100770000D01*
X107242470Y-100958253D01*
X107280156Y-101016819D01*
X107186673Y-101110302D01*
X107090000Y-101343691D01*
X107090000Y-101584250D01*
X107248750Y-101743000D01*
X107973000Y-101743000D01*
X107973000Y-101723000D01*
X108227000Y-101723000D01*
X108227000Y-101743000D01*
X108247000Y-101743000D01*
X108247000Y-101997000D01*
X108227000Y-101997000D01*
X108227000Y-102746250D01*
X108385750Y-102905000D01*
X108601310Y-102905000D01*
X108834699Y-102808327D01*
X108973914Y-102669111D01*
X109022399Y-102717596D01*
X109022401Y-102717599D01*
X109184084Y-102825632D01*
X109227761Y-102854816D01*
X109291704Y-102867535D01*
X109348728Y-102956153D01*
X109518488Y-103072145D01*
X109720000Y-103112952D01*
X110780000Y-103112952D01*
X110968253Y-103077530D01*
X111141153Y-102966272D01*
X111257145Y-102796512D01*
X111297952Y-102595000D01*
X111297952Y-102025074D01*
X111318327Y-102004699D01*
X111343055Y-101945000D01*
X111402048Y-101945000D01*
X111402048Y-102595000D01*
X111437470Y-102783253D01*
X111548728Y-102956153D01*
X111718488Y-103072145D01*
X111920000Y-103112952D01*
X112980000Y-103112952D01*
X113168253Y-103077530D01*
X113341153Y-102966272D01*
X113457145Y-102796512D01*
X113497952Y-102595000D01*
X113497952Y-102155750D01*
X113690000Y-102155750D01*
X113690000Y-102396309D01*
X113786673Y-102629698D01*
X113965301Y-102808327D01*
X114198690Y-102905000D01*
X114414250Y-102905000D01*
X114573000Y-102746250D01*
X114573000Y-101997000D01*
X114827000Y-101997000D01*
X114827000Y-102746250D01*
X114985750Y-102905000D01*
X115201310Y-102905000D01*
X115434699Y-102808327D01*
X115613327Y-102629698D01*
X115710000Y-102396309D01*
X115710000Y-102155750D01*
X115551250Y-101997000D01*
X114827000Y-101997000D01*
X114573000Y-101997000D01*
X113848750Y-101997000D01*
X113690000Y-102155750D01*
X113497952Y-102155750D01*
X113497952Y-101945000D01*
X113462530Y-101756747D01*
X113351272Y-101583847D01*
X113181512Y-101467855D01*
X112980000Y-101427048D01*
X111920000Y-101427048D01*
X111731747Y-101462470D01*
X111558847Y-101573728D01*
X111442855Y-101743488D01*
X111402048Y-101945000D01*
X111343055Y-101945000D01*
X111415000Y-101771310D01*
X111415000Y-101605750D01*
X111256250Y-101447000D01*
X110878526Y-101447000D01*
X110780000Y-101427048D01*
X110103000Y-101427048D01*
X110103000Y-101212952D01*
X110780000Y-101212952D01*
X110886036Y-101193000D01*
X111256250Y-101193000D01*
X111415000Y-101034250D01*
X111415000Y-100868690D01*
X111318327Y-100635301D01*
X111297952Y-100614926D01*
X111297952Y-100394022D01*
X111402048Y-100289926D01*
X111402048Y-100695000D01*
X111437470Y-100883253D01*
X111548728Y-101056153D01*
X111718488Y-101172145D01*
X111920000Y-101212952D01*
X112980000Y-101212952D01*
X113032891Y-101203000D01*
X113748276Y-101203000D01*
X113690000Y-101343691D01*
X113690000Y-101584250D01*
X113848750Y-101743000D01*
X114573000Y-101743000D01*
X114573000Y-101723000D01*
X114827000Y-101723000D01*
X114827000Y-101743000D01*
X115551250Y-101743000D01*
X115710000Y-101584250D01*
X115710000Y-101343691D01*
X115641368Y-101178000D01*
X116467000Y-101178000D01*
X116467000Y-103699297D01*
X116427903Y-103724455D01*
X116280992Y-103624075D01*
X116079480Y-103583268D01*
X115281920Y-103583268D01*
X115093667Y-103618690D01*
X114920767Y-103729948D01*
X114908898Y-103747319D01*
X114871272Y-103688847D01*
X114701512Y-103572855D01*
X114500000Y-103532048D01*
X114000000Y-103532048D01*
X113811747Y-103567470D01*
X113638847Y-103678728D01*
X113573281Y-103774687D01*
X113538327Y-103690301D01*
X113359698Y-103511673D01*
X113126309Y-103415000D01*
X113033750Y-103415000D01*
X112875000Y-103573750D01*
X112875000Y-104373000D01*
X112897000Y-104373000D01*
X112897000Y-104627000D01*
X112875000Y-104627000D01*
X112875000Y-105426250D01*
X113033750Y-105585000D01*
X113126309Y-105585000D01*
X113359698Y-105488327D01*
X113538327Y-105309699D01*
X113573363Y-105225114D01*
X113628728Y-105311153D01*
X113798488Y-105427145D01*
X114000000Y-105467952D01*
X114500000Y-105467952D01*
X114688253Y-105432530D01*
X114861153Y-105321272D01*
X114906970Y-105254217D01*
X114910648Y-105259933D01*
X115080408Y-105375925D01*
X115281920Y-105416732D01*
X116079480Y-105416732D01*
X116267733Y-105381310D01*
X116432097Y-105275545D01*
X116579008Y-105375925D01*
X116780520Y-105416732D01*
X117578080Y-105416732D01*
X117766333Y-105381310D01*
X117939233Y-105270052D01*
X118055225Y-105100292D01*
X118096032Y-104898780D01*
X118096032Y-104101220D01*
X118060610Y-103912967D01*
X117949352Y-103740067D01*
X117883000Y-103694731D01*
X117883000Y-102452000D01*
X118065000Y-102452000D01*
X118065000Y-103277000D01*
X118184773Y-103625142D01*
X118428657Y-103900948D01*
X118729653Y-104045063D01*
X118873000Y-103915790D01*
X118873000Y-102452000D01*
X118065000Y-102452000D01*
X117883000Y-102452000D01*
X117883000Y-101178000D01*
X118031992Y-101178000D01*
X118139440Y-101156627D01*
X118065000Y-101373000D01*
X118065000Y-102198000D01*
X118873000Y-102198000D01*
X118873000Y-102178000D01*
X119127000Y-102178000D01*
X119127000Y-102198000D01*
X119147000Y-102198000D01*
X119147000Y-102452000D01*
X119127000Y-102452000D01*
X119127000Y-103915790D01*
X119270347Y-104045063D01*
X119571343Y-103900948D01*
X119599038Y-103869628D01*
X119690792Y-103930936D01*
X120000000Y-103992441D01*
X120309208Y-103930936D01*
X120500000Y-103803452D01*
X120690792Y-103930936D01*
X121000000Y-103992441D01*
X121309208Y-103930936D01*
X121400962Y-103869628D01*
X121428657Y-103900948D01*
X121729653Y-104045063D01*
X121873000Y-103915790D01*
X121873000Y-102327000D01*
X121853000Y-102327000D01*
X121853000Y-102073000D01*
X121873000Y-102073000D01*
X121873000Y-102053000D01*
X122127000Y-102053000D01*
X122127000Y-102073000D01*
X122147000Y-102073000D01*
X122147000Y-102327000D01*
X122127000Y-102327000D01*
X122127000Y-103915790D01*
X122270347Y-104045063D01*
X122571343Y-103900948D01*
X122599038Y-103869628D01*
X122690792Y-103930936D01*
X123000000Y-103992441D01*
X123309208Y-103930936D01*
X123500000Y-103803452D01*
X123690792Y-103930936D01*
X124000000Y-103992441D01*
X124309208Y-103930936D01*
X124500000Y-103803452D01*
X124690792Y-103930936D01*
X125000000Y-103992441D01*
X125309208Y-103930936D01*
X125500000Y-103803452D01*
X125690792Y-103930936D01*
X126000000Y-103992441D01*
X126309208Y-103930936D01*
X126500000Y-103803452D01*
X126525707Y-103820629D01*
X125380288Y-104966048D01*
X124136400Y-104966048D01*
X123948147Y-105001470D01*
X123775247Y-105112728D01*
X123659255Y-105282488D01*
X123618448Y-105484000D01*
X123618448Y-107516000D01*
X123653870Y-107704253D01*
X123765128Y-107877153D01*
X123934888Y-107993145D01*
X124136400Y-108033952D01*
X125863600Y-108033952D01*
X126051853Y-107998530D01*
X126224753Y-107887272D01*
X126340745Y-107717512D01*
X126381552Y-107516000D01*
X126381552Y-107369895D01*
X126570132Y-107652125D01*
X127015111Y-107949450D01*
X127540000Y-108053857D01*
X128064889Y-107949450D01*
X128509868Y-107652125D01*
X128807193Y-107207146D01*
X128810000Y-107193034D01*
X128812807Y-107207146D01*
X129110132Y-107652125D01*
X129555111Y-107949450D01*
X130080000Y-108053857D01*
X130604889Y-107949450D01*
X131049868Y-107652125D01*
X131347193Y-107207146D01*
X131350000Y-107193034D01*
X131352807Y-107207146D01*
X131650132Y-107652125D01*
X132095111Y-107949450D01*
X132620000Y-108053857D01*
X133144889Y-107949450D01*
X133589868Y-107652125D01*
X133887193Y-107207146D01*
X133991600Y-106682257D01*
X133991600Y-106317743D01*
X133887193Y-105792854D01*
X133589868Y-105347875D01*
X133328000Y-105172901D01*
X133328000Y-103395005D01*
X133328001Y-103395000D01*
X133274107Y-103124060D01*
X133242435Y-103076660D01*
X133120632Y-102894368D01*
X133120629Y-102894366D01*
X132050632Y-101824368D01*
X131820940Y-101670893D01*
X131808000Y-101668319D01*
X131808000Y-101468008D01*
X131746820Y-101160434D01*
X131774858Y-101185227D01*
X132123000Y-101305000D01*
X132948000Y-101305000D01*
X132948000Y-100497000D01*
X131484210Y-100497000D01*
X131354937Y-100640347D01*
X131433592Y-100804624D01*
X131309208Y-100721513D01*
X131000000Y-100660008D01*
X130690792Y-100721513D01*
X130643918Y-100752834D01*
X130571342Y-100644217D01*
X130309208Y-100469064D01*
X130000000Y-100407559D01*
X129690792Y-100469064D01*
X129500000Y-100596548D01*
X129309208Y-100469064D01*
X129000000Y-100407559D01*
X128690792Y-100469064D01*
X128500000Y-100596548D01*
X128309208Y-100469064D01*
X128000000Y-100407559D01*
X127690792Y-100469064D01*
X127500000Y-100596548D01*
X127309208Y-100469064D01*
X127000000Y-100407559D01*
X126690792Y-100469064D01*
X126500000Y-100596548D01*
X126309208Y-100469064D01*
X126228887Y-100453087D01*
X131183178Y-95498796D01*
X131219064Y-95679208D01*
X131346548Y-95870000D01*
X131219064Y-96060792D01*
X131157559Y-96370000D01*
X131219064Y-96679208D01*
X131346548Y-96870000D01*
X131219064Y-97060792D01*
X131157559Y-97370000D01*
X131219064Y-97679208D01*
X131346548Y-97870000D01*
X131219064Y-98060792D01*
X131157559Y-98370000D01*
X131219064Y-98679208D01*
X131346548Y-98870000D01*
X131219064Y-99060792D01*
X131157559Y-99370000D01*
X131219064Y-99679208D01*
X131394217Y-99941342D01*
X131421884Y-99959829D01*
X131354937Y-100099653D01*
X131484210Y-100243000D01*
X132948000Y-100243000D01*
X132948000Y-100223000D01*
X133202000Y-100223000D01*
X133202000Y-100243000D01*
X133222000Y-100243000D01*
X133222000Y-100497000D01*
X133202000Y-100497000D01*
X133202000Y-101305000D01*
X134027000Y-101305000D01*
X134375142Y-101185227D01*
X134417000Y-101148214D01*
X134417000Y-107192578D01*
X134336645Y-107596550D01*
X134140340Y-107890340D01*
X133846550Y-108086645D01*
X133442578Y-108167000D01*
X108057422Y-108167000D01*
X107653450Y-108086645D01*
X107359660Y-107890340D01*
X107163355Y-107596550D01*
X107083000Y-107192578D01*
X107083000Y-104785750D01*
X111865000Y-104785750D01*
X111865000Y-105076310D01*
X111961673Y-105309699D01*
X112140302Y-105488327D01*
X112373691Y-105585000D01*
X112466250Y-105585000D01*
X112625000Y-105426250D01*
X112625000Y-104627000D01*
X112023750Y-104627000D01*
X111865000Y-104785750D01*
X107083000Y-104785750D01*
X107083000Y-103923690D01*
X111865000Y-103923690D01*
X111865000Y-104214250D01*
X112023750Y-104373000D01*
X112625000Y-104373000D01*
X112625000Y-103573750D01*
X112466250Y-103415000D01*
X112373691Y-103415000D01*
X112140302Y-103511673D01*
X111961673Y-103690301D01*
X111865000Y-103923690D01*
X107083000Y-103923690D01*
X107083000Y-102155750D01*
X107090000Y-102155750D01*
X107090000Y-102396309D01*
X107186673Y-102629698D01*
X107365301Y-102808327D01*
X107598690Y-102905000D01*
X107814250Y-102905000D01*
X107973000Y-102746250D01*
X107973000Y-101997000D01*
X107248750Y-101997000D01*
X107090000Y-102155750D01*
X107083000Y-102155750D01*
X107083000Y-83510091D01*
X107349000Y-83510091D01*
X107349000Y-84214250D01*
X107507750Y-84373000D01*
X108873000Y-84373000D01*
X108873000Y-83160150D01*
X109127000Y-83160150D01*
X109127000Y-84373000D01*
X110492250Y-84373000D01*
X110651000Y-84214250D01*
X110651000Y-83510091D01*
X110554327Y-83276702D01*
X110375699Y-83098073D01*
X110142310Y-83001400D01*
X109285750Y-83001400D01*
X109127000Y-83160150D01*
X108873000Y-83160150D01*
X108714250Y-83001400D01*
X107857690Y-83001400D01*
X107624301Y-83098073D01*
X107445673Y-83276702D01*
X107349000Y-83510091D01*
X107083000Y-83510091D01*
X107083000Y-80305750D01*
X110389000Y-80305750D01*
X110389000Y-81162310D01*
X110485673Y-81395699D01*
X110664302Y-81574327D01*
X110897691Y-81671000D01*
X111754250Y-81671000D01*
X111913000Y-81512250D01*
X111913000Y-80147000D01*
X110547750Y-80147000D01*
X110389000Y-80305750D01*
X107083000Y-80305750D01*
X107083000Y-79857422D01*
X107163355Y-79453450D01*
X107359660Y-79159660D01*
X107653450Y-78963355D01*
X108057422Y-78883000D01*
X110389000Y-78883000D01*
X110389000Y-79734250D01*
X110389000Y-79734250D01*
G37*
X110389000Y-79734250D02*
X110547750Y-79893000D01*
X111913000Y-79893000D01*
X111913000Y-79873000D01*
X112167000Y-79873000D01*
X112167000Y-79893000D01*
X112187000Y-79893000D01*
X112187000Y-80147000D01*
X112167000Y-80147000D01*
X112167000Y-81512250D01*
X112325750Y-81671000D01*
X113182309Y-81671000D01*
X113415698Y-81574327D01*
X113594327Y-81395699D01*
X113664621Y-81225994D01*
X113966933Y-81427992D01*
X114550143Y-81544000D01*
X114609857Y-81544000D01*
X114961983Y-81473957D01*
X116542000Y-83053974D01*
X116542000Y-83562000D01*
X116315559Y-83562000D01*
X116006351Y-83623505D01*
X115744217Y-83798658D01*
X115569064Y-84060792D01*
X115507559Y-84370000D01*
X115569064Y-84679208D01*
X115630372Y-84770962D01*
X115599052Y-84798657D01*
X115454937Y-85099653D01*
X115584210Y-85243000D01*
X117173000Y-85243000D01*
X117173000Y-85223000D01*
X117427000Y-85223000D01*
X117427000Y-85243000D01*
X117447000Y-85243000D01*
X117447000Y-85435000D01*
X117427000Y-85435000D01*
X117427000Y-86305000D01*
X118377000Y-86305000D01*
X118557214Y-86243000D01*
X119015790Y-86243000D01*
X119145063Y-86099653D01*
X119059984Y-85921958D01*
X119842000Y-86703974D01*
X119842000Y-98036026D01*
X118945339Y-98932687D01*
X118903452Y-98870000D01*
X119030936Y-98679208D01*
X119092441Y-98370000D01*
X119030936Y-98060792D01*
X118903452Y-97870000D01*
X119030936Y-97679208D01*
X119092441Y-97370000D01*
X119030936Y-97060792D01*
X118903452Y-96870000D01*
X119030936Y-96679208D01*
X119092441Y-96370000D01*
X119030936Y-96060792D01*
X118903452Y-95870000D01*
X119030936Y-95679208D01*
X119092441Y-95370000D01*
X119030936Y-95060792D01*
X118903452Y-94870000D01*
X119030936Y-94679208D01*
X119092441Y-94370000D01*
X119030936Y-94060792D01*
X118903452Y-93870000D01*
X119030936Y-93679208D01*
X119092441Y-93370000D01*
X119030936Y-93060792D01*
X118903452Y-92870000D01*
X119030936Y-92679208D01*
X119092441Y-92370000D01*
X119030936Y-92060792D01*
X118903452Y-91870000D01*
X119030936Y-91679208D01*
X119092441Y-91370000D01*
X119030936Y-91060792D01*
X118903452Y-90870000D01*
X119030936Y-90679208D01*
X119092441Y-90370000D01*
X119030936Y-90060792D01*
X118903452Y-89870000D01*
X119030936Y-89679208D01*
X119092441Y-89370000D01*
X119030936Y-89060792D01*
X118903452Y-88870000D01*
X119030936Y-88679208D01*
X119092441Y-88370000D01*
X119030936Y-88060792D01*
X118969628Y-87969038D01*
X119000948Y-87941343D01*
X119145063Y-87640347D01*
X119015790Y-87497000D01*
X117427000Y-87497000D01*
X117427000Y-87517000D01*
X117173000Y-87517000D01*
X117173000Y-87497000D01*
X115584210Y-87497000D01*
X115454937Y-87640347D01*
X115599052Y-87941343D01*
X115630372Y-87969038D01*
X115569064Y-88060792D01*
X115507559Y-88370000D01*
X115569064Y-88679208D01*
X115696548Y-88870000D01*
X115569064Y-89060792D01*
X115507559Y-89370000D01*
X115569064Y-89679208D01*
X115696548Y-89870000D01*
X115569064Y-90060792D01*
X115507559Y-90370000D01*
X115569064Y-90679208D01*
X115696548Y-90870000D01*
X115569064Y-91060792D01*
X115507559Y-91370000D01*
X115569064Y-91679208D01*
X115696548Y-91870000D01*
X115569064Y-92060792D01*
X115507559Y-92370000D01*
X115565641Y-92662000D01*
X114303470Y-92662000D01*
X114275545Y-92618603D01*
X114375925Y-92471692D01*
X114416732Y-92270180D01*
X114416732Y-91472620D01*
X114381310Y-91284367D01*
X114270052Y-91111467D01*
X114208000Y-91069069D01*
X114208000Y-90937649D01*
X114311153Y-90871272D01*
X114427145Y-90701512D01*
X114467952Y-90500000D01*
X114467952Y-90000000D01*
X114432530Y-89811747D01*
X114321272Y-89638847D01*
X114225313Y-89573281D01*
X114309699Y-89538327D01*
X114488327Y-89359698D01*
X114585000Y-89126309D01*
X114585000Y-89033750D01*
X114426250Y-88875000D01*
X113627000Y-88875000D01*
X113627000Y-88897000D01*
X113373000Y-88897000D01*
X113373000Y-88875000D01*
X112573750Y-88875000D01*
X112415000Y-89033750D01*
X112415000Y-89126309D01*
X112511673Y-89359698D01*
X112690301Y-89538327D01*
X112774886Y-89573363D01*
X112688847Y-89628728D01*
X112572855Y-89798488D01*
X112532048Y-90000000D01*
X112532048Y-90500000D01*
X112567470Y-90688253D01*
X112678728Y-90861153D01*
X112792000Y-90938548D01*
X112792000Y-91067930D01*
X112740067Y-91101348D01*
X112624075Y-91271108D01*
X112583268Y-91472620D01*
X112583268Y-92270180D01*
X112618690Y-92458433D01*
X112724455Y-92622797D01*
X112624075Y-92769708D01*
X112583268Y-92971220D01*
X112583268Y-93768780D01*
X112618690Y-93957033D01*
X112729948Y-94129933D01*
X112899708Y-94245925D01*
X113101220Y-94286732D01*
X113898780Y-94286732D01*
X114087033Y-94251310D01*
X114259933Y-94140052D01*
X114302331Y-94078000D01*
X115565641Y-94078000D01*
X115507559Y-94370000D01*
X115569064Y-94679208D01*
X115696548Y-94870000D01*
X115569064Y-95060792D01*
X115507559Y-95370000D01*
X115569064Y-95679208D01*
X115696548Y-95870000D01*
X115569064Y-96060792D01*
X115507559Y-96370000D01*
X115569064Y-96679208D01*
X115696548Y-96870000D01*
X115569064Y-97060792D01*
X115507559Y-97370000D01*
X115565641Y-97662000D01*
X115543263Y-97662000D01*
X110462176Y-92580912D01*
X110553857Y-92120000D01*
X110449450Y-91595111D01*
X110152125Y-91150132D01*
X109707146Y-90852807D01*
X109693034Y-90850000D01*
X109707146Y-90847193D01*
X110152125Y-90549868D01*
X110449450Y-90104889D01*
X110553857Y-89580000D01*
X110449450Y-89055111D01*
X110152125Y-88610132D01*
X109798266Y-88373691D01*
X112415000Y-88373691D01*
X112415000Y-88466250D01*
X112573750Y-88625000D01*
X113373000Y-88625000D01*
X113373000Y-88023750D01*
X113627000Y-88023750D01*
X113627000Y-88625000D01*
X114426250Y-88625000D01*
X114585000Y-88466250D01*
X114585000Y-88373691D01*
X114488327Y-88140302D01*
X114309699Y-87961673D01*
X114076310Y-87865000D01*
X113785750Y-87865000D01*
X113627000Y-88023750D01*
X113373000Y-88023750D01*
X113214250Y-87865000D01*
X112923690Y-87865000D01*
X112690301Y-87961673D01*
X112511673Y-88140302D01*
X112415000Y-88373691D01*
X109798266Y-88373691D01*
X109707146Y-88312807D01*
X109693034Y-88310000D01*
X109707146Y-88307193D01*
X110152125Y-88009868D01*
X110449450Y-87564889D01*
X110553857Y-87040000D01*
X110474362Y-86640347D01*
X115454937Y-86640347D01*
X115564893Y-86870000D01*
X115454937Y-87099653D01*
X115584210Y-87243000D01*
X116042786Y-87243000D01*
X116223000Y-87305000D01*
X117173000Y-87305000D01*
X117173000Y-86435000D01*
X117427000Y-86435000D01*
X117427000Y-87305000D01*
X118377000Y-87305000D01*
X118557214Y-87243000D01*
X119015790Y-87243000D01*
X119145063Y-87099653D01*
X119035107Y-86870000D01*
X119145063Y-86640347D01*
X119015790Y-86497000D01*
X118557214Y-86497000D01*
X118377000Y-86435000D01*
X117427000Y-86435000D01*
X117173000Y-86435000D01*
X116223000Y-86435000D01*
X116042786Y-86497000D01*
X115584210Y-86497000D01*
X115454937Y-86640347D01*
X110474362Y-86640347D01*
X110449450Y-86515111D01*
X110152125Y-86070132D01*
X110045070Y-85998600D01*
X110142310Y-85998600D01*
X110375699Y-85901927D01*
X110554327Y-85723298D01*
X110588686Y-85640347D01*
X115454937Y-85640347D01*
X115564893Y-85870000D01*
X115454937Y-86099653D01*
X115584210Y-86243000D01*
X116042786Y-86243000D01*
X116223000Y-86305000D01*
X117173000Y-86305000D01*
X117173000Y-85435000D01*
X116223000Y-85435000D01*
X116042786Y-85497000D01*
X115584210Y-85497000D01*
X115454937Y-85640347D01*
X110588686Y-85640347D01*
X110651000Y-85489909D01*
X110651000Y-84785750D01*
X110492250Y-84627000D01*
X109127000Y-84627000D01*
X109127000Y-84647000D01*
X108873000Y-84647000D01*
X108873000Y-84627000D01*
X107507750Y-84627000D01*
X107349000Y-84785750D01*
X107349000Y-85489909D01*
X107445673Y-85723298D01*
X107624301Y-85901927D01*
X107857690Y-85998600D01*
X107954930Y-85998600D01*
X107847875Y-86070132D01*
X107550550Y-86515111D01*
X107446143Y-87040000D01*
X107550550Y-87564889D01*
X107847875Y-88009868D01*
X108292854Y-88307193D01*
X108306966Y-88310000D01*
X108292854Y-88312807D01*
X107847875Y-88610132D01*
X107550550Y-89055111D01*
X107446143Y-89580000D01*
X107550550Y-90104889D01*
X107847875Y-90549868D01*
X108292854Y-90847193D01*
X108306966Y-90850000D01*
X108292854Y-90852807D01*
X107847875Y-91150132D01*
X107550550Y-91595111D01*
X107446143Y-92120000D01*
X107550550Y-92644889D01*
X107847875Y-93089868D01*
X108292854Y-93387193D01*
X108306966Y-93390000D01*
X108292854Y-93392807D01*
X107847875Y-93690132D01*
X107550550Y-94135111D01*
X107446143Y-94660000D01*
X107550550Y-95184889D01*
X107847875Y-95629868D01*
X108292854Y-95927193D01*
X108306966Y-95930000D01*
X108292854Y-95932807D01*
X107847875Y-96230132D01*
X107550550Y-96675111D01*
X107446143Y-97200000D01*
X107550550Y-97724889D01*
X107847875Y-98169868D01*
X108292854Y-98467193D01*
X108817743Y-98571600D01*
X109182257Y-98571600D01*
X109707146Y-98467193D01*
X110152125Y-98169868D01*
X110449450Y-97724889D01*
X110551348Y-97212612D01*
X112865784Y-99527048D01*
X112118154Y-99527048D01*
X112157860Y-99431426D01*
X112158140Y-99109984D01*
X112035389Y-98812903D01*
X111808293Y-98585410D01*
X111511426Y-98462140D01*
X111189984Y-98461860D01*
X110892903Y-98584611D01*
X110665410Y-98811707D01*
X110615058Y-98932968D01*
X110020978Y-99527048D01*
X109720000Y-99527048D01*
X109667109Y-99537000D01*
X108741120Y-99537000D01*
X108676512Y-99492855D01*
X108475000Y-99452048D01*
X107725000Y-99452048D01*
X107536747Y-99487470D01*
X107363847Y-99598728D01*
X107247855Y-99768488D01*
X107207048Y-99970000D01*
X107207048Y-100770000D01*
X107242470Y-100958253D01*
X107280156Y-101016819D01*
X107186673Y-101110302D01*
X107090000Y-101343691D01*
X107090000Y-101584250D01*
X107248750Y-101743000D01*
X107973000Y-101743000D01*
X107973000Y-101723000D01*
X108227000Y-101723000D01*
X108227000Y-101743000D01*
X108247000Y-101743000D01*
X108247000Y-101997000D01*
X108227000Y-101997000D01*
X108227000Y-102746250D01*
X108385750Y-102905000D01*
X108601310Y-102905000D01*
X108834699Y-102808327D01*
X108973914Y-102669111D01*
X109022399Y-102717596D01*
X109022401Y-102717599D01*
X109184084Y-102825632D01*
X109227761Y-102854816D01*
X109291704Y-102867535D01*
X109348728Y-102956153D01*
X109518488Y-103072145D01*
X109720000Y-103112952D01*
X110780000Y-103112952D01*
X110968253Y-103077530D01*
X111141153Y-102966272D01*
X111257145Y-102796512D01*
X111297952Y-102595000D01*
X111297952Y-102025074D01*
X111318327Y-102004699D01*
X111343055Y-101945000D01*
X111402048Y-101945000D01*
X111402048Y-102595000D01*
X111437470Y-102783253D01*
X111548728Y-102956153D01*
X111718488Y-103072145D01*
X111920000Y-103112952D01*
X112980000Y-103112952D01*
X113168253Y-103077530D01*
X113341153Y-102966272D01*
X113457145Y-102796512D01*
X113497952Y-102595000D01*
X113497952Y-102155750D01*
X113690000Y-102155750D01*
X113690000Y-102396309D01*
X113786673Y-102629698D01*
X113965301Y-102808327D01*
X114198690Y-102905000D01*
X114414250Y-102905000D01*
X114573000Y-102746250D01*
X114573000Y-101997000D01*
X114827000Y-101997000D01*
X114827000Y-102746250D01*
X114985750Y-102905000D01*
X115201310Y-102905000D01*
X115434699Y-102808327D01*
X115613327Y-102629698D01*
X115710000Y-102396309D01*
X115710000Y-102155750D01*
X115551250Y-101997000D01*
X114827000Y-101997000D01*
X114573000Y-101997000D01*
X113848750Y-101997000D01*
X113690000Y-102155750D01*
X113497952Y-102155750D01*
X113497952Y-101945000D01*
X113462530Y-101756747D01*
X113351272Y-101583847D01*
X113181512Y-101467855D01*
X112980000Y-101427048D01*
X111920000Y-101427048D01*
X111731747Y-101462470D01*
X111558847Y-101573728D01*
X111442855Y-101743488D01*
X111402048Y-101945000D01*
X111343055Y-101945000D01*
X111415000Y-101771310D01*
X111415000Y-101605750D01*
X111256250Y-101447000D01*
X110878526Y-101447000D01*
X110780000Y-101427048D01*
X110103000Y-101427048D01*
X110103000Y-101212952D01*
X110780000Y-101212952D01*
X110886036Y-101193000D01*
X111256250Y-101193000D01*
X111415000Y-101034250D01*
X111415000Y-100868690D01*
X111318327Y-100635301D01*
X111297952Y-100614926D01*
X111297952Y-100394022D01*
X111402048Y-100289926D01*
X111402048Y-100695000D01*
X111437470Y-100883253D01*
X111548728Y-101056153D01*
X111718488Y-101172145D01*
X111920000Y-101212952D01*
X112980000Y-101212952D01*
X113032891Y-101203000D01*
X113748276Y-101203000D01*
X113690000Y-101343691D01*
X113690000Y-101584250D01*
X113848750Y-101743000D01*
X114573000Y-101743000D01*
X114573000Y-101723000D01*
X114827000Y-101723000D01*
X114827000Y-101743000D01*
X115551250Y-101743000D01*
X115710000Y-101584250D01*
X115710000Y-101343691D01*
X115641368Y-101178000D01*
X116467000Y-101178000D01*
X116467000Y-103699297D01*
X116427903Y-103724455D01*
X116280992Y-103624075D01*
X116079480Y-103583268D01*
X115281920Y-103583268D01*
X115093667Y-103618690D01*
X114920767Y-103729948D01*
X114908898Y-103747319D01*
X114871272Y-103688847D01*
X114701512Y-103572855D01*
X114500000Y-103532048D01*
X114000000Y-103532048D01*
X113811747Y-103567470D01*
X113638847Y-103678728D01*
X113573281Y-103774687D01*
X113538327Y-103690301D01*
X113359698Y-103511673D01*
X113126309Y-103415000D01*
X113033750Y-103415000D01*
X112875000Y-103573750D01*
X112875000Y-104373000D01*
X112897000Y-104373000D01*
X112897000Y-104627000D01*
X112875000Y-104627000D01*
X112875000Y-105426250D01*
X113033750Y-105585000D01*
X113126309Y-105585000D01*
X113359698Y-105488327D01*
X113538327Y-105309699D01*
X113573363Y-105225114D01*
X113628728Y-105311153D01*
X113798488Y-105427145D01*
X114000000Y-105467952D01*
X114500000Y-105467952D01*
X114688253Y-105432530D01*
X114861153Y-105321272D01*
X114906970Y-105254217D01*
X114910648Y-105259933D01*
X115080408Y-105375925D01*
X115281920Y-105416732D01*
X116079480Y-105416732D01*
X116267733Y-105381310D01*
X116432097Y-105275545D01*
X116579008Y-105375925D01*
X116780520Y-105416732D01*
X117578080Y-105416732D01*
X117766333Y-105381310D01*
X117939233Y-105270052D01*
X118055225Y-105100292D01*
X118096032Y-104898780D01*
X118096032Y-104101220D01*
X118060610Y-103912967D01*
X117949352Y-103740067D01*
X117883000Y-103694731D01*
X117883000Y-102452000D01*
X118065000Y-102452000D01*
X118065000Y-103277000D01*
X118184773Y-103625142D01*
X118428657Y-103900948D01*
X118729653Y-104045063D01*
X118873000Y-103915790D01*
X118873000Y-102452000D01*
X118065000Y-102452000D01*
X117883000Y-102452000D01*
X117883000Y-101178000D01*
X118031992Y-101178000D01*
X118139440Y-101156627D01*
X118065000Y-101373000D01*
X118065000Y-102198000D01*
X118873000Y-102198000D01*
X118873000Y-102178000D01*
X119127000Y-102178000D01*
X119127000Y-102198000D01*
X119147000Y-102198000D01*
X119147000Y-102452000D01*
X119127000Y-102452000D01*
X119127000Y-103915790D01*
X119270347Y-104045063D01*
X119571343Y-103900948D01*
X119599038Y-103869628D01*
X119690792Y-103930936D01*
X120000000Y-103992441D01*
X120309208Y-103930936D01*
X120500000Y-103803452D01*
X120690792Y-103930936D01*
X121000000Y-103992441D01*
X121309208Y-103930936D01*
X121400962Y-103869628D01*
X121428657Y-103900948D01*
X121729653Y-104045063D01*
X121873000Y-103915790D01*
X121873000Y-102327000D01*
X121853000Y-102327000D01*
X121853000Y-102073000D01*
X121873000Y-102073000D01*
X121873000Y-102053000D01*
X122127000Y-102053000D01*
X122127000Y-102073000D01*
X122147000Y-102073000D01*
X122147000Y-102327000D01*
X122127000Y-102327000D01*
X122127000Y-103915790D01*
X122270347Y-104045063D01*
X122571343Y-103900948D01*
X122599038Y-103869628D01*
X122690792Y-103930936D01*
X123000000Y-103992441D01*
X123309208Y-103930936D01*
X123500000Y-103803452D01*
X123690792Y-103930936D01*
X124000000Y-103992441D01*
X124309208Y-103930936D01*
X124500000Y-103803452D01*
X124690792Y-103930936D01*
X125000000Y-103992441D01*
X125309208Y-103930936D01*
X125500000Y-103803452D01*
X125690792Y-103930936D01*
X126000000Y-103992441D01*
X126309208Y-103930936D01*
X126500000Y-103803452D01*
X126525707Y-103820629D01*
X125380288Y-104966048D01*
X124136400Y-104966048D01*
X123948147Y-105001470D01*
X123775247Y-105112728D01*
X123659255Y-105282488D01*
X123618448Y-105484000D01*
X123618448Y-107516000D01*
X123653870Y-107704253D01*
X123765128Y-107877153D01*
X123934888Y-107993145D01*
X124136400Y-108033952D01*
X125863600Y-108033952D01*
X126051853Y-107998530D01*
X126224753Y-107887272D01*
X126340745Y-107717512D01*
X126381552Y-107516000D01*
X126381552Y-107369895D01*
X126570132Y-107652125D01*
X127015111Y-107949450D01*
X127540000Y-108053857D01*
X128064889Y-107949450D01*
X128509868Y-107652125D01*
X128807193Y-107207146D01*
X128810000Y-107193034D01*
X128812807Y-107207146D01*
X129110132Y-107652125D01*
X129555111Y-107949450D01*
X130080000Y-108053857D01*
X130604889Y-107949450D01*
X131049868Y-107652125D01*
X131347193Y-107207146D01*
X131350000Y-107193034D01*
X131352807Y-107207146D01*
X131650132Y-107652125D01*
X132095111Y-107949450D01*
X132620000Y-108053857D01*
X133144889Y-107949450D01*
X133589868Y-107652125D01*
X133887193Y-107207146D01*
X133991600Y-106682257D01*
X133991600Y-106317743D01*
X133887193Y-105792854D01*
X133589868Y-105347875D01*
X133328000Y-105172901D01*
X133328000Y-103395005D01*
X133328001Y-103395000D01*
X133274107Y-103124060D01*
X133242435Y-103076660D01*
X133120632Y-102894368D01*
X133120629Y-102894366D01*
X132050632Y-101824368D01*
X131820940Y-101670893D01*
X131808000Y-101668319D01*
X131808000Y-101468008D01*
X131746820Y-101160434D01*
X131774858Y-101185227D01*
X132123000Y-101305000D01*
X132948000Y-101305000D01*
X132948000Y-100497000D01*
X131484210Y-100497000D01*
X131354937Y-100640347D01*
X131433592Y-100804624D01*
X131309208Y-100721513D01*
X131000000Y-100660008D01*
X130690792Y-100721513D01*
X130643918Y-100752834D01*
X130571342Y-100644217D01*
X130309208Y-100469064D01*
X130000000Y-100407559D01*
X129690792Y-100469064D01*
X129500000Y-100596548D01*
X129309208Y-100469064D01*
X129000000Y-100407559D01*
X128690792Y-100469064D01*
X128500000Y-100596548D01*
X128309208Y-100469064D01*
X128000000Y-100407559D01*
X127690792Y-100469064D01*
X127500000Y-100596548D01*
X127309208Y-100469064D01*
X127000000Y-100407559D01*
X126690792Y-100469064D01*
X126500000Y-100596548D01*
X126309208Y-100469064D01*
X126228887Y-100453087D01*
X131183178Y-95498796D01*
X131219064Y-95679208D01*
X131346548Y-95870000D01*
X131219064Y-96060792D01*
X131157559Y-96370000D01*
X131219064Y-96679208D01*
X131346548Y-96870000D01*
X131219064Y-97060792D01*
X131157559Y-97370000D01*
X131219064Y-97679208D01*
X131346548Y-97870000D01*
X131219064Y-98060792D01*
X131157559Y-98370000D01*
X131219064Y-98679208D01*
X131346548Y-98870000D01*
X131219064Y-99060792D01*
X131157559Y-99370000D01*
X131219064Y-99679208D01*
X131394217Y-99941342D01*
X131421884Y-99959829D01*
X131354937Y-100099653D01*
X131484210Y-100243000D01*
X132948000Y-100243000D01*
X132948000Y-100223000D01*
X133202000Y-100223000D01*
X133202000Y-100243000D01*
X133222000Y-100243000D01*
X133222000Y-100497000D01*
X133202000Y-100497000D01*
X133202000Y-101305000D01*
X134027000Y-101305000D01*
X134375142Y-101185227D01*
X134417000Y-101148214D01*
X134417000Y-107192578D01*
X134336645Y-107596550D01*
X134140340Y-107890340D01*
X133846550Y-108086645D01*
X133442578Y-108167000D01*
X108057422Y-108167000D01*
X107653450Y-108086645D01*
X107359660Y-107890340D01*
X107163355Y-107596550D01*
X107083000Y-107192578D01*
X107083000Y-104785750D01*
X111865000Y-104785750D01*
X111865000Y-105076310D01*
X111961673Y-105309699D01*
X112140302Y-105488327D01*
X112373691Y-105585000D01*
X112466250Y-105585000D01*
X112625000Y-105426250D01*
X112625000Y-104627000D01*
X112023750Y-104627000D01*
X111865000Y-104785750D01*
X107083000Y-104785750D01*
X107083000Y-103923690D01*
X111865000Y-103923690D01*
X111865000Y-104214250D01*
X112023750Y-104373000D01*
X112625000Y-104373000D01*
X112625000Y-103573750D01*
X112466250Y-103415000D01*
X112373691Y-103415000D01*
X112140302Y-103511673D01*
X111961673Y-103690301D01*
X111865000Y-103923690D01*
X107083000Y-103923690D01*
X107083000Y-102155750D01*
X107090000Y-102155750D01*
X107090000Y-102396309D01*
X107186673Y-102629698D01*
X107365301Y-102808327D01*
X107598690Y-102905000D01*
X107814250Y-102905000D01*
X107973000Y-102746250D01*
X107973000Y-101997000D01*
X107248750Y-101997000D01*
X107090000Y-102155750D01*
X107083000Y-102155750D01*
X107083000Y-83510091D01*
X107349000Y-83510091D01*
X107349000Y-84214250D01*
X107507750Y-84373000D01*
X108873000Y-84373000D01*
X108873000Y-83160150D01*
X109127000Y-83160150D01*
X109127000Y-84373000D01*
X110492250Y-84373000D01*
X110651000Y-84214250D01*
X110651000Y-83510091D01*
X110554327Y-83276702D01*
X110375699Y-83098073D01*
X110142310Y-83001400D01*
X109285750Y-83001400D01*
X109127000Y-83160150D01*
X108873000Y-83160150D01*
X108714250Y-83001400D01*
X107857690Y-83001400D01*
X107624301Y-83098073D01*
X107445673Y-83276702D01*
X107349000Y-83510091D01*
X107083000Y-83510091D01*
X107083000Y-80305750D01*
X110389000Y-80305750D01*
X110389000Y-81162310D01*
X110485673Y-81395699D01*
X110664302Y-81574327D01*
X110897691Y-81671000D01*
X111754250Y-81671000D01*
X111913000Y-81512250D01*
X111913000Y-80147000D01*
X110547750Y-80147000D01*
X110389000Y-80305750D01*
X107083000Y-80305750D01*
X107083000Y-79857422D01*
X107163355Y-79453450D01*
X107359660Y-79159660D01*
X107653450Y-78963355D01*
X108057422Y-78883000D01*
X110389000Y-78883000D01*
X110389000Y-79734250D01*
G36*
X144898750Y-78973000D02*
X145623000Y-78973000D01*
X145623000Y-78953000D01*
X145877000Y-78953000D01*
X145877000Y-78973000D01*
X146471750Y-78973000D01*
X146473750Y-78975000D01*
X147273000Y-78975000D01*
X147273000Y-78953000D01*
X147527000Y-78953000D01*
X147527000Y-78975000D01*
X148326250Y-78975000D01*
X148418250Y-78883000D01*
X149182048Y-78883000D01*
X149182048Y-79892000D01*
X148200832Y-79892000D01*
X148209699Y-79888327D01*
X148388327Y-79709698D01*
X148485000Y-79476309D01*
X148485000Y-79383750D01*
X148326250Y-79225000D01*
X147527000Y-79225000D01*
X147527000Y-79247000D01*
X147273000Y-79247000D01*
X147273000Y-79225000D01*
X146473750Y-79225000D01*
X146471750Y-79227000D01*
X145877000Y-79227000D01*
X145877000Y-79247000D01*
X145623000Y-79247000D01*
X145623000Y-79227000D01*
X144898750Y-79227000D01*
X144740000Y-79385750D01*
X144740000Y-79522883D01*
X144676272Y-79423847D01*
X144506512Y-79307855D01*
X144305000Y-79267048D01*
X141935000Y-79267048D01*
X141746747Y-79302470D01*
X141573847Y-79413728D01*
X141457855Y-79583488D01*
X141417048Y-79785000D01*
X141417048Y-82215000D01*
X141452470Y-82403253D01*
X141563728Y-82576153D01*
X141733488Y-82692145D01*
X141935000Y-82732952D01*
X144305000Y-82732952D01*
X144493253Y-82697530D01*
X144531374Y-82673000D01*
X145470468Y-82673000D01*
X145498488Y-82692145D01*
X145700000Y-82732952D01*
X146300000Y-82732952D01*
X146488253Y-82697530D01*
X146549082Y-82658387D01*
X146598488Y-82692145D01*
X146800000Y-82732952D01*
X147400000Y-82732952D01*
X147588253Y-82697530D01*
X147761153Y-82586272D01*
X147877145Y-82416512D01*
X147917952Y-82215000D01*
X147917952Y-82139711D01*
X148054107Y-81935940D01*
X148108001Y-81665000D01*
X148108000Y-81664995D01*
X148108000Y-81308000D01*
X149182048Y-81308000D01*
X149182048Y-81570000D01*
X149217470Y-81758253D01*
X149328728Y-81931153D01*
X149498488Y-82047145D01*
X149700000Y-82087952D01*
X152500000Y-82087952D01*
X152688253Y-82052530D01*
X152861153Y-81941272D01*
X152977145Y-81771512D01*
X153017952Y-81570000D01*
X153017952Y-78883000D01*
X158882048Y-78883000D01*
X158882048Y-79402000D01*
X156181502Y-79402000D01*
X156061426Y-79352140D01*
X155739984Y-79351860D01*
X155442903Y-79474611D01*
X155215410Y-79701707D01*
X155092140Y-79998574D01*
X155091860Y-80320016D01*
X155214611Y-80617097D01*
X155441707Y-80844590D01*
X155738574Y-80967860D01*
X156060016Y-80968140D01*
X156181364Y-80918000D01*
X158882048Y-80918000D01*
X158882048Y-81570000D01*
X158917470Y-81758253D01*
X159028728Y-81931153D01*
X159198488Y-82047145D01*
X159400000Y-82087952D01*
X161600000Y-82087952D01*
X161788253Y-82052530D01*
X161961153Y-81941272D01*
X162077145Y-81771512D01*
X162117952Y-81570000D01*
X162117952Y-79275813D01*
X162236645Y-79453450D01*
X162317000Y-79857422D01*
X162317000Y-87882578D01*
X162236645Y-88286550D01*
X162040340Y-88580340D01*
X161746550Y-88776645D01*
X161342578Y-88857000D01*
X160117952Y-88857000D01*
X160117952Y-86170000D01*
X160082530Y-85981747D01*
X159971272Y-85808847D01*
X159801512Y-85692855D01*
X159600000Y-85652048D01*
X157400000Y-85652048D01*
X157211747Y-85687470D01*
X157038847Y-85798728D01*
X156922855Y-85968488D01*
X156882048Y-86170000D01*
X156882048Y-86432000D01*
X148108000Y-86432000D01*
X148108000Y-86075005D01*
X148108001Y-86075000D01*
X148054107Y-85804060D01*
X147917952Y-85600289D01*
X147917952Y-85525000D01*
X147882530Y-85336747D01*
X147771272Y-85163847D01*
X147601512Y-85047855D01*
X147400000Y-85007048D01*
X146800000Y-85007048D01*
X146611747Y-85042470D01*
X146550918Y-85081613D01*
X146501512Y-85047855D01*
X146300000Y-85007048D01*
X145700000Y-85007048D01*
X145511747Y-85042470D01*
X145473626Y-85067000D01*
X144534532Y-85067000D01*
X144506512Y-85047855D01*
X144305000Y-85007048D01*
X141935000Y-85007048D01*
X141746747Y-85042470D01*
X141573847Y-85153728D01*
X141457855Y-85323488D01*
X141417048Y-85525000D01*
X141417048Y-87955000D01*
X141452470Y-88143253D01*
X141563728Y-88316153D01*
X141733488Y-88432145D01*
X141935000Y-88472952D01*
X144305000Y-88472952D01*
X144493253Y-88437530D01*
X144666153Y-88326272D01*
X144740000Y-88218193D01*
X144740000Y-88354250D01*
X144898750Y-88513000D01*
X145623000Y-88513000D01*
X145623000Y-88493000D01*
X145877000Y-88493000D01*
X145877000Y-88513000D01*
X146471750Y-88513000D01*
X146473750Y-88515000D01*
X147273000Y-88515000D01*
X147273000Y-88493000D01*
X147527000Y-88493000D01*
X147527000Y-88515000D01*
X148326250Y-88515000D01*
X148485000Y-88356250D01*
X148485000Y-88263691D01*
X148388327Y-88030302D01*
X148209699Y-87851673D01*
X148200832Y-87848000D01*
X156882048Y-87848000D01*
X156882048Y-88857000D01*
X148418250Y-88857000D01*
X148326250Y-88765000D01*
X147527000Y-88765000D01*
X147527000Y-88787000D01*
X147273000Y-88787000D01*
X147273000Y-88765000D01*
X146473750Y-88765000D01*
X146471750Y-88767000D01*
X145877000Y-88767000D01*
X145877000Y-88787000D01*
X145623000Y-88787000D01*
X145623000Y-88767000D01*
X144898750Y-88767000D01*
X144808750Y-88857000D01*
X136500000Y-88857000D01*
X136443684Y-88868202D01*
X136386262Y-88868202D01*
X135812237Y-88982383D01*
X135602078Y-89069434D01*
X135237556Y-89313000D01*
X135000000Y-89313000D01*
X134950590Y-89323006D01*
X134908965Y-89351447D01*
X134881685Y-89393841D01*
X134873000Y-89440000D01*
X134873000Y-89677556D01*
X134648933Y-90012896D01*
X134553452Y-89870000D01*
X134680936Y-89679208D01*
X134742441Y-89370000D01*
X134680936Y-89060792D01*
X134619628Y-88969038D01*
X134650948Y-88941343D01*
X134795063Y-88640347D01*
X134665790Y-88497000D01*
X133077000Y-88497000D01*
X133077000Y-88517000D01*
X132823000Y-88517000D01*
X132823000Y-88497000D01*
X131234210Y-88497000D01*
X131104937Y-88640347D01*
X131249052Y-88941343D01*
X131280372Y-88969038D01*
X131219064Y-89060792D01*
X131157559Y-89370000D01*
X131219064Y-89679208D01*
X131346548Y-89870000D01*
X131219064Y-90060792D01*
X131157559Y-90370000D01*
X131219064Y-90679208D01*
X131346548Y-90870000D01*
X131219064Y-91060792D01*
X131157559Y-91370000D01*
X131219064Y-91679208D01*
X131280372Y-91770962D01*
X131249052Y-91798657D01*
X131104937Y-92099653D01*
X131234210Y-92243000D01*
X132823000Y-92243000D01*
X132823000Y-92223000D01*
X133077000Y-92223000D01*
X133077000Y-92243000D01*
X133097000Y-92243000D01*
X133097000Y-92497000D01*
X133077000Y-92497000D01*
X133077000Y-92517000D01*
X132823000Y-92517000D01*
X132823000Y-92497000D01*
X131234210Y-92497000D01*
X131104937Y-92640347D01*
X131249052Y-92941343D01*
X131280372Y-92969038D01*
X131219064Y-93060792D01*
X131157559Y-93370000D01*
X131207001Y-93618564D01*
X130949925Y-93669699D01*
X130704013Y-93834013D01*
X124926026Y-99612000D01*
X120409974Y-99612000D01*
X121135987Y-98885987D01*
X121300301Y-98640075D01*
X121358000Y-98350000D01*
X121358000Y-86390000D01*
X121335251Y-86275632D01*
X121300301Y-86099925D01*
X121135987Y-85854013D01*
X119708974Y-84427000D01*
X127050000Y-84427000D01*
X127099410Y-84416994D01*
X127141035Y-84388553D01*
X127168315Y-84346159D01*
X127177000Y-84300000D01*
X127177000Y-83640347D01*
X131104937Y-83640347D01*
X131249052Y-83941343D01*
X131280372Y-83969038D01*
X131219064Y-84060792D01*
X131157559Y-84370000D01*
X131219064Y-84679208D01*
X131346548Y-84870000D01*
X131219064Y-85060792D01*
X131157559Y-85370000D01*
X131219064Y-85679208D01*
X131346548Y-85870000D01*
X131219064Y-86060792D01*
X131157559Y-86370000D01*
X131219064Y-86679208D01*
X131346548Y-86870000D01*
X131219064Y-87060792D01*
X131157559Y-87370000D01*
X131219064Y-87679208D01*
X131280372Y-87770962D01*
X131249052Y-87798657D01*
X131104937Y-88099653D01*
X131234210Y-88243000D01*
X132823000Y-88243000D01*
X132823000Y-88223000D01*
X133077000Y-88223000D01*
X133077000Y-88243000D01*
X134665790Y-88243000D01*
X134795063Y-88099653D01*
X134650948Y-87798657D01*
X134619628Y-87770962D01*
X134680936Y-87679208D01*
X134742441Y-87370000D01*
X134680936Y-87060792D01*
X134553452Y-86870000D01*
X134680936Y-86679208D01*
X134742441Y-86370000D01*
X134684359Y-86078000D01*
X135177048Y-86078000D01*
X135177048Y-87955000D01*
X135212470Y-88143253D01*
X135323728Y-88316153D01*
X135493488Y-88432145D01*
X135695000Y-88472952D01*
X138065000Y-88472952D01*
X138253253Y-88437530D01*
X138426153Y-88326272D01*
X138542145Y-88156512D01*
X138582952Y-87955000D01*
X138582952Y-85525000D01*
X138547530Y-85336747D01*
X138436272Y-85163847D01*
X138266512Y-85047855D01*
X138065000Y-85007048D01*
X136148312Y-85007048D01*
X136010632Y-84869368D01*
X135780940Y-84715893D01*
X135510000Y-84661999D01*
X135509995Y-84662000D01*
X134684359Y-84662000D01*
X134742441Y-84370000D01*
X134696481Y-84138938D01*
X151041765Y-84138938D01*
X151248072Y-84638240D01*
X151629750Y-85020585D01*
X152128692Y-85227764D01*
X152668938Y-85228235D01*
X153168240Y-85021928D01*
X153550585Y-84640250D01*
X153757764Y-84141308D01*
X153757766Y-84138938D01*
X158041765Y-84138938D01*
X158248072Y-84638240D01*
X158629750Y-85020585D01*
X159128692Y-85227764D01*
X159668938Y-85228235D01*
X160168240Y-85021928D01*
X160550585Y-84640250D01*
X160757764Y-84141308D01*
X160758235Y-83601062D01*
X160551928Y-83101760D01*
X160170250Y-82719415D01*
X159671308Y-82512236D01*
X159131062Y-82511765D01*
X158631760Y-82718072D01*
X158249415Y-83099750D01*
X158042236Y-83598692D01*
X158041765Y-84138938D01*
X153757766Y-84138938D01*
X153758235Y-83601062D01*
X153551928Y-83101760D01*
X153170250Y-82719415D01*
X152671308Y-82512236D01*
X152131062Y-82511765D01*
X151631760Y-82718072D01*
X151249415Y-83099750D01*
X151042236Y-83598692D01*
X151041765Y-84138938D01*
X134696481Y-84138938D01*
X134680936Y-84060792D01*
X134619628Y-83969038D01*
X134650948Y-83941343D01*
X134795063Y-83640347D01*
X134665790Y-83497000D01*
X133077000Y-83497000D01*
X133077000Y-83517000D01*
X132823000Y-83517000D01*
X132823000Y-83497000D01*
X131234210Y-83497000D01*
X131104937Y-83640347D01*
X127177000Y-83640347D01*
X127177000Y-83099653D01*
X131104937Y-83099653D01*
X131234210Y-83243000D01*
X132823000Y-83243000D01*
X132823000Y-83223000D01*
X133077000Y-83223000D01*
X133077000Y-83243000D01*
X134665790Y-83243000D01*
X134795063Y-83099653D01*
X134784696Y-83078000D01*
X135509995Y-83078000D01*
X135510000Y-83078001D01*
X135780940Y-83024107D01*
X136010632Y-82870632D01*
X136148312Y-82732952D01*
X138065000Y-82732952D01*
X138253253Y-82697530D01*
X138426153Y-82586272D01*
X138542145Y-82416512D01*
X138582952Y-82215000D01*
X138582952Y-79785000D01*
X138547530Y-79596747D01*
X138436272Y-79423847D01*
X138266512Y-79307855D01*
X138065000Y-79267048D01*
X135695000Y-79267048D01*
X135506747Y-79302470D01*
X135333847Y-79413728D01*
X135217855Y-79583488D01*
X135177048Y-79785000D01*
X135177048Y-81662000D01*
X134684359Y-81662000D01*
X134742441Y-81370000D01*
X134680936Y-81060792D01*
X134505783Y-80798658D01*
X134243649Y-80623505D01*
X133934441Y-80562000D01*
X131965559Y-80562000D01*
X131656351Y-80623505D01*
X131394217Y-80798658D01*
X131219064Y-81060792D01*
X131157559Y-81370000D01*
X131219064Y-81679208D01*
X131346548Y-81870000D01*
X131219064Y-82060792D01*
X131157559Y-82370000D01*
X131219064Y-82679208D01*
X131280372Y-82770962D01*
X131249052Y-82798657D01*
X131104937Y-83099653D01*
X127177000Y-83099653D01*
X127177000Y-78883000D01*
X144808750Y-78883000D01*
X144898750Y-78973000D01*
X144898750Y-78973000D01*
G37*
X144898750Y-78973000D02*
X145623000Y-78973000D01*
X145623000Y-78953000D01*
X145877000Y-78953000D01*
X145877000Y-78973000D01*
X146471750Y-78973000D01*
X146473750Y-78975000D01*
X147273000Y-78975000D01*
X147273000Y-78953000D01*
X147527000Y-78953000D01*
X147527000Y-78975000D01*
X148326250Y-78975000D01*
X148418250Y-78883000D01*
X149182048Y-78883000D01*
X149182048Y-79892000D01*
X148200832Y-79892000D01*
X148209699Y-79888327D01*
X148388327Y-79709698D01*
X148485000Y-79476309D01*
X148485000Y-79383750D01*
X148326250Y-79225000D01*
X147527000Y-79225000D01*
X147527000Y-79247000D01*
X147273000Y-79247000D01*
X147273000Y-79225000D01*
X146473750Y-79225000D01*
X146471750Y-79227000D01*
X145877000Y-79227000D01*
X145877000Y-79247000D01*
X145623000Y-79247000D01*
X145623000Y-79227000D01*
X144898750Y-79227000D01*
X144740000Y-79385750D01*
X144740000Y-79522883D01*
X144676272Y-79423847D01*
X144506512Y-79307855D01*
X144305000Y-79267048D01*
X141935000Y-79267048D01*
X141746747Y-79302470D01*
X141573847Y-79413728D01*
X141457855Y-79583488D01*
X141417048Y-79785000D01*
X141417048Y-82215000D01*
X141452470Y-82403253D01*
X141563728Y-82576153D01*
X141733488Y-82692145D01*
X141935000Y-82732952D01*
X144305000Y-82732952D01*
X144493253Y-82697530D01*
X144531374Y-82673000D01*
X145470468Y-82673000D01*
X145498488Y-82692145D01*
X145700000Y-82732952D01*
X146300000Y-82732952D01*
X146488253Y-82697530D01*
X146549082Y-82658387D01*
X146598488Y-82692145D01*
X146800000Y-82732952D01*
X147400000Y-82732952D01*
X147588253Y-82697530D01*
X147761153Y-82586272D01*
X147877145Y-82416512D01*
X147917952Y-82215000D01*
X147917952Y-82139711D01*
X148054107Y-81935940D01*
X148108001Y-81665000D01*
X148108000Y-81664995D01*
X148108000Y-81308000D01*
X149182048Y-81308000D01*
X149182048Y-81570000D01*
X149217470Y-81758253D01*
X149328728Y-81931153D01*
X149498488Y-82047145D01*
X149700000Y-82087952D01*
X152500000Y-82087952D01*
X152688253Y-82052530D01*
X152861153Y-81941272D01*
X152977145Y-81771512D01*
X153017952Y-81570000D01*
X153017952Y-78883000D01*
X158882048Y-78883000D01*
X158882048Y-79402000D01*
X156181502Y-79402000D01*
X156061426Y-79352140D01*
X155739984Y-79351860D01*
X155442903Y-79474611D01*
X155215410Y-79701707D01*
X155092140Y-79998574D01*
X155091860Y-80320016D01*
X155214611Y-80617097D01*
X155441707Y-80844590D01*
X155738574Y-80967860D01*
X156060016Y-80968140D01*
X156181364Y-80918000D01*
X158882048Y-80918000D01*
X158882048Y-81570000D01*
X158917470Y-81758253D01*
X159028728Y-81931153D01*
X159198488Y-82047145D01*
X159400000Y-82087952D01*
X161600000Y-82087952D01*
X161788253Y-82052530D01*
X161961153Y-81941272D01*
X162077145Y-81771512D01*
X162117952Y-81570000D01*
X162117952Y-79275813D01*
X162236645Y-79453450D01*
X162317000Y-79857422D01*
X162317000Y-87882578D01*
X162236645Y-88286550D01*
X162040340Y-88580340D01*
X161746550Y-88776645D01*
X161342578Y-88857000D01*
X160117952Y-88857000D01*
X160117952Y-86170000D01*
X160082530Y-85981747D01*
X159971272Y-85808847D01*
X159801512Y-85692855D01*
X159600000Y-85652048D01*
X157400000Y-85652048D01*
X157211747Y-85687470D01*
X157038847Y-85798728D01*
X156922855Y-85968488D01*
X156882048Y-86170000D01*
X156882048Y-86432000D01*
X148108000Y-86432000D01*
X148108000Y-86075005D01*
X148108001Y-86075000D01*
X148054107Y-85804060D01*
X147917952Y-85600289D01*
X147917952Y-85525000D01*
X147882530Y-85336747D01*
X147771272Y-85163847D01*
X147601512Y-85047855D01*
X147400000Y-85007048D01*
X146800000Y-85007048D01*
X146611747Y-85042470D01*
X146550918Y-85081613D01*
X146501512Y-85047855D01*
X146300000Y-85007048D01*
X145700000Y-85007048D01*
X145511747Y-85042470D01*
X145473626Y-85067000D01*
X144534532Y-85067000D01*
X144506512Y-85047855D01*
X144305000Y-85007048D01*
X141935000Y-85007048D01*
X141746747Y-85042470D01*
X141573847Y-85153728D01*
X141457855Y-85323488D01*
X141417048Y-85525000D01*
X141417048Y-87955000D01*
X141452470Y-88143253D01*
X141563728Y-88316153D01*
X141733488Y-88432145D01*
X141935000Y-88472952D01*
X144305000Y-88472952D01*
X144493253Y-88437530D01*
X144666153Y-88326272D01*
X144740000Y-88218193D01*
X144740000Y-88354250D01*
X144898750Y-88513000D01*
X145623000Y-88513000D01*
X145623000Y-88493000D01*
X145877000Y-88493000D01*
X145877000Y-88513000D01*
X146471750Y-88513000D01*
X146473750Y-88515000D01*
X147273000Y-88515000D01*
X147273000Y-88493000D01*
X147527000Y-88493000D01*
X147527000Y-88515000D01*
X148326250Y-88515000D01*
X148485000Y-88356250D01*
X148485000Y-88263691D01*
X148388327Y-88030302D01*
X148209699Y-87851673D01*
X148200832Y-87848000D01*
X156882048Y-87848000D01*
X156882048Y-88857000D01*
X148418250Y-88857000D01*
X148326250Y-88765000D01*
X147527000Y-88765000D01*
X147527000Y-88787000D01*
X147273000Y-88787000D01*
X147273000Y-88765000D01*
X146473750Y-88765000D01*
X146471750Y-88767000D01*
X145877000Y-88767000D01*
X145877000Y-88787000D01*
X145623000Y-88787000D01*
X145623000Y-88767000D01*
X144898750Y-88767000D01*
X144808750Y-88857000D01*
X136500000Y-88857000D01*
X136443684Y-88868202D01*
X136386262Y-88868202D01*
X135812237Y-88982383D01*
X135602078Y-89069434D01*
X135237556Y-89313000D01*
X135000000Y-89313000D01*
X134950590Y-89323006D01*
X134908965Y-89351447D01*
X134881685Y-89393841D01*
X134873000Y-89440000D01*
X134873000Y-89677556D01*
X134648933Y-90012896D01*
X134553452Y-89870000D01*
X134680936Y-89679208D01*
X134742441Y-89370000D01*
X134680936Y-89060792D01*
X134619628Y-88969038D01*
X134650948Y-88941343D01*
X134795063Y-88640347D01*
X134665790Y-88497000D01*
X133077000Y-88497000D01*
X133077000Y-88517000D01*
X132823000Y-88517000D01*
X132823000Y-88497000D01*
X131234210Y-88497000D01*
X131104937Y-88640347D01*
X131249052Y-88941343D01*
X131280372Y-88969038D01*
X131219064Y-89060792D01*
X131157559Y-89370000D01*
X131219064Y-89679208D01*
X131346548Y-89870000D01*
X131219064Y-90060792D01*
X131157559Y-90370000D01*
X131219064Y-90679208D01*
X131346548Y-90870000D01*
X131219064Y-91060792D01*
X131157559Y-91370000D01*
X131219064Y-91679208D01*
X131280372Y-91770962D01*
X131249052Y-91798657D01*
X131104937Y-92099653D01*
X131234210Y-92243000D01*
X132823000Y-92243000D01*
X132823000Y-92223000D01*
X133077000Y-92223000D01*
X133077000Y-92243000D01*
X133097000Y-92243000D01*
X133097000Y-92497000D01*
X133077000Y-92497000D01*
X133077000Y-92517000D01*
X132823000Y-92517000D01*
X132823000Y-92497000D01*
X131234210Y-92497000D01*
X131104937Y-92640347D01*
X131249052Y-92941343D01*
X131280372Y-92969038D01*
X131219064Y-93060792D01*
X131157559Y-93370000D01*
X131207001Y-93618564D01*
X130949925Y-93669699D01*
X130704013Y-93834013D01*
X124926026Y-99612000D01*
X120409974Y-99612000D01*
X121135987Y-98885987D01*
X121300301Y-98640075D01*
X121358000Y-98350000D01*
X121358000Y-86390000D01*
X121335251Y-86275632D01*
X121300301Y-86099925D01*
X121135987Y-85854013D01*
X119708974Y-84427000D01*
X127050000Y-84427000D01*
X127099410Y-84416994D01*
X127141035Y-84388553D01*
X127168315Y-84346159D01*
X127177000Y-84300000D01*
X127177000Y-83640347D01*
X131104937Y-83640347D01*
X131249052Y-83941343D01*
X131280372Y-83969038D01*
X131219064Y-84060792D01*
X131157559Y-84370000D01*
X131219064Y-84679208D01*
X131346548Y-84870000D01*
X131219064Y-85060792D01*
X131157559Y-85370000D01*
X131219064Y-85679208D01*
X131346548Y-85870000D01*
X131219064Y-86060792D01*
X131157559Y-86370000D01*
X131219064Y-86679208D01*
X131346548Y-86870000D01*
X131219064Y-87060792D01*
X131157559Y-87370000D01*
X131219064Y-87679208D01*
X131280372Y-87770962D01*
X131249052Y-87798657D01*
X131104937Y-88099653D01*
X131234210Y-88243000D01*
X132823000Y-88243000D01*
X132823000Y-88223000D01*
X133077000Y-88223000D01*
X133077000Y-88243000D01*
X134665790Y-88243000D01*
X134795063Y-88099653D01*
X134650948Y-87798657D01*
X134619628Y-87770962D01*
X134680936Y-87679208D01*
X134742441Y-87370000D01*
X134680936Y-87060792D01*
X134553452Y-86870000D01*
X134680936Y-86679208D01*
X134742441Y-86370000D01*
X134684359Y-86078000D01*
X135177048Y-86078000D01*
X135177048Y-87955000D01*
X135212470Y-88143253D01*
X135323728Y-88316153D01*
X135493488Y-88432145D01*
X135695000Y-88472952D01*
X138065000Y-88472952D01*
X138253253Y-88437530D01*
X138426153Y-88326272D01*
X138542145Y-88156512D01*
X138582952Y-87955000D01*
X138582952Y-85525000D01*
X138547530Y-85336747D01*
X138436272Y-85163847D01*
X138266512Y-85047855D01*
X138065000Y-85007048D01*
X136148312Y-85007048D01*
X136010632Y-84869368D01*
X135780940Y-84715893D01*
X135510000Y-84661999D01*
X135509995Y-84662000D01*
X134684359Y-84662000D01*
X134742441Y-84370000D01*
X134696481Y-84138938D01*
X151041765Y-84138938D01*
X151248072Y-84638240D01*
X151629750Y-85020585D01*
X152128692Y-85227764D01*
X152668938Y-85228235D01*
X153168240Y-85021928D01*
X153550585Y-84640250D01*
X153757764Y-84141308D01*
X153757766Y-84138938D01*
X158041765Y-84138938D01*
X158248072Y-84638240D01*
X158629750Y-85020585D01*
X159128692Y-85227764D01*
X159668938Y-85228235D01*
X160168240Y-85021928D01*
X160550585Y-84640250D01*
X160757764Y-84141308D01*
X160758235Y-83601062D01*
X160551928Y-83101760D01*
X160170250Y-82719415D01*
X159671308Y-82512236D01*
X159131062Y-82511765D01*
X158631760Y-82718072D01*
X158249415Y-83099750D01*
X158042236Y-83598692D01*
X158041765Y-84138938D01*
X153757766Y-84138938D01*
X153758235Y-83601062D01*
X153551928Y-83101760D01*
X153170250Y-82719415D01*
X152671308Y-82512236D01*
X152131062Y-82511765D01*
X151631760Y-82718072D01*
X151249415Y-83099750D01*
X151042236Y-83598692D01*
X151041765Y-84138938D01*
X134696481Y-84138938D01*
X134680936Y-84060792D01*
X134619628Y-83969038D01*
X134650948Y-83941343D01*
X134795063Y-83640347D01*
X134665790Y-83497000D01*
X133077000Y-83497000D01*
X133077000Y-83517000D01*
X132823000Y-83517000D01*
X132823000Y-83497000D01*
X131234210Y-83497000D01*
X131104937Y-83640347D01*
X127177000Y-83640347D01*
X127177000Y-83099653D01*
X131104937Y-83099653D01*
X131234210Y-83243000D01*
X132823000Y-83243000D01*
X132823000Y-83223000D01*
X133077000Y-83223000D01*
X133077000Y-83243000D01*
X134665790Y-83243000D01*
X134795063Y-83099653D01*
X134784696Y-83078000D01*
X135509995Y-83078000D01*
X135510000Y-83078001D01*
X135780940Y-83024107D01*
X136010632Y-82870632D01*
X136148312Y-82732952D01*
X138065000Y-82732952D01*
X138253253Y-82697530D01*
X138426153Y-82586272D01*
X138542145Y-82416512D01*
X138582952Y-82215000D01*
X138582952Y-79785000D01*
X138547530Y-79596747D01*
X138436272Y-79423847D01*
X138266512Y-79307855D01*
X138065000Y-79267048D01*
X135695000Y-79267048D01*
X135506747Y-79302470D01*
X135333847Y-79413728D01*
X135217855Y-79583488D01*
X135177048Y-79785000D01*
X135177048Y-81662000D01*
X134684359Y-81662000D01*
X134742441Y-81370000D01*
X134680936Y-81060792D01*
X134505783Y-80798658D01*
X134243649Y-80623505D01*
X133934441Y-80562000D01*
X131965559Y-80562000D01*
X131656351Y-80623505D01*
X131394217Y-80798658D01*
X131219064Y-81060792D01*
X131157559Y-81370000D01*
X131219064Y-81679208D01*
X131346548Y-81870000D01*
X131219064Y-82060792D01*
X131157559Y-82370000D01*
X131219064Y-82679208D01*
X131280372Y-82770962D01*
X131249052Y-82798657D01*
X131104937Y-83099653D01*
X127177000Y-83099653D01*
X127177000Y-78883000D01*
X144808750Y-78883000D01*
X144898750Y-78973000D01*
M02*
