G04 #@! TF.FileFunction,Legend,Bot*
%FSLAX46Y46*%
G04 Gerber Fmt 4.6, Leading zero omitted, Abs format (unit mm)*
G04 Created by KiCad (PCBNEW 4.0.2+e4-6225~38~ubuntu15.04.1-stable) date Wed 22 Jun 2016 12:26:55 PM PDT*
%MOMM*%
G01*
G04 APERTURE LIST*
%ADD10C,0.100000*%
%ADD11C,0.625000*%
G04 APERTURE END LIST*
D10*
D11*
X130333334Y-98130952D02*
X130333334Y-95630952D01*
X128904762Y-98130952D01*
X128904762Y-95630952D01*
X127238095Y-95630952D02*
X126761905Y-95630952D01*
X126523810Y-95750000D01*
X126285714Y-95988095D01*
X126166667Y-96464286D01*
X126166667Y-97297619D01*
X126285714Y-97773810D01*
X126523810Y-98011905D01*
X126761905Y-98130952D01*
X127238095Y-98130952D01*
X127476191Y-98011905D01*
X127714286Y-97773810D01*
X127833334Y-97297619D01*
X127833334Y-96464286D01*
X127714286Y-95988095D01*
X127476191Y-95750000D01*
X127238095Y-95630952D01*
X123666666Y-97892857D02*
X123785714Y-98011905D01*
X124142857Y-98130952D01*
X124380952Y-98130952D01*
X124738095Y-98011905D01*
X124976190Y-97773810D01*
X125095238Y-97535714D01*
X125214286Y-97059524D01*
X125214286Y-96702381D01*
X125095238Y-96226190D01*
X124976190Y-95988095D01*
X124738095Y-95750000D01*
X124380952Y-95630952D01*
X124142857Y-95630952D01*
X123785714Y-95750000D01*
X123666666Y-95869048D01*
X122952381Y-95630952D02*
X121523809Y-95630952D01*
X122238095Y-98130952D02*
X122238095Y-95630952D01*
X120690476Y-98130952D02*
X120690476Y-95630952D01*
X119857143Y-95630952D02*
X119023809Y-98130952D01*
X118190476Y-95630952D01*
X116880952Y-95630952D02*
X116404762Y-95630952D01*
X116166667Y-95750000D01*
X115928571Y-95988095D01*
X115809524Y-96464286D01*
X115809524Y-97297619D01*
X115928571Y-97773810D01*
X116166667Y-98011905D01*
X116404762Y-98130952D01*
X116880952Y-98130952D01*
X117119048Y-98011905D01*
X117357143Y-97773810D01*
X117476191Y-97297619D01*
X117476191Y-96464286D01*
X117357143Y-95988095D01*
X117119048Y-95750000D01*
X116880952Y-95630952D01*
X113309523Y-98130952D02*
X114142857Y-96940476D01*
X114738095Y-98130952D02*
X114738095Y-95630952D01*
X113785714Y-95630952D01*
X113547619Y-95750000D01*
X113428571Y-95869048D01*
X113309523Y-96107143D01*
X113309523Y-96464286D01*
X113428571Y-96702381D01*
X113547619Y-96821429D01*
X113785714Y-96940476D01*
X114738095Y-96940476D01*
X112238095Y-96821429D02*
X111404762Y-96821429D01*
X111047619Y-98130952D02*
X112238095Y-98130952D01*
X112238095Y-95630952D01*
X111047619Y-95630952D01*
M02*
