G04 #@! TF.FileFunction,Paste,Top*
%FSLAX46Y46*%
G04 Gerber Fmt 4.6, Leading zero omitted, Abs format (unit mm)*
G04 Created by KiCad (PCBNEW 4.0.2+e4-6225~38~ubuntu15.04.1-stable) date Mon 20 Jun 2016 12:15:46 AM PDT*
%MOMM*%
G01*
G04 APERTURE LIST*
%ADD10C,0.100000*%
%ADD11R,0.750000X0.800000*%
%ADD12R,2.370000X2.430000*%
%ADD13R,0.797560X0.797560*%
%ADD14R,0.600000X0.500000*%
%ADD15R,2.200000X2.800000*%
%ADD16R,2.800000X2.800000*%
%ADD17R,0.900000X0.500000*%
%ADD18R,0.500000X0.900000*%
%ADD19O,2.150000X0.500000*%
%ADD20O,2.400000X0.500000*%
%ADD21O,0.500000X2.150000*%
%ADD22O,0.500000X2.400000*%
%ADD23R,1.060000X0.650000*%
G04 APERTURE END LIST*
D10*
D11*
X108100000Y-100370000D03*
X108100000Y-101870000D03*
X114700000Y-100370000D03*
X114700000Y-101870000D03*
D12*
X143120000Y-81000000D03*
X136880000Y-81000000D03*
X143120000Y-86740000D03*
X136880000Y-86740000D03*
D11*
X145750000Y-87140000D03*
X145750000Y-88640000D03*
X145750000Y-79100000D03*
X145750000Y-80600000D03*
D13*
X113500000Y-93370000D03*
X113500000Y-91871400D03*
X117179300Y-104500000D03*
X115680700Y-104500000D03*
D14*
X146000000Y-81965000D03*
X147100000Y-81965000D03*
X147100000Y-85775000D03*
X146000000Y-85775000D03*
D15*
X160500000Y-80170000D03*
D16*
X151100000Y-80170000D03*
D15*
X158500000Y-87570000D03*
D17*
X113500000Y-90250000D03*
X113500000Y-88750000D03*
D18*
X114250000Y-104500000D03*
X112750000Y-104500000D03*
D17*
X147400000Y-79100000D03*
X147400000Y-80600000D03*
X147400000Y-87140000D03*
X147400000Y-88640000D03*
D19*
X117175000Y-100370000D03*
D20*
X117300000Y-99370000D03*
X117300000Y-98370000D03*
X117300000Y-97370000D03*
X117300000Y-96370000D03*
X117300000Y-95370000D03*
X117300000Y-94370000D03*
X117300000Y-93370000D03*
X117300000Y-92370000D03*
X117300000Y-91370000D03*
X117300000Y-90370000D03*
X117300000Y-89370000D03*
X117300000Y-88370000D03*
X117300000Y-87370000D03*
X117300000Y-86370000D03*
X117300000Y-85370000D03*
X117300000Y-84370000D03*
D19*
X133075000Y-100370000D03*
D20*
X132950000Y-99370000D03*
X132950000Y-98370000D03*
X132950000Y-97370000D03*
X132950000Y-96370000D03*
X132950000Y-95370000D03*
X132950000Y-94370000D03*
X132950000Y-93370000D03*
X132950000Y-92370000D03*
X132950000Y-91370000D03*
X132950000Y-90370000D03*
X132950000Y-89370000D03*
X132950000Y-88370000D03*
X132950000Y-87370000D03*
X132950000Y-86370000D03*
X132950000Y-85370000D03*
X132950000Y-84370000D03*
X132950000Y-83370000D03*
X132950000Y-82370000D03*
X132950000Y-81370000D03*
D21*
X119000000Y-102325000D03*
D22*
X120000000Y-102200000D03*
X121000000Y-102200000D03*
X122000000Y-102200000D03*
X123000000Y-102200000D03*
X124000000Y-102200000D03*
X125000000Y-102200000D03*
X126000000Y-102200000D03*
X127000000Y-102200000D03*
X128000000Y-102200000D03*
X129000000Y-102200000D03*
X130000000Y-102200000D03*
D21*
X131000000Y-102325000D03*
D23*
X110250000Y-100370000D03*
X110250000Y-101320000D03*
X110250000Y-102270000D03*
X112450000Y-102270000D03*
X112450000Y-100370000D03*
M02*
