G04 #@! TF.FileFunction,Copper,L2,Bot,Signal*
%FSLAX46Y46*%
G04 Gerber Fmt 4.6, Leading zero omitted, Abs format (unit mm)*
G04 Created by KiCad (PCBNEW 4.0.2+e4-6225~38~ubuntu15.04.1-stable) date Wed 22 Jun 2016 12:26:55 PM PDT*
%MOMM*%
G01*
G04 APERTURE LIST*
%ADD10C,0.100000*%
%ADD11C,0.600000*%
%ADD12R,2.032000X1.727200*%
%ADD13O,2.032000X1.727200*%
%ADD14R,1.727200X2.032000*%
%ADD15O,1.727200X2.032000*%
%ADD16R,2.032000X2.032000*%
%ADD17O,2.032000X2.032000*%
%ADD18C,0.500000*%
%ADD19C,0.254000*%
G04 APERTURE END LIST*
D10*
D11*
X148700000Y-79100000D03*
X144500000Y-79100000D03*
X148700000Y-88640000D03*
X144500000Y-88640000D03*
X131150000Y-83370000D03*
X134750000Y-83370000D03*
X134750000Y-88370000D03*
X131150000Y-88370000D03*
X131150000Y-92370000D03*
X131275000Y-100370000D03*
X122000000Y-104000000D03*
X119000000Y-104000000D03*
X114700000Y-103000000D03*
X111700000Y-104500000D03*
X111350000Y-101320000D03*
X108100000Y-103000000D03*
X112250000Y-88750000D03*
X119100000Y-86370000D03*
X115500000Y-86370000D03*
X115500000Y-85370000D03*
D12*
X109000000Y-84500000D03*
D13*
X109000000Y-87040000D03*
X109000000Y-89580000D03*
X109000000Y-92120000D03*
X109000000Y-94660000D03*
X109000000Y-97200000D03*
D14*
X125000000Y-106500000D03*
D15*
X127540000Y-106500000D03*
X130080000Y-106500000D03*
X132620000Y-106500000D03*
D16*
X112040000Y-80020000D03*
D17*
X114580000Y-80020000D03*
D11*
X111350000Y-99270000D03*
X155900000Y-80160000D03*
D18*
X111350000Y-99270000D02*
X111350000Y-91930000D01*
X111350000Y-91930000D02*
X109000000Y-89580000D01*
X112250000Y-87597600D02*
X109152400Y-84500000D01*
X109152400Y-84500000D02*
X109000000Y-84500000D01*
X112250000Y-87597600D02*
X112250000Y-88750000D01*
X141510000Y-80160000D02*
X134300000Y-87370000D01*
X111700000Y-84500000D02*
X109000000Y-84500000D01*
X134300000Y-87370000D02*
X114570000Y-87370000D01*
X114570000Y-87370000D02*
X111700000Y-84500000D01*
X155900000Y-80160000D02*
X141510000Y-80160000D01*
D19*
G36*
X110389000Y-79734250D02*
X110547750Y-79893000D01*
X111913000Y-79893000D01*
X111913000Y-79873000D01*
X112167000Y-79873000D01*
X112167000Y-79893000D01*
X112187000Y-79893000D01*
X112187000Y-80147000D01*
X112167000Y-80147000D01*
X112167000Y-81512250D01*
X112325750Y-81671000D01*
X113182309Y-81671000D01*
X113415698Y-81574327D01*
X113594327Y-81395699D01*
X113664621Y-81225994D01*
X113966933Y-81427992D01*
X114550143Y-81544000D01*
X114609857Y-81544000D01*
X115193067Y-81427992D01*
X115687488Y-81097631D01*
X116017849Y-80603210D01*
X116133857Y-80020000D01*
X116017849Y-79436790D01*
X115687488Y-78942369D01*
X115598636Y-78883000D01*
X118923000Y-78883000D01*
X118923000Y-84300000D01*
X118933006Y-84349410D01*
X118961447Y-84391035D01*
X119003841Y-84418315D01*
X119050000Y-84427000D01*
X127050000Y-84427000D01*
X127099410Y-84416994D01*
X127141035Y-84388553D01*
X127168315Y-84346159D01*
X127177000Y-84300000D01*
X127177000Y-78883000D01*
X161342578Y-78883000D01*
X161746550Y-78963355D01*
X162040340Y-79159660D01*
X162236645Y-79453450D01*
X162317000Y-79857422D01*
X162317000Y-87882578D01*
X162236645Y-88286550D01*
X162040340Y-88580340D01*
X161746550Y-88776645D01*
X161342578Y-88857000D01*
X136500000Y-88857000D01*
X136443684Y-88868202D01*
X136386262Y-88868202D01*
X135812237Y-88982383D01*
X135602078Y-89069434D01*
X135237556Y-89313000D01*
X135000000Y-89313000D01*
X134950590Y-89323006D01*
X134908965Y-89351447D01*
X134881685Y-89393841D01*
X134873000Y-89440000D01*
X134873000Y-89677556D01*
X134629434Y-90042078D01*
X134542383Y-90252237D01*
X134428202Y-90826262D01*
X134428202Y-90883684D01*
X134417000Y-90940000D01*
X134417000Y-107192578D01*
X134336645Y-107596550D01*
X134140340Y-107890340D01*
X133846550Y-108086645D01*
X133442578Y-108167000D01*
X108057422Y-108167000D01*
X107653450Y-108086645D01*
X107359660Y-107890340D01*
X107163355Y-107596550D01*
X107083000Y-107192578D01*
X107083000Y-105484000D01*
X123618448Y-105484000D01*
X123618448Y-107516000D01*
X123653870Y-107704253D01*
X123765128Y-107877153D01*
X123934888Y-107993145D01*
X124136400Y-108033952D01*
X125863600Y-108033952D01*
X126051853Y-107998530D01*
X126224753Y-107887272D01*
X126340745Y-107717512D01*
X126381552Y-107516000D01*
X126381552Y-107369895D01*
X126570132Y-107652125D01*
X127015111Y-107949450D01*
X127540000Y-108053857D01*
X128064889Y-107949450D01*
X128509868Y-107652125D01*
X128807193Y-107207146D01*
X128810000Y-107193034D01*
X128812807Y-107207146D01*
X129110132Y-107652125D01*
X129555111Y-107949450D01*
X130080000Y-108053857D01*
X130604889Y-107949450D01*
X131049868Y-107652125D01*
X131347193Y-107207146D01*
X131350000Y-107193034D01*
X131352807Y-107207146D01*
X131650132Y-107652125D01*
X132095111Y-107949450D01*
X132620000Y-108053857D01*
X133144889Y-107949450D01*
X133589868Y-107652125D01*
X133887193Y-107207146D01*
X133991600Y-106682257D01*
X133991600Y-106317743D01*
X133887193Y-105792854D01*
X133589868Y-105347875D01*
X133144889Y-105050550D01*
X132620000Y-104946143D01*
X132095111Y-105050550D01*
X131650132Y-105347875D01*
X131352807Y-105792854D01*
X131350000Y-105806966D01*
X131347193Y-105792854D01*
X131049868Y-105347875D01*
X130604889Y-105050550D01*
X130080000Y-104946143D01*
X129555111Y-105050550D01*
X129110132Y-105347875D01*
X128812807Y-105792854D01*
X128810000Y-105806966D01*
X128807193Y-105792854D01*
X128509868Y-105347875D01*
X128064889Y-105050550D01*
X127540000Y-104946143D01*
X127015111Y-105050550D01*
X126570132Y-105347875D01*
X126381552Y-105630105D01*
X126381552Y-105484000D01*
X126346130Y-105295747D01*
X126234872Y-105122847D01*
X126065112Y-105006855D01*
X125863600Y-104966048D01*
X124136400Y-104966048D01*
X123948147Y-105001470D01*
X123775247Y-105112728D01*
X123659255Y-105282488D01*
X123618448Y-105484000D01*
X107083000Y-105484000D01*
X107083000Y-83510091D01*
X107349000Y-83510091D01*
X107349000Y-84214250D01*
X107507750Y-84373000D01*
X108267262Y-84373000D01*
X108242000Y-84500000D01*
X108267262Y-84627000D01*
X107507750Y-84627000D01*
X107349000Y-84785750D01*
X107349000Y-85489909D01*
X107445673Y-85723298D01*
X107624301Y-85901927D01*
X107857690Y-85998600D01*
X107954930Y-85998600D01*
X107847875Y-86070132D01*
X107550550Y-86515111D01*
X107446143Y-87040000D01*
X107550550Y-87564889D01*
X107847875Y-88009868D01*
X108292854Y-88307193D01*
X108306966Y-88310000D01*
X108292854Y-88312807D01*
X107847875Y-88610132D01*
X107550550Y-89055111D01*
X107446143Y-89580000D01*
X107550550Y-90104889D01*
X107847875Y-90549868D01*
X108292854Y-90847193D01*
X108306966Y-90850000D01*
X108292854Y-90852807D01*
X107847875Y-91150132D01*
X107550550Y-91595111D01*
X107446143Y-92120000D01*
X107550550Y-92644889D01*
X107847875Y-93089868D01*
X108292854Y-93387193D01*
X108306966Y-93390000D01*
X108292854Y-93392807D01*
X107847875Y-93690132D01*
X107550550Y-94135111D01*
X107446143Y-94660000D01*
X107550550Y-95184889D01*
X107847875Y-95629868D01*
X108292854Y-95927193D01*
X108306966Y-95930000D01*
X108292854Y-95932807D01*
X107847875Y-96230132D01*
X107550550Y-96675111D01*
X107446143Y-97200000D01*
X107550550Y-97724889D01*
X107847875Y-98169868D01*
X108292854Y-98467193D01*
X108817743Y-98571600D01*
X109182257Y-98571600D01*
X109707146Y-98467193D01*
X110152125Y-98169868D01*
X110449450Y-97724889D01*
X110553857Y-97200000D01*
X110449450Y-96675111D01*
X110152125Y-96230132D01*
X109707146Y-95932807D01*
X109693034Y-95930000D01*
X109707146Y-95927193D01*
X110152125Y-95629868D01*
X110449450Y-95184889D01*
X110553857Y-94660000D01*
X110449450Y-94135111D01*
X110152125Y-93690132D01*
X109707146Y-93392807D01*
X109693034Y-93390000D01*
X109707146Y-93387193D01*
X110152125Y-93089868D01*
X110449450Y-92644889D01*
X110539617Y-92191591D01*
X110592000Y-92243974D01*
X110592000Y-98988498D01*
X110542140Y-99108574D01*
X110541860Y-99430016D01*
X110664611Y-99727097D01*
X110891707Y-99954590D01*
X111188574Y-100077860D01*
X111510016Y-100078140D01*
X111807097Y-99955389D01*
X112034590Y-99728293D01*
X112157860Y-99431426D01*
X112158140Y-99109984D01*
X112108000Y-98988636D01*
X112108000Y-91930000D01*
X112050301Y-91639926D01*
X111885987Y-91394013D01*
X110473907Y-89981933D01*
X110553857Y-89580000D01*
X110449450Y-89055111D01*
X110152125Y-88610132D01*
X109707146Y-88312807D01*
X109693034Y-88310000D01*
X109707146Y-88307193D01*
X110152125Y-88009868D01*
X110449450Y-87564889D01*
X110553857Y-87040000D01*
X110449450Y-86515111D01*
X110152125Y-86070132D01*
X110045070Y-85998600D01*
X110142310Y-85998600D01*
X110375699Y-85901927D01*
X110554327Y-85723298D01*
X110651000Y-85489909D01*
X110651000Y-85258000D01*
X111386026Y-85258000D01*
X114034013Y-87905987D01*
X114279926Y-88070301D01*
X114570000Y-88128000D01*
X134300000Y-88128000D01*
X134590074Y-88070301D01*
X134835987Y-87905987D01*
X138603036Y-84138938D01*
X151041765Y-84138938D01*
X151248072Y-84638240D01*
X151629750Y-85020585D01*
X152128692Y-85227764D01*
X152668938Y-85228235D01*
X153168240Y-85021928D01*
X153550585Y-84640250D01*
X153757764Y-84141308D01*
X153757766Y-84138938D01*
X158041765Y-84138938D01*
X158248072Y-84638240D01*
X158629750Y-85020585D01*
X159128692Y-85227764D01*
X159668938Y-85228235D01*
X160168240Y-85021928D01*
X160550585Y-84640250D01*
X160757764Y-84141308D01*
X160758235Y-83601062D01*
X160551928Y-83101760D01*
X160170250Y-82719415D01*
X159671308Y-82512236D01*
X159131062Y-82511765D01*
X158631760Y-82718072D01*
X158249415Y-83099750D01*
X158042236Y-83598692D01*
X158041765Y-84138938D01*
X153757766Y-84138938D01*
X153758235Y-83601062D01*
X153551928Y-83101760D01*
X153170250Y-82719415D01*
X152671308Y-82512236D01*
X152131062Y-82511765D01*
X151631760Y-82718072D01*
X151249415Y-83099750D01*
X151042236Y-83598692D01*
X151041765Y-84138938D01*
X138603036Y-84138938D01*
X141823974Y-80918000D01*
X155618498Y-80918000D01*
X155738574Y-80967860D01*
X156060016Y-80968140D01*
X156357097Y-80845389D01*
X156584590Y-80618293D01*
X156707860Y-80321426D01*
X156708140Y-79999984D01*
X156585389Y-79702903D01*
X156358293Y-79475410D01*
X156061426Y-79352140D01*
X155739984Y-79351860D01*
X155618636Y-79402000D01*
X141510000Y-79402000D01*
X141219926Y-79459699D01*
X140974013Y-79624013D01*
X133986026Y-86612000D01*
X114883974Y-86612000D01*
X112235987Y-83964013D01*
X111990074Y-83799699D01*
X111700000Y-83742000D01*
X110651000Y-83742000D01*
X110651000Y-83510091D01*
X110554327Y-83276702D01*
X110375699Y-83098073D01*
X110142310Y-83001400D01*
X109285750Y-83001400D01*
X109127000Y-83160150D01*
X109127000Y-83742000D01*
X109000000Y-83742000D01*
X108873000Y-83767262D01*
X108873000Y-83160150D01*
X108714250Y-83001400D01*
X107857690Y-83001400D01*
X107624301Y-83098073D01*
X107445673Y-83276702D01*
X107349000Y-83510091D01*
X107083000Y-83510091D01*
X107083000Y-80305750D01*
X110389000Y-80305750D01*
X110389000Y-81162310D01*
X110485673Y-81395699D01*
X110664302Y-81574327D01*
X110897691Y-81671000D01*
X111754250Y-81671000D01*
X111913000Y-81512250D01*
X111913000Y-80147000D01*
X110547750Y-80147000D01*
X110389000Y-80305750D01*
X107083000Y-80305750D01*
X107083000Y-79857422D01*
X107163355Y-79453450D01*
X107359660Y-79159660D01*
X107653450Y-78963355D01*
X108057422Y-78883000D01*
X110389000Y-78883000D01*
X110389000Y-79734250D01*
X110389000Y-79734250D01*
G37*
X110389000Y-79734250D02*
X110547750Y-79893000D01*
X111913000Y-79893000D01*
X111913000Y-79873000D01*
X112167000Y-79873000D01*
X112167000Y-79893000D01*
X112187000Y-79893000D01*
X112187000Y-80147000D01*
X112167000Y-80147000D01*
X112167000Y-81512250D01*
X112325750Y-81671000D01*
X113182309Y-81671000D01*
X113415698Y-81574327D01*
X113594327Y-81395699D01*
X113664621Y-81225994D01*
X113966933Y-81427992D01*
X114550143Y-81544000D01*
X114609857Y-81544000D01*
X115193067Y-81427992D01*
X115687488Y-81097631D01*
X116017849Y-80603210D01*
X116133857Y-80020000D01*
X116017849Y-79436790D01*
X115687488Y-78942369D01*
X115598636Y-78883000D01*
X118923000Y-78883000D01*
X118923000Y-84300000D01*
X118933006Y-84349410D01*
X118961447Y-84391035D01*
X119003841Y-84418315D01*
X119050000Y-84427000D01*
X127050000Y-84427000D01*
X127099410Y-84416994D01*
X127141035Y-84388553D01*
X127168315Y-84346159D01*
X127177000Y-84300000D01*
X127177000Y-78883000D01*
X161342578Y-78883000D01*
X161746550Y-78963355D01*
X162040340Y-79159660D01*
X162236645Y-79453450D01*
X162317000Y-79857422D01*
X162317000Y-87882578D01*
X162236645Y-88286550D01*
X162040340Y-88580340D01*
X161746550Y-88776645D01*
X161342578Y-88857000D01*
X136500000Y-88857000D01*
X136443684Y-88868202D01*
X136386262Y-88868202D01*
X135812237Y-88982383D01*
X135602078Y-89069434D01*
X135237556Y-89313000D01*
X135000000Y-89313000D01*
X134950590Y-89323006D01*
X134908965Y-89351447D01*
X134881685Y-89393841D01*
X134873000Y-89440000D01*
X134873000Y-89677556D01*
X134629434Y-90042078D01*
X134542383Y-90252237D01*
X134428202Y-90826262D01*
X134428202Y-90883684D01*
X134417000Y-90940000D01*
X134417000Y-107192578D01*
X134336645Y-107596550D01*
X134140340Y-107890340D01*
X133846550Y-108086645D01*
X133442578Y-108167000D01*
X108057422Y-108167000D01*
X107653450Y-108086645D01*
X107359660Y-107890340D01*
X107163355Y-107596550D01*
X107083000Y-107192578D01*
X107083000Y-105484000D01*
X123618448Y-105484000D01*
X123618448Y-107516000D01*
X123653870Y-107704253D01*
X123765128Y-107877153D01*
X123934888Y-107993145D01*
X124136400Y-108033952D01*
X125863600Y-108033952D01*
X126051853Y-107998530D01*
X126224753Y-107887272D01*
X126340745Y-107717512D01*
X126381552Y-107516000D01*
X126381552Y-107369895D01*
X126570132Y-107652125D01*
X127015111Y-107949450D01*
X127540000Y-108053857D01*
X128064889Y-107949450D01*
X128509868Y-107652125D01*
X128807193Y-107207146D01*
X128810000Y-107193034D01*
X128812807Y-107207146D01*
X129110132Y-107652125D01*
X129555111Y-107949450D01*
X130080000Y-108053857D01*
X130604889Y-107949450D01*
X131049868Y-107652125D01*
X131347193Y-107207146D01*
X131350000Y-107193034D01*
X131352807Y-107207146D01*
X131650132Y-107652125D01*
X132095111Y-107949450D01*
X132620000Y-108053857D01*
X133144889Y-107949450D01*
X133589868Y-107652125D01*
X133887193Y-107207146D01*
X133991600Y-106682257D01*
X133991600Y-106317743D01*
X133887193Y-105792854D01*
X133589868Y-105347875D01*
X133144889Y-105050550D01*
X132620000Y-104946143D01*
X132095111Y-105050550D01*
X131650132Y-105347875D01*
X131352807Y-105792854D01*
X131350000Y-105806966D01*
X131347193Y-105792854D01*
X131049868Y-105347875D01*
X130604889Y-105050550D01*
X130080000Y-104946143D01*
X129555111Y-105050550D01*
X129110132Y-105347875D01*
X128812807Y-105792854D01*
X128810000Y-105806966D01*
X128807193Y-105792854D01*
X128509868Y-105347875D01*
X128064889Y-105050550D01*
X127540000Y-104946143D01*
X127015111Y-105050550D01*
X126570132Y-105347875D01*
X126381552Y-105630105D01*
X126381552Y-105484000D01*
X126346130Y-105295747D01*
X126234872Y-105122847D01*
X126065112Y-105006855D01*
X125863600Y-104966048D01*
X124136400Y-104966048D01*
X123948147Y-105001470D01*
X123775247Y-105112728D01*
X123659255Y-105282488D01*
X123618448Y-105484000D01*
X107083000Y-105484000D01*
X107083000Y-83510091D01*
X107349000Y-83510091D01*
X107349000Y-84214250D01*
X107507750Y-84373000D01*
X108267262Y-84373000D01*
X108242000Y-84500000D01*
X108267262Y-84627000D01*
X107507750Y-84627000D01*
X107349000Y-84785750D01*
X107349000Y-85489909D01*
X107445673Y-85723298D01*
X107624301Y-85901927D01*
X107857690Y-85998600D01*
X107954930Y-85998600D01*
X107847875Y-86070132D01*
X107550550Y-86515111D01*
X107446143Y-87040000D01*
X107550550Y-87564889D01*
X107847875Y-88009868D01*
X108292854Y-88307193D01*
X108306966Y-88310000D01*
X108292854Y-88312807D01*
X107847875Y-88610132D01*
X107550550Y-89055111D01*
X107446143Y-89580000D01*
X107550550Y-90104889D01*
X107847875Y-90549868D01*
X108292854Y-90847193D01*
X108306966Y-90850000D01*
X108292854Y-90852807D01*
X107847875Y-91150132D01*
X107550550Y-91595111D01*
X107446143Y-92120000D01*
X107550550Y-92644889D01*
X107847875Y-93089868D01*
X108292854Y-93387193D01*
X108306966Y-93390000D01*
X108292854Y-93392807D01*
X107847875Y-93690132D01*
X107550550Y-94135111D01*
X107446143Y-94660000D01*
X107550550Y-95184889D01*
X107847875Y-95629868D01*
X108292854Y-95927193D01*
X108306966Y-95930000D01*
X108292854Y-95932807D01*
X107847875Y-96230132D01*
X107550550Y-96675111D01*
X107446143Y-97200000D01*
X107550550Y-97724889D01*
X107847875Y-98169868D01*
X108292854Y-98467193D01*
X108817743Y-98571600D01*
X109182257Y-98571600D01*
X109707146Y-98467193D01*
X110152125Y-98169868D01*
X110449450Y-97724889D01*
X110553857Y-97200000D01*
X110449450Y-96675111D01*
X110152125Y-96230132D01*
X109707146Y-95932807D01*
X109693034Y-95930000D01*
X109707146Y-95927193D01*
X110152125Y-95629868D01*
X110449450Y-95184889D01*
X110553857Y-94660000D01*
X110449450Y-94135111D01*
X110152125Y-93690132D01*
X109707146Y-93392807D01*
X109693034Y-93390000D01*
X109707146Y-93387193D01*
X110152125Y-93089868D01*
X110449450Y-92644889D01*
X110539617Y-92191591D01*
X110592000Y-92243974D01*
X110592000Y-98988498D01*
X110542140Y-99108574D01*
X110541860Y-99430016D01*
X110664611Y-99727097D01*
X110891707Y-99954590D01*
X111188574Y-100077860D01*
X111510016Y-100078140D01*
X111807097Y-99955389D01*
X112034590Y-99728293D01*
X112157860Y-99431426D01*
X112158140Y-99109984D01*
X112108000Y-98988636D01*
X112108000Y-91930000D01*
X112050301Y-91639926D01*
X111885987Y-91394013D01*
X110473907Y-89981933D01*
X110553857Y-89580000D01*
X110449450Y-89055111D01*
X110152125Y-88610132D01*
X109707146Y-88312807D01*
X109693034Y-88310000D01*
X109707146Y-88307193D01*
X110152125Y-88009868D01*
X110449450Y-87564889D01*
X110553857Y-87040000D01*
X110449450Y-86515111D01*
X110152125Y-86070132D01*
X110045070Y-85998600D01*
X110142310Y-85998600D01*
X110375699Y-85901927D01*
X110554327Y-85723298D01*
X110651000Y-85489909D01*
X110651000Y-85258000D01*
X111386026Y-85258000D01*
X114034013Y-87905987D01*
X114279926Y-88070301D01*
X114570000Y-88128000D01*
X134300000Y-88128000D01*
X134590074Y-88070301D01*
X134835987Y-87905987D01*
X138603036Y-84138938D01*
X151041765Y-84138938D01*
X151248072Y-84638240D01*
X151629750Y-85020585D01*
X152128692Y-85227764D01*
X152668938Y-85228235D01*
X153168240Y-85021928D01*
X153550585Y-84640250D01*
X153757764Y-84141308D01*
X153757766Y-84138938D01*
X158041765Y-84138938D01*
X158248072Y-84638240D01*
X158629750Y-85020585D01*
X159128692Y-85227764D01*
X159668938Y-85228235D01*
X160168240Y-85021928D01*
X160550585Y-84640250D01*
X160757764Y-84141308D01*
X160758235Y-83601062D01*
X160551928Y-83101760D01*
X160170250Y-82719415D01*
X159671308Y-82512236D01*
X159131062Y-82511765D01*
X158631760Y-82718072D01*
X158249415Y-83099750D01*
X158042236Y-83598692D01*
X158041765Y-84138938D01*
X153757766Y-84138938D01*
X153758235Y-83601062D01*
X153551928Y-83101760D01*
X153170250Y-82719415D01*
X152671308Y-82512236D01*
X152131062Y-82511765D01*
X151631760Y-82718072D01*
X151249415Y-83099750D01*
X151042236Y-83598692D01*
X151041765Y-84138938D01*
X138603036Y-84138938D01*
X141823974Y-80918000D01*
X155618498Y-80918000D01*
X155738574Y-80967860D01*
X156060016Y-80968140D01*
X156357097Y-80845389D01*
X156584590Y-80618293D01*
X156707860Y-80321426D01*
X156708140Y-79999984D01*
X156585389Y-79702903D01*
X156358293Y-79475410D01*
X156061426Y-79352140D01*
X155739984Y-79351860D01*
X155618636Y-79402000D01*
X141510000Y-79402000D01*
X141219926Y-79459699D01*
X140974013Y-79624013D01*
X133986026Y-86612000D01*
X114883974Y-86612000D01*
X112235987Y-83964013D01*
X111990074Y-83799699D01*
X111700000Y-83742000D01*
X110651000Y-83742000D01*
X110651000Y-83510091D01*
X110554327Y-83276702D01*
X110375699Y-83098073D01*
X110142310Y-83001400D01*
X109285750Y-83001400D01*
X109127000Y-83160150D01*
X109127000Y-83742000D01*
X109000000Y-83742000D01*
X108873000Y-83767262D01*
X108873000Y-83160150D01*
X108714250Y-83001400D01*
X107857690Y-83001400D01*
X107624301Y-83098073D01*
X107445673Y-83276702D01*
X107349000Y-83510091D01*
X107083000Y-83510091D01*
X107083000Y-80305750D01*
X110389000Y-80305750D01*
X110389000Y-81162310D01*
X110485673Y-81395699D01*
X110664302Y-81574327D01*
X110897691Y-81671000D01*
X111754250Y-81671000D01*
X111913000Y-81512250D01*
X111913000Y-80147000D01*
X110547750Y-80147000D01*
X110389000Y-80305750D01*
X107083000Y-80305750D01*
X107083000Y-79857422D01*
X107163355Y-79453450D01*
X107359660Y-79159660D01*
X107653450Y-78963355D01*
X108057422Y-78883000D01*
X110389000Y-78883000D01*
X110389000Y-79734250D01*
M02*
