M48
INCH,TZ
T1C0.013
T2C0.016
T3C0.040
T4C0.067
%
G90
G05
T1
X046850Y-026378
X046850Y-026969
X046850Y-027559
X046850Y-034449
X046850Y-035039
X046850Y-035630
X048425Y-025984
X049016Y-025984
X050394Y-028366
X050827Y-030512
X051543Y-028740
X051543Y-029331
X051654Y-025984
X052244Y-025984
X052835Y-025984
X052835Y-026575
X052835Y-027165
X053150Y-028150
X053150Y-028740
X053150Y-029331
X053177Y-034272
X053740Y-028150
X054331Y-028150
X054331Y-036024
X054921Y-028150
X054921Y-036024
X055512Y-028150
X055512Y-036024
X056102Y-028150
X056102Y-036024
X056693Y-028150
X056693Y-036024
X057283Y-028150
X057283Y-036024
X057677Y-029547
X057677Y-031122
X057677Y-034272
X057874Y-025984
X057874Y-036024
X058465Y-025984
X058465Y-036024
X059055Y-025984
X059055Y-036024
X059339Y-027579
X059339Y-029547
X059339Y-031122
X059339Y-034272
X059646Y-025984
X059646Y-036024
X060236Y-025984
X060236Y-036024
X060827Y-025984
X061417Y-025984
X062008Y-025984
X062598Y-025984
X063189Y-025984
X063780Y-025984
X064685Y-032795
X065748Y-025984
X066339Y-025984
X066929Y-025984
X066929Y-036024
X067520Y-025984
X067520Y-036024
X068110Y-026378
X068110Y-029921
X068110Y-030512
X068110Y-031102
X068110Y-031693
X068110Y-032283
X068110Y-032874
X068110Y-033465
X068110Y-034055
X068110Y-034646
X068110Y-035236
T2
X048622Y-027953
X048622Y-032480
X049213Y-028740
X052297Y-035039
T3
X047638Y-026378
X047638Y-027378
X047638Y-028378
X047638Y-029378
X047638Y-030378
X047638Y-031378
X047638Y-033630
X047638Y-034630
X047638Y-035630
X048638Y-033630
X048638Y-034630
X048638Y-035630
X049787Y-026378
X050787Y-026378
X061142Y-035630
X062142Y-035630
X063142Y-035630
X064142Y-035630
X065142Y-035630
X066142Y-035630
T4
X066142Y-026969
X066142Y-029724
T0
M30
