G04 #@! TF.FileFunction,Copper,L2,Bot,Signal*
%FSLAX46Y46*%
G04 Gerber Fmt 4.6, Leading zero omitted, Abs format (unit mm)*
G04 Created by KiCad (PCBNEW 4.0.2+e4-6225~38~ubuntu15.04.1-stable) date Wed 22 Jun 2016 12:25:28 PM PDT*
%MOMM*%
G01*
G04 APERTURE LIST*
%ADD10C,0.100000*%
%ADD11C,1.998980*%
%ADD12R,1.998980X1.998980*%
%ADD13O,1.501140X2.499360*%
%ADD14R,1.727200X2.032000*%
%ADD15O,1.727200X2.032000*%
%ADD16C,3.000000*%
%ADD17C,0.450000*%
%ADD18C,2.200000*%
%ADD19C,0.600000*%
%ADD20C,2.000000*%
%ADD21C,0.254000*%
G04 APERTURE END LIST*
D10*
D11*
X156160000Y-98997460D03*
D12*
X146000000Y-98997460D03*
D13*
X153000000Y-92510000D03*
X155540000Y-92510000D03*
X150460000Y-92510000D03*
D11*
X147500640Y-103500000D03*
X152501900Y-103500000D03*
D14*
X155540000Y-108130000D03*
D15*
X153000000Y-108130000D03*
X150460000Y-108130000D03*
D16*
X162910000Y-99209000D03*
X162910000Y-103809000D03*
D17*
X161710000Y-99209000D03*
X164110000Y-99209000D03*
X162910000Y-98009000D03*
X162910000Y-100409000D03*
X162061000Y-98360000D03*
X162061000Y-100058000D03*
X163759000Y-100058000D03*
X163759000Y-98360000D03*
X161710000Y-103809000D03*
X164110000Y-103809000D03*
X162910000Y-102609000D03*
X162910000Y-105009000D03*
X162061000Y-104658000D03*
X162061000Y-102960000D03*
X163759000Y-102960000D03*
X163759000Y-104658000D03*
D18*
X178000000Y-94000000D03*
D19*
X130000000Y-100000000D03*
X178000000Y-97800000D03*
X142500000Y-101000000D03*
D20*
X156160000Y-98997460D02*
X156160000Y-93130000D01*
X156160000Y-93130000D02*
X155590000Y-92510000D01*
D21*
G36*
X186188338Y-90371046D02*
X186602333Y-90647669D01*
X186878953Y-91061660D01*
X186990000Y-91619931D01*
X186990000Y-108930069D01*
X186878953Y-109488340D01*
X186602333Y-109902331D01*
X186188338Y-110178954D01*
X185630069Y-110290000D01*
X113169931Y-110290000D01*
X112611660Y-110178953D01*
X112197669Y-109902333D01*
X111921046Y-109488338D01*
X111810000Y-108930069D01*
X111810000Y-107945255D01*
X148961400Y-107945255D01*
X148961400Y-108314745D01*
X149075474Y-108888234D01*
X149400330Y-109374415D01*
X149886511Y-109699271D01*
X150460000Y-109813345D01*
X151033489Y-109699271D01*
X151519670Y-109374415D01*
X151726461Y-109064931D01*
X152097964Y-109480732D01*
X152625209Y-109734709D01*
X152640974Y-109737358D01*
X152873000Y-109616217D01*
X152873000Y-108257000D01*
X152853000Y-108257000D01*
X152853000Y-108003000D01*
X152873000Y-108003000D01*
X152873000Y-106643783D01*
X153127000Y-106643783D01*
X153127000Y-108003000D01*
X153147000Y-108003000D01*
X153147000Y-108257000D01*
X153127000Y-108257000D01*
X153127000Y-109616217D01*
X153359026Y-109737358D01*
X153374791Y-109734709D01*
X153902036Y-109480732D01*
X154058907Y-109305155D01*
X154073238Y-109381317D01*
X154212310Y-109597441D01*
X154424510Y-109742431D01*
X154676400Y-109793440D01*
X156403600Y-109793440D01*
X156638917Y-109749162D01*
X156855041Y-109610090D01*
X157000031Y-109397890D01*
X157051040Y-109146000D01*
X157051040Y-107114000D01*
X157006762Y-106878683D01*
X156867690Y-106662559D01*
X156655490Y-106517569D01*
X156403600Y-106466560D01*
X154676400Y-106466560D01*
X154441083Y-106510838D01*
X154224959Y-106649910D01*
X154079969Y-106862110D01*
X154060768Y-106956927D01*
X153902036Y-106779268D01*
X153374791Y-106525291D01*
X153359026Y-106522642D01*
X153127000Y-106643783D01*
X152873000Y-106643783D01*
X152640974Y-106522642D01*
X152625209Y-106525291D01*
X152097964Y-106779268D01*
X151726461Y-107195069D01*
X151519670Y-106885585D01*
X151033489Y-106560729D01*
X150460000Y-106446655D01*
X149886511Y-106560729D01*
X149400330Y-106885585D01*
X149075474Y-107371766D01*
X148961400Y-107945255D01*
X111810000Y-107945255D01*
X111810000Y-95160000D01*
X112133000Y-95160000D01*
X112133000Y-104840000D01*
X112141685Y-104886159D01*
X112168965Y-104928553D01*
X112210590Y-104956994D01*
X112260000Y-104967000D01*
X126740000Y-104967000D01*
X126786159Y-104958315D01*
X126828553Y-104931035D01*
X126856994Y-104889410D01*
X126867000Y-104840000D01*
X126867000Y-104652163D01*
X146528083Y-104652163D01*
X146626682Y-104918965D01*
X147236222Y-105145401D01*
X147886017Y-105121341D01*
X148374598Y-104918965D01*
X148473197Y-104652163D01*
X147500640Y-103679605D01*
X146528083Y-104652163D01*
X126867000Y-104652163D01*
X126867000Y-103235582D01*
X145855239Y-103235582D01*
X145879299Y-103885377D01*
X146081675Y-104373958D01*
X146348477Y-104472557D01*
X147321035Y-103500000D01*
X147680245Y-103500000D01*
X148652803Y-104472557D01*
X148919605Y-104373958D01*
X149124020Y-103823694D01*
X150867126Y-103823694D01*
X151115438Y-104424655D01*
X151574827Y-104884846D01*
X152175353Y-105134206D01*
X152825594Y-105134774D01*
X153426555Y-104886462D01*
X153886746Y-104427073D01*
X153967824Y-104231815D01*
X160774630Y-104231815D01*
X161098980Y-105016800D01*
X161699041Y-105617909D01*
X162483459Y-105943628D01*
X163332815Y-105944370D01*
X164117800Y-105620020D01*
X164718909Y-105019959D01*
X165044628Y-104235541D01*
X165045370Y-103386185D01*
X164721020Y-102601200D01*
X164120959Y-102000091D01*
X163336541Y-101674372D01*
X162487185Y-101673630D01*
X161702200Y-101997980D01*
X161101091Y-102598041D01*
X160775372Y-103382459D01*
X160774630Y-104231815D01*
X153967824Y-104231815D01*
X154136106Y-103826547D01*
X154136674Y-103176306D01*
X153888362Y-102575345D01*
X153428973Y-102115154D01*
X152828447Y-101865794D01*
X152178206Y-101865226D01*
X151577245Y-102113538D01*
X151117054Y-102572927D01*
X150867694Y-103173453D01*
X150867126Y-103823694D01*
X149124020Y-103823694D01*
X149146041Y-103764418D01*
X149121981Y-103114623D01*
X148919605Y-102626042D01*
X148652803Y-102527443D01*
X147680245Y-103500000D01*
X147321035Y-103500000D01*
X146348477Y-102527443D01*
X146081675Y-102626042D01*
X145855239Y-103235582D01*
X126867000Y-103235582D01*
X126867000Y-102347837D01*
X146528083Y-102347837D01*
X147500640Y-103320395D01*
X148473197Y-102347837D01*
X148374598Y-102081035D01*
X147765058Y-101854599D01*
X147115263Y-101878659D01*
X146626682Y-102081035D01*
X146528083Y-102347837D01*
X126867000Y-102347837D01*
X126867000Y-97997970D01*
X144353070Y-97997970D01*
X144353070Y-99996950D01*
X144397348Y-100232267D01*
X144536420Y-100448391D01*
X144748620Y-100593381D01*
X145000510Y-100644390D01*
X146999490Y-100644390D01*
X147234807Y-100600112D01*
X147450931Y-100461040D01*
X147595921Y-100248840D01*
X147646930Y-99996950D01*
X147646930Y-97997970D01*
X147602652Y-97762653D01*
X147463580Y-97546529D01*
X147251380Y-97401539D01*
X146999490Y-97350530D01*
X145000510Y-97350530D01*
X144765193Y-97394808D01*
X144549069Y-97533880D01*
X144404079Y-97746080D01*
X144353070Y-97997970D01*
X126867000Y-97997970D01*
X126867000Y-95160000D01*
X126858315Y-95113841D01*
X126831035Y-95071447D01*
X126789410Y-95043006D01*
X126740000Y-95033000D01*
X112260000Y-95033000D01*
X112213841Y-95041685D01*
X112171447Y-95068965D01*
X112143006Y-95110590D01*
X112133000Y-95160000D01*
X111810000Y-95160000D01*
X111810000Y-91973967D01*
X149074430Y-91973967D01*
X149074430Y-93046033D01*
X149179900Y-93576268D01*
X149480254Y-94025779D01*
X149929765Y-94326133D01*
X150460000Y-94431603D01*
X150990235Y-94326133D01*
X151439746Y-94025779D01*
X151730000Y-93591384D01*
X152020254Y-94025779D01*
X152469765Y-94326133D01*
X153000000Y-94431603D01*
X153530235Y-94326133D01*
X153979746Y-94025779D01*
X154270000Y-93591384D01*
X154525000Y-93973018D01*
X154525000Y-98997460D01*
X154525507Y-99000006D01*
X154525226Y-99321154D01*
X154648946Y-99620580D01*
X154649457Y-99623147D01*
X154650898Y-99625304D01*
X154773538Y-99922115D01*
X155002423Y-100151400D01*
X155003880Y-100153580D01*
X155006041Y-100155024D01*
X155232927Y-100382306D01*
X155532136Y-100506548D01*
X155534313Y-100508003D01*
X155536859Y-100508509D01*
X155833453Y-100631666D01*
X156157431Y-100631949D01*
X156160000Y-100632460D01*
X156162546Y-100631953D01*
X156483694Y-100632234D01*
X156783120Y-100508514D01*
X156785687Y-100508003D01*
X156787844Y-100506562D01*
X157084655Y-100383922D01*
X157313940Y-100155037D01*
X157316120Y-100153580D01*
X157317564Y-100151419D01*
X157544846Y-99924533D01*
X157666392Y-99631815D01*
X160774630Y-99631815D01*
X161098980Y-100416800D01*
X161699041Y-101017909D01*
X162483459Y-101343628D01*
X163332815Y-101344370D01*
X164117800Y-101020020D01*
X164718909Y-100419959D01*
X165044628Y-99635541D01*
X165045370Y-98786185D01*
X164721020Y-98001200D01*
X164120959Y-97400091D01*
X163336541Y-97074372D01*
X162487185Y-97073630D01*
X161702200Y-97397980D01*
X161101091Y-97998041D01*
X160775372Y-98782459D01*
X160774630Y-99631815D01*
X157666392Y-99631815D01*
X157669088Y-99625324D01*
X157670543Y-99623147D01*
X157671049Y-99620601D01*
X157794206Y-99324007D01*
X157794489Y-99000029D01*
X157795000Y-98997460D01*
X157795000Y-95224868D01*
X176954737Y-95224868D01*
X177065641Y-95502099D01*
X177711593Y-95745323D01*
X178401453Y-95722836D01*
X178934359Y-95502099D01*
X179045263Y-95224868D01*
X178000000Y-94179605D01*
X176954737Y-95224868D01*
X157795000Y-95224868D01*
X157795000Y-93711593D01*
X176254677Y-93711593D01*
X176277164Y-94401453D01*
X176497901Y-94934359D01*
X176775132Y-95045263D01*
X177820395Y-94000000D01*
X178179605Y-94000000D01*
X179224868Y-95045263D01*
X179502099Y-94934359D01*
X179745323Y-94288407D01*
X179722836Y-93598547D01*
X179502099Y-93065641D01*
X179224868Y-92954737D01*
X178179605Y-94000000D01*
X177820395Y-94000000D01*
X176775132Y-92954737D01*
X176497901Y-93065641D01*
X176254677Y-93711593D01*
X157795000Y-93711593D01*
X157795000Y-93130000D01*
X157739345Y-92850203D01*
X157727665Y-92775132D01*
X176954737Y-92775132D01*
X178000000Y-93820395D01*
X179045263Y-92775132D01*
X178934359Y-92497901D01*
X178288407Y-92254677D01*
X177598547Y-92277164D01*
X177065641Y-92497901D01*
X176954737Y-92775132D01*
X157727665Y-92775132D01*
X157695478Y-92568276D01*
X157677344Y-92538502D01*
X157670543Y-92504313D01*
X157512038Y-92267093D01*
X157363634Y-92023434D01*
X156793634Y-91403433D01*
X156792733Y-91402775D01*
X156519746Y-90994221D01*
X156070235Y-90693867D01*
X155540000Y-90588397D01*
X155009765Y-90693867D01*
X154560254Y-90994221D01*
X154270000Y-91428616D01*
X153979746Y-90994221D01*
X153530235Y-90693867D01*
X153000000Y-90588397D01*
X152469765Y-90693867D01*
X152020254Y-90994221D01*
X151730000Y-91428616D01*
X151439746Y-90994221D01*
X150990235Y-90693867D01*
X150460000Y-90588397D01*
X149929765Y-90693867D01*
X149480254Y-90994221D01*
X149179900Y-91443732D01*
X149074430Y-91973967D01*
X111810000Y-91973967D01*
X111810000Y-91619931D01*
X111921046Y-91061662D01*
X112197669Y-90647667D01*
X112611660Y-90371047D01*
X113169931Y-90260000D01*
X185630069Y-90260000D01*
X186188338Y-90371046D01*
X186188338Y-90371046D01*
G37*
X186188338Y-90371046D02*
X186602333Y-90647669D01*
X186878953Y-91061660D01*
X186990000Y-91619931D01*
X186990000Y-108930069D01*
X186878953Y-109488340D01*
X186602333Y-109902331D01*
X186188338Y-110178954D01*
X185630069Y-110290000D01*
X113169931Y-110290000D01*
X112611660Y-110178953D01*
X112197669Y-109902333D01*
X111921046Y-109488338D01*
X111810000Y-108930069D01*
X111810000Y-107945255D01*
X148961400Y-107945255D01*
X148961400Y-108314745D01*
X149075474Y-108888234D01*
X149400330Y-109374415D01*
X149886511Y-109699271D01*
X150460000Y-109813345D01*
X151033489Y-109699271D01*
X151519670Y-109374415D01*
X151726461Y-109064931D01*
X152097964Y-109480732D01*
X152625209Y-109734709D01*
X152640974Y-109737358D01*
X152873000Y-109616217D01*
X152873000Y-108257000D01*
X152853000Y-108257000D01*
X152853000Y-108003000D01*
X152873000Y-108003000D01*
X152873000Y-106643783D01*
X153127000Y-106643783D01*
X153127000Y-108003000D01*
X153147000Y-108003000D01*
X153147000Y-108257000D01*
X153127000Y-108257000D01*
X153127000Y-109616217D01*
X153359026Y-109737358D01*
X153374791Y-109734709D01*
X153902036Y-109480732D01*
X154058907Y-109305155D01*
X154073238Y-109381317D01*
X154212310Y-109597441D01*
X154424510Y-109742431D01*
X154676400Y-109793440D01*
X156403600Y-109793440D01*
X156638917Y-109749162D01*
X156855041Y-109610090D01*
X157000031Y-109397890D01*
X157051040Y-109146000D01*
X157051040Y-107114000D01*
X157006762Y-106878683D01*
X156867690Y-106662559D01*
X156655490Y-106517569D01*
X156403600Y-106466560D01*
X154676400Y-106466560D01*
X154441083Y-106510838D01*
X154224959Y-106649910D01*
X154079969Y-106862110D01*
X154060768Y-106956927D01*
X153902036Y-106779268D01*
X153374791Y-106525291D01*
X153359026Y-106522642D01*
X153127000Y-106643783D01*
X152873000Y-106643783D01*
X152640974Y-106522642D01*
X152625209Y-106525291D01*
X152097964Y-106779268D01*
X151726461Y-107195069D01*
X151519670Y-106885585D01*
X151033489Y-106560729D01*
X150460000Y-106446655D01*
X149886511Y-106560729D01*
X149400330Y-106885585D01*
X149075474Y-107371766D01*
X148961400Y-107945255D01*
X111810000Y-107945255D01*
X111810000Y-95160000D01*
X112133000Y-95160000D01*
X112133000Y-104840000D01*
X112141685Y-104886159D01*
X112168965Y-104928553D01*
X112210590Y-104956994D01*
X112260000Y-104967000D01*
X126740000Y-104967000D01*
X126786159Y-104958315D01*
X126828553Y-104931035D01*
X126856994Y-104889410D01*
X126867000Y-104840000D01*
X126867000Y-104652163D01*
X146528083Y-104652163D01*
X146626682Y-104918965D01*
X147236222Y-105145401D01*
X147886017Y-105121341D01*
X148374598Y-104918965D01*
X148473197Y-104652163D01*
X147500640Y-103679605D01*
X146528083Y-104652163D01*
X126867000Y-104652163D01*
X126867000Y-103235582D01*
X145855239Y-103235582D01*
X145879299Y-103885377D01*
X146081675Y-104373958D01*
X146348477Y-104472557D01*
X147321035Y-103500000D01*
X147680245Y-103500000D01*
X148652803Y-104472557D01*
X148919605Y-104373958D01*
X149124020Y-103823694D01*
X150867126Y-103823694D01*
X151115438Y-104424655D01*
X151574827Y-104884846D01*
X152175353Y-105134206D01*
X152825594Y-105134774D01*
X153426555Y-104886462D01*
X153886746Y-104427073D01*
X153967824Y-104231815D01*
X160774630Y-104231815D01*
X161098980Y-105016800D01*
X161699041Y-105617909D01*
X162483459Y-105943628D01*
X163332815Y-105944370D01*
X164117800Y-105620020D01*
X164718909Y-105019959D01*
X165044628Y-104235541D01*
X165045370Y-103386185D01*
X164721020Y-102601200D01*
X164120959Y-102000091D01*
X163336541Y-101674372D01*
X162487185Y-101673630D01*
X161702200Y-101997980D01*
X161101091Y-102598041D01*
X160775372Y-103382459D01*
X160774630Y-104231815D01*
X153967824Y-104231815D01*
X154136106Y-103826547D01*
X154136674Y-103176306D01*
X153888362Y-102575345D01*
X153428973Y-102115154D01*
X152828447Y-101865794D01*
X152178206Y-101865226D01*
X151577245Y-102113538D01*
X151117054Y-102572927D01*
X150867694Y-103173453D01*
X150867126Y-103823694D01*
X149124020Y-103823694D01*
X149146041Y-103764418D01*
X149121981Y-103114623D01*
X148919605Y-102626042D01*
X148652803Y-102527443D01*
X147680245Y-103500000D01*
X147321035Y-103500000D01*
X146348477Y-102527443D01*
X146081675Y-102626042D01*
X145855239Y-103235582D01*
X126867000Y-103235582D01*
X126867000Y-102347837D01*
X146528083Y-102347837D01*
X147500640Y-103320395D01*
X148473197Y-102347837D01*
X148374598Y-102081035D01*
X147765058Y-101854599D01*
X147115263Y-101878659D01*
X146626682Y-102081035D01*
X146528083Y-102347837D01*
X126867000Y-102347837D01*
X126867000Y-97997970D01*
X144353070Y-97997970D01*
X144353070Y-99996950D01*
X144397348Y-100232267D01*
X144536420Y-100448391D01*
X144748620Y-100593381D01*
X145000510Y-100644390D01*
X146999490Y-100644390D01*
X147234807Y-100600112D01*
X147450931Y-100461040D01*
X147595921Y-100248840D01*
X147646930Y-99996950D01*
X147646930Y-97997970D01*
X147602652Y-97762653D01*
X147463580Y-97546529D01*
X147251380Y-97401539D01*
X146999490Y-97350530D01*
X145000510Y-97350530D01*
X144765193Y-97394808D01*
X144549069Y-97533880D01*
X144404079Y-97746080D01*
X144353070Y-97997970D01*
X126867000Y-97997970D01*
X126867000Y-95160000D01*
X126858315Y-95113841D01*
X126831035Y-95071447D01*
X126789410Y-95043006D01*
X126740000Y-95033000D01*
X112260000Y-95033000D01*
X112213841Y-95041685D01*
X112171447Y-95068965D01*
X112143006Y-95110590D01*
X112133000Y-95160000D01*
X111810000Y-95160000D01*
X111810000Y-91973967D01*
X149074430Y-91973967D01*
X149074430Y-93046033D01*
X149179900Y-93576268D01*
X149480254Y-94025779D01*
X149929765Y-94326133D01*
X150460000Y-94431603D01*
X150990235Y-94326133D01*
X151439746Y-94025779D01*
X151730000Y-93591384D01*
X152020254Y-94025779D01*
X152469765Y-94326133D01*
X153000000Y-94431603D01*
X153530235Y-94326133D01*
X153979746Y-94025779D01*
X154270000Y-93591384D01*
X154525000Y-93973018D01*
X154525000Y-98997460D01*
X154525507Y-99000006D01*
X154525226Y-99321154D01*
X154648946Y-99620580D01*
X154649457Y-99623147D01*
X154650898Y-99625304D01*
X154773538Y-99922115D01*
X155002423Y-100151400D01*
X155003880Y-100153580D01*
X155006041Y-100155024D01*
X155232927Y-100382306D01*
X155532136Y-100506548D01*
X155534313Y-100508003D01*
X155536859Y-100508509D01*
X155833453Y-100631666D01*
X156157431Y-100631949D01*
X156160000Y-100632460D01*
X156162546Y-100631953D01*
X156483694Y-100632234D01*
X156783120Y-100508514D01*
X156785687Y-100508003D01*
X156787844Y-100506562D01*
X157084655Y-100383922D01*
X157313940Y-100155037D01*
X157316120Y-100153580D01*
X157317564Y-100151419D01*
X157544846Y-99924533D01*
X157666392Y-99631815D01*
X160774630Y-99631815D01*
X161098980Y-100416800D01*
X161699041Y-101017909D01*
X162483459Y-101343628D01*
X163332815Y-101344370D01*
X164117800Y-101020020D01*
X164718909Y-100419959D01*
X165044628Y-99635541D01*
X165045370Y-98786185D01*
X164721020Y-98001200D01*
X164120959Y-97400091D01*
X163336541Y-97074372D01*
X162487185Y-97073630D01*
X161702200Y-97397980D01*
X161101091Y-97998041D01*
X160775372Y-98782459D01*
X160774630Y-99631815D01*
X157666392Y-99631815D01*
X157669088Y-99625324D01*
X157670543Y-99623147D01*
X157671049Y-99620601D01*
X157794206Y-99324007D01*
X157794489Y-99000029D01*
X157795000Y-98997460D01*
X157795000Y-95224868D01*
X176954737Y-95224868D01*
X177065641Y-95502099D01*
X177711593Y-95745323D01*
X178401453Y-95722836D01*
X178934359Y-95502099D01*
X179045263Y-95224868D01*
X178000000Y-94179605D01*
X176954737Y-95224868D01*
X157795000Y-95224868D01*
X157795000Y-93711593D01*
X176254677Y-93711593D01*
X176277164Y-94401453D01*
X176497901Y-94934359D01*
X176775132Y-95045263D01*
X177820395Y-94000000D01*
X178179605Y-94000000D01*
X179224868Y-95045263D01*
X179502099Y-94934359D01*
X179745323Y-94288407D01*
X179722836Y-93598547D01*
X179502099Y-93065641D01*
X179224868Y-92954737D01*
X178179605Y-94000000D01*
X177820395Y-94000000D01*
X176775132Y-92954737D01*
X176497901Y-93065641D01*
X176254677Y-93711593D01*
X157795000Y-93711593D01*
X157795000Y-93130000D01*
X157739345Y-92850203D01*
X157727665Y-92775132D01*
X176954737Y-92775132D01*
X178000000Y-93820395D01*
X179045263Y-92775132D01*
X178934359Y-92497901D01*
X178288407Y-92254677D01*
X177598547Y-92277164D01*
X177065641Y-92497901D01*
X176954737Y-92775132D01*
X157727665Y-92775132D01*
X157695478Y-92568276D01*
X157677344Y-92538502D01*
X157670543Y-92504313D01*
X157512038Y-92267093D01*
X157363634Y-92023434D01*
X156793634Y-91403433D01*
X156792733Y-91402775D01*
X156519746Y-90994221D01*
X156070235Y-90693867D01*
X155540000Y-90588397D01*
X155009765Y-90693867D01*
X154560254Y-90994221D01*
X154270000Y-91428616D01*
X153979746Y-90994221D01*
X153530235Y-90693867D01*
X153000000Y-90588397D01*
X152469765Y-90693867D01*
X152020254Y-90994221D01*
X151730000Y-91428616D01*
X151439746Y-90994221D01*
X150990235Y-90693867D01*
X150460000Y-90588397D01*
X149929765Y-90693867D01*
X149480254Y-90994221D01*
X149179900Y-91443732D01*
X149074430Y-91973967D01*
X111810000Y-91973967D01*
X111810000Y-91619931D01*
X111921046Y-91061662D01*
X112197669Y-90647667D01*
X112611660Y-90371047D01*
X113169931Y-90260000D01*
X185630069Y-90260000D01*
X186188338Y-90371046D01*
M02*
