G04 #@! TF.FileFunction,Soldermask,Top*
%FSLAX46Y46*%
G04 Gerber Fmt 4.6, Leading zero omitted, Abs format (unit mm)*
G04 Created by KiCad (PCBNEW 4.0.2+e4-6225~38~ubuntu15.04.1-stable) date Wed 22 Jun 2016 12:46:51 PM PDT*
%MOMM*%
G01*
G04 APERTURE LIST*
%ADD10C,0.100000*%
%ADD11R,2.000200X3.999180*%
%ADD12R,2.830000X2.770000*%
%ADD13C,2.398980*%
%ADD14R,2.398980X2.398980*%
%ADD15R,1.310000X1.620000*%
%ADD16R,1.197560X1.197560*%
%ADD17R,1.540460X2.429460*%
%ADD18O,13.610000X1.920000*%
%ADD19O,1.901140X2.899360*%
%ADD20R,1.300000X0.900000*%
%ADD21R,3.700000X2.100000*%
%ADD22R,2.100000X3.700000*%
%ADD23R,0.908000X1.543000*%
%ADD24R,2.127200X2.432000*%
%ADD25O,2.127200X2.432000*%
%ADD26C,3.400000*%
%ADD27C,2.600000*%
%ADD28R,4.300000X6.600000*%
%ADD29R,3.700000X4.800000*%
G04 APERTURE END LIST*
D10*
D11*
X136570000Y-92779180D03*
X136570000Y-98280820D03*
D12*
X135450000Y-102160000D03*
X135450000Y-108400000D03*
D13*
X156160000Y-98997460D03*
D14*
X146000000Y-98997460D03*
D15*
X127895000Y-94160000D03*
X131165000Y-94160000D03*
D16*
X140500000Y-109229300D03*
X140500000Y-107730700D03*
D17*
X143703960Y-92779180D03*
X141296040Y-92779180D03*
D18*
X119500000Y-94160000D03*
X119500000Y-105840000D03*
D19*
X153000000Y-92510000D03*
X155540000Y-92510000D03*
X150460000Y-92510000D03*
D20*
X140500000Y-105750000D03*
X140500000Y-104250000D03*
D21*
X142500000Y-101000000D03*
D22*
X146000000Y-92779180D03*
D21*
X142500000Y-97000000D03*
X145000000Y-108850000D03*
D23*
X128095000Y-96825000D03*
X129365000Y-96825000D03*
X130635000Y-96825000D03*
X131905000Y-96825000D03*
X131905000Y-103175000D03*
X130635000Y-103175000D03*
X129365000Y-103175000D03*
X128095000Y-103175000D03*
D13*
X147500640Y-103500000D03*
X152501900Y-103500000D03*
D24*
X155540000Y-108130000D03*
D25*
X153000000Y-108130000D03*
X150460000Y-108130000D03*
D26*
X162910000Y-99209000D03*
X162910000Y-103809000D03*
D27*
X178000000Y-94000000D03*
D28*
X171550000Y-97800000D03*
X184450000Y-97800000D03*
D29*
X177000000Y-106800000D03*
M02*
