M48
INCH,TZ
T1C0.016
T2C0.039
T3C0.040
T4C0.050
T5C0.065
T6C0.079
%
G90
G05
T1
X051181Y-039370
X056102Y-039764
X063665Y-039059
X063665Y-040870
X063804Y-038724
X063804Y-039393
X063804Y-040535
X063804Y-041204
X064138Y-038586
X064138Y-039531
X064138Y-040397
X064138Y-041342
X064472Y-038724
X064472Y-039393
X064472Y-040535
X064472Y-041204
X064610Y-039059
X064610Y-040870
X070079Y-038504
T2
X057480Y-038975
X058071Y-040748
X059236Y-036421
X060040Y-040748
X060236Y-036421
X061236Y-036421
T3
X059236Y-042571
X060236Y-042571
X061236Y-042571
T4
X061480Y-038975
T5
X064138Y-039059
X064138Y-040870
T6
X070079Y-037008
T0
M30
