G04 #@! TF.FileFunction,Legend,Top*
%FSLAX46Y46*%
G04 Gerber Fmt 4.6, Leading zero omitted, Abs format (unit mm)*
G04 Created by KiCad (PCBNEW 4.0.2+e4-6225~38~ubuntu15.04.1-stable) date Sat 11 Jun 2016 05:42:22 PM PDT*
%MOMM*%
G01*
G04 APERTURE LIST*
%ADD10C,0.100000*%
%ADD11C,0.200000*%
%ADD12C,0.300000*%
%ADD13C,0.150000*%
%ADD14C,0.127000*%
G04 APERTURE END LIST*
D10*
D11*
X128196119Y-101900000D02*
G75*
G03X128196119Y-101900000I-101119J0D01*
G01*
D12*
X112800000Y-92228571D02*
X112800000Y-90728571D01*
X113657143Y-92228571D01*
X113657143Y-90728571D01*
X114657143Y-90728571D02*
X114942857Y-90728571D01*
X115085715Y-90800000D01*
X115228572Y-90942857D01*
X115300000Y-91228571D01*
X115300000Y-91728571D01*
X115228572Y-92014286D01*
X115085715Y-92157143D01*
X114942857Y-92228571D01*
X114657143Y-92228571D01*
X114514286Y-92157143D01*
X114371429Y-92014286D01*
X114300000Y-91728571D01*
X114300000Y-91228571D01*
X114371429Y-90942857D01*
X114514286Y-90800000D01*
X114657143Y-90728571D01*
X116800001Y-92085714D02*
X116728572Y-92157143D01*
X116514286Y-92228571D01*
X116371429Y-92228571D01*
X116157144Y-92157143D01*
X116014286Y-92014286D01*
X115942858Y-91871429D01*
X115871429Y-91585714D01*
X115871429Y-91371429D01*
X115942858Y-91085714D01*
X116014286Y-90942857D01*
X116157144Y-90800000D01*
X116371429Y-90728571D01*
X116514286Y-90728571D01*
X116728572Y-90800000D01*
X116800001Y-90871429D01*
X117228572Y-90728571D02*
X118085715Y-90728571D01*
X117657144Y-92228571D02*
X117657144Y-90728571D01*
X118585715Y-92228571D02*
X118585715Y-90728571D01*
X119085715Y-90728571D02*
X119585715Y-92228571D01*
X120085715Y-90728571D01*
X120871429Y-90728571D02*
X121157143Y-90728571D01*
X121300001Y-90800000D01*
X121442858Y-90942857D01*
X121514286Y-91228571D01*
X121514286Y-91728571D01*
X121442858Y-92014286D01*
X121300001Y-92157143D01*
X121157143Y-92228571D01*
X120871429Y-92228571D01*
X120728572Y-92157143D01*
X120585715Y-92014286D01*
X120514286Y-91728571D01*
X120514286Y-91228571D01*
X120585715Y-90942857D01*
X120728572Y-90800000D01*
X120871429Y-90728571D01*
X123014287Y-92228571D02*
X122514287Y-91514286D01*
X122157144Y-92228571D02*
X122157144Y-90728571D01*
X122728572Y-90728571D01*
X122871430Y-90800000D01*
X122942858Y-90871429D01*
X123014287Y-91014286D01*
X123014287Y-91228571D01*
X122942858Y-91371429D01*
X122871430Y-91442857D01*
X122728572Y-91514286D01*
X122157144Y-91514286D01*
X123657144Y-91442857D02*
X124157144Y-91442857D01*
X124371430Y-92228571D02*
X123657144Y-92228571D01*
X123657144Y-90728571D01*
X124371430Y-90728571D01*
X112807143Y-109748571D02*
X112807143Y-108248571D01*
X113164286Y-108248571D01*
X113378571Y-108320000D01*
X113521429Y-108462857D01*
X113592857Y-108605714D01*
X113664286Y-108891429D01*
X113664286Y-109105714D01*
X113592857Y-109391429D01*
X113521429Y-109534286D01*
X113378571Y-109677143D01*
X113164286Y-109748571D01*
X112807143Y-109748571D01*
X114878571Y-109677143D02*
X114735714Y-109748571D01*
X114450000Y-109748571D01*
X114307143Y-109677143D01*
X114235714Y-109534286D01*
X114235714Y-108962857D01*
X114307143Y-108820000D01*
X114450000Y-108748571D01*
X114735714Y-108748571D01*
X114878571Y-108820000D01*
X114950000Y-108962857D01*
X114950000Y-109105714D01*
X114235714Y-109248571D01*
X115521428Y-109677143D02*
X115664285Y-109748571D01*
X115950000Y-109748571D01*
X116092857Y-109677143D01*
X116164285Y-109534286D01*
X116164285Y-109462857D01*
X116092857Y-109320000D01*
X115950000Y-109248571D01*
X115735714Y-109248571D01*
X115592857Y-109177143D01*
X115521428Y-109034286D01*
X115521428Y-108962857D01*
X115592857Y-108820000D01*
X115735714Y-108748571D01*
X115950000Y-108748571D01*
X116092857Y-108820000D01*
X116807143Y-109748571D02*
X116807143Y-108748571D01*
X116807143Y-108248571D02*
X116735714Y-108320000D01*
X116807143Y-108391429D01*
X116878571Y-108320000D01*
X116807143Y-108248571D01*
X116807143Y-108391429D01*
X118164286Y-108748571D02*
X118164286Y-109962857D01*
X118092857Y-110105714D01*
X118021429Y-110177143D01*
X117878572Y-110248571D01*
X117664286Y-110248571D01*
X117521429Y-110177143D01*
X118164286Y-109677143D02*
X118021429Y-109748571D01*
X117735715Y-109748571D01*
X117592857Y-109677143D01*
X117521429Y-109605714D01*
X117450000Y-109462857D01*
X117450000Y-109034286D01*
X117521429Y-108891429D01*
X117592857Y-108820000D01*
X117735715Y-108748571D01*
X118021429Y-108748571D01*
X118164286Y-108820000D01*
X118878572Y-108748571D02*
X118878572Y-109748571D01*
X118878572Y-108891429D02*
X118950000Y-108820000D01*
X119092858Y-108748571D01*
X119307143Y-108748571D01*
X119450000Y-108820000D01*
X119521429Y-108962857D01*
X119521429Y-109748571D01*
X120807143Y-109677143D02*
X120664286Y-109748571D01*
X120378572Y-109748571D01*
X120235715Y-109677143D01*
X120164286Y-109534286D01*
X120164286Y-108962857D01*
X120235715Y-108820000D01*
X120378572Y-108748571D01*
X120664286Y-108748571D01*
X120807143Y-108820000D01*
X120878572Y-108962857D01*
X120878572Y-109105714D01*
X120164286Y-109248571D01*
X122164286Y-109748571D02*
X122164286Y-108248571D01*
X122164286Y-109677143D02*
X122021429Y-109748571D01*
X121735715Y-109748571D01*
X121592857Y-109677143D01*
X121521429Y-109605714D01*
X121450000Y-109462857D01*
X121450000Y-109034286D01*
X121521429Y-108891429D01*
X121592857Y-108820000D01*
X121735715Y-108748571D01*
X122021429Y-108748571D01*
X122164286Y-108820000D01*
X124021429Y-109748571D02*
X124021429Y-108248571D01*
X124021429Y-108820000D02*
X124164286Y-108748571D01*
X124450000Y-108748571D01*
X124592857Y-108820000D01*
X124664286Y-108891429D01*
X124735715Y-109034286D01*
X124735715Y-109462857D01*
X124664286Y-109605714D01*
X124592857Y-109677143D01*
X124450000Y-109748571D01*
X124164286Y-109748571D01*
X124021429Y-109677143D01*
X125235715Y-108748571D02*
X125592858Y-109748571D01*
X125950000Y-108748571D02*
X125592858Y-109748571D01*
X125450000Y-110105714D01*
X125378572Y-110177143D01*
X125235715Y-110248571D01*
X127950000Y-108248571D02*
X128235714Y-108248571D01*
X128378572Y-108320000D01*
X128521429Y-108462857D01*
X128592857Y-108748571D01*
X128592857Y-109248571D01*
X128521429Y-109534286D01*
X128378572Y-109677143D01*
X128235714Y-109748571D01*
X127950000Y-109748571D01*
X127807143Y-109677143D01*
X127664286Y-109534286D01*
X127592857Y-109248571D01*
X127592857Y-108748571D01*
X127664286Y-108462857D01*
X127807143Y-108320000D01*
X127950000Y-108248571D01*
X129235715Y-108748571D02*
X129235715Y-110248571D01*
X129235715Y-108820000D02*
X129378572Y-108748571D01*
X129664286Y-108748571D01*
X129807143Y-108820000D01*
X129878572Y-108891429D01*
X129950001Y-109034286D01*
X129950001Y-109462857D01*
X129878572Y-109605714D01*
X129807143Y-109677143D01*
X129664286Y-109748571D01*
X129378572Y-109748571D01*
X129235715Y-109677143D01*
X130521429Y-109677143D02*
X130664286Y-109748571D01*
X130950001Y-109748571D01*
X131092858Y-109677143D01*
X131164286Y-109534286D01*
X131164286Y-109462857D01*
X131092858Y-109320000D01*
X130950001Y-109248571D01*
X130735715Y-109248571D01*
X130592858Y-109177143D01*
X130521429Y-109034286D01*
X130521429Y-108962857D01*
X130592858Y-108820000D01*
X130735715Y-108748571D01*
X130950001Y-108748571D01*
X131092858Y-108820000D01*
D13*
X135808000Y-98451000D02*
X137332000Y-98451000D01*
X137713000Y-98324000D02*
X135427000Y-98324000D01*
X135173000Y-98197000D02*
X137967000Y-98197000D01*
X138221000Y-98070000D02*
X134919000Y-98070000D01*
X134792000Y-97943000D02*
X138348000Y-97943000D01*
X133268000Y-98832000D02*
X139872000Y-98832000D01*
X139872000Y-98832000D02*
X139872000Y-92990000D01*
X139872000Y-92990000D02*
X139110000Y-92228000D01*
X139110000Y-92228000D02*
X134030000Y-92228000D01*
X134030000Y-92228000D02*
X133268000Y-92990000D01*
X133268000Y-92990000D02*
X133268000Y-98832000D01*
X136570000Y-93371000D02*
X136570000Y-94133000D01*
X136189000Y-93752000D02*
X136951000Y-93752000D01*
X139618000Y-95530000D02*
G75*
G03X139618000Y-95530000I-3048000J0D01*
G01*
X137650000Y-109480000D02*
X137650000Y-101480000D01*
X133250000Y-101480000D02*
X133250000Y-109580000D01*
X153620000Y-98997460D02*
X154636000Y-98997460D01*
X148794000Y-98997460D02*
X147524000Y-98997460D01*
X149048000Y-97727460D02*
X149048000Y-100267460D01*
X149302000Y-97727460D02*
X149302000Y-100267460D01*
X149556000Y-97727460D02*
X149556000Y-100267460D01*
X148794000Y-97727460D02*
X148794000Y-100267460D01*
X149810000Y-97727460D02*
X148540000Y-100267460D01*
X148540000Y-97727460D02*
X149810000Y-100267460D01*
X149810000Y-97727460D02*
X149810000Y-100267460D01*
X149175000Y-97727460D02*
X149175000Y-100267460D01*
X148540000Y-100267460D02*
X148540000Y-97727460D01*
X148540000Y-97727460D02*
X153620000Y-97727460D01*
X153620000Y-97727460D02*
X153620000Y-100267460D01*
X153620000Y-100267460D02*
X148540000Y-100267460D01*
X129847500Y-94160000D02*
X130228500Y-94160000D01*
X128831500Y-94160000D02*
X129212500Y-94160000D01*
X129212500Y-94160000D02*
X129847500Y-93779000D01*
X129847500Y-93779000D02*
X129847500Y-94541000D01*
X129847500Y-94541000D02*
X129212500Y-94160000D01*
X129212500Y-93652000D02*
X129212500Y-94668000D01*
X127530000Y-95060000D02*
X131070000Y-95060000D01*
X127530000Y-93260000D02*
X131070000Y-93260000D01*
X139950000Y-107380000D02*
X139950000Y-109280000D01*
X141050000Y-107380000D02*
X141050000Y-109280000D01*
X140500000Y-108280000D02*
X140500000Y-108730000D01*
X140750000Y-108230000D02*
X140250000Y-108230000D01*
X140500000Y-108230000D02*
X140750000Y-108480000D01*
X140750000Y-108480000D02*
X140250000Y-108480000D01*
X140250000Y-108480000D02*
X140500000Y-108230000D01*
D14*
X112260000Y-92825000D02*
X126740000Y-92825000D01*
X112260000Y-107175000D02*
X112260000Y-92825000D01*
X126740000Y-107175000D02*
X112260000Y-107175000D01*
X126740000Y-92825000D02*
X126740000Y-107175000D01*
D13*
X154524000Y-95558000D02*
X154524000Y-94415000D01*
X151476000Y-95558000D02*
X151476000Y-94415000D01*
X147666000Y-94415000D02*
X147666000Y-90732000D01*
X147666000Y-90732000D02*
X158334000Y-90732000D01*
X158334000Y-90732000D02*
X158334000Y-94415000D01*
X147666000Y-95558000D02*
X147666000Y-94415000D01*
X147666000Y-94415000D02*
X158334000Y-94415000D01*
X158334000Y-94415000D02*
X158334000Y-95558000D01*
X153000000Y-95558000D02*
X158334000Y-95558000D01*
X153000000Y-95558000D02*
X147666000Y-95558000D01*
X141175000Y-104500000D02*
X141175000Y-105500000D01*
X139825000Y-105500000D02*
X139825000Y-104500000D01*
X127460000Y-97714000D02*
X132540000Y-97714000D01*
X132540000Y-97714000D02*
X132540000Y-102286000D01*
X132540000Y-102286000D02*
X127460000Y-102286000D01*
X127460000Y-102286000D02*
X127460000Y-97714000D01*
X127460000Y-99238000D02*
X127968000Y-99238000D01*
X127968000Y-99238000D02*
X127968000Y-100508000D01*
X127968000Y-100508000D02*
X127460000Y-100508000D01*
X149900940Y-103500000D02*
X150901700Y-103500000D01*
X150000000Y-103500000D02*
G75*
G03X150000000Y-103500000I-2499360J0D01*
G01*
X154270000Y-106860000D02*
X149190000Y-106860000D01*
X149190000Y-106860000D02*
X149190000Y-109400000D01*
X149190000Y-109400000D02*
X154270000Y-109400000D01*
X157090000Y-109680000D02*
X155540000Y-109680000D01*
X154270000Y-109400000D02*
X154270000Y-106860000D01*
X155540000Y-106580000D02*
X157090000Y-106580000D01*
X157090000Y-106580000D02*
X157090000Y-109680000D01*
D14*
X169080000Y-107184000D02*
X158920000Y-107184000D01*
X169080000Y-91234000D02*
X169080000Y-107184000D01*
X158920000Y-91234000D02*
X169080000Y-91234000D01*
X158920000Y-107184000D02*
X158920000Y-91234000D01*
X182500000Y-105500000D02*
X182500000Y-91000000D01*
X173500000Y-105500000D02*
X182500000Y-105500000D01*
X173500000Y-91000000D02*
X173500000Y-105500000D01*
X182500000Y-91000000D02*
X173500000Y-91000000D01*
D13*
X132609143Y-95696666D02*
X132656762Y-95744285D01*
X132704381Y-95887142D01*
X132704381Y-95982380D01*
X132656762Y-96125238D01*
X132561524Y-96220476D01*
X132466286Y-96268095D01*
X132275810Y-96315714D01*
X132132952Y-96315714D01*
X131942476Y-96268095D01*
X131847238Y-96220476D01*
X131752000Y-96125238D01*
X131704381Y-95982380D01*
X131704381Y-95887142D01*
X131752000Y-95744285D01*
X131799619Y-95696666D01*
X132704381Y-94744285D02*
X132704381Y-95315714D01*
X132704381Y-95030000D02*
X131704381Y-95030000D01*
X131847238Y-95125238D01*
X131942476Y-95220476D01*
X131990095Y-95315714D01*
X131583334Y-105637143D02*
X131535715Y-105684762D01*
X131392858Y-105732381D01*
X131297620Y-105732381D01*
X131154762Y-105684762D01*
X131059524Y-105589524D01*
X131011905Y-105494286D01*
X130964286Y-105303810D01*
X130964286Y-105160952D01*
X131011905Y-104970476D01*
X131059524Y-104875238D01*
X131154762Y-104780000D01*
X131297620Y-104732381D01*
X131392858Y-104732381D01*
X131535715Y-104780000D01*
X131583334Y-104827619D01*
X131964286Y-104827619D02*
X132011905Y-104780000D01*
X132107143Y-104732381D01*
X132345239Y-104732381D01*
X132440477Y-104780000D01*
X132488096Y-104827619D01*
X132535715Y-104922857D01*
X132535715Y-105018095D01*
X132488096Y-105160952D01*
X131916667Y-105732381D01*
X132535715Y-105732381D01*
X150911905Y-99452381D02*
X150911905Y-98452381D01*
X151150000Y-98452381D01*
X151292858Y-98500000D01*
X151388096Y-98595238D01*
X151435715Y-98690476D01*
X151483334Y-98880952D01*
X151483334Y-99023810D01*
X151435715Y-99214286D01*
X151388096Y-99309524D01*
X151292858Y-99404762D01*
X151150000Y-99452381D01*
X150911905Y-99452381D01*
X152435715Y-99452381D02*
X151864286Y-99452381D01*
X152150000Y-99452381D02*
X152150000Y-98452381D01*
X152054762Y-98595238D01*
X151959524Y-98690476D01*
X151864286Y-98738095D01*
X128791905Y-92612381D02*
X128791905Y-91612381D01*
X129030000Y-91612381D01*
X129172858Y-91660000D01*
X129268096Y-91755238D01*
X129315715Y-91850476D01*
X129363334Y-92040952D01*
X129363334Y-92183810D01*
X129315715Y-92374286D01*
X129268096Y-92469524D01*
X129172858Y-92564762D01*
X129030000Y-92612381D01*
X128791905Y-92612381D01*
X129744286Y-91707619D02*
X129791905Y-91660000D01*
X129887143Y-91612381D01*
X130125239Y-91612381D01*
X130220477Y-91660000D01*
X130268096Y-91707619D01*
X130315715Y-91802857D01*
X130315715Y-91898095D01*
X130268096Y-92040952D01*
X129696667Y-92612381D01*
X130315715Y-92612381D01*
X139452381Y-109218095D02*
X138452381Y-109218095D01*
X138452381Y-108980000D01*
X138500000Y-108837142D01*
X138595238Y-108741904D01*
X138690476Y-108694285D01*
X138880952Y-108646666D01*
X139023810Y-108646666D01*
X139214286Y-108694285D01*
X139309524Y-108741904D01*
X139404762Y-108837142D01*
X139452381Y-108980000D01*
X139452381Y-109218095D01*
X138452381Y-108313333D02*
X138452381Y-107694285D01*
X138833333Y-108027619D01*
X138833333Y-107884761D01*
X138880952Y-107789523D01*
X138928571Y-107741904D01*
X139023810Y-107694285D01*
X139261905Y-107694285D01*
X139357143Y-107741904D01*
X139404762Y-107789523D01*
X139452381Y-107884761D01*
X139452381Y-108170476D01*
X139404762Y-108265714D01*
X139357143Y-108313333D01*
X142166667Y-94707751D02*
X141833333Y-94707751D01*
X141833333Y-95231561D02*
X141833333Y-94231561D01*
X142309524Y-94231561D01*
X143214286Y-95231561D02*
X142642857Y-95231561D01*
X142928571Y-95231561D02*
X142928571Y-94231561D01*
X142833333Y-94374418D01*
X142738095Y-94469656D01*
X142642857Y-94517275D01*
X119333334Y-100452381D02*
X118857143Y-100452381D01*
X118857143Y-99452381D01*
X120190477Y-100452381D02*
X119619048Y-100452381D01*
X119904762Y-100452381D02*
X119904762Y-99452381D01*
X119809524Y-99595238D01*
X119714286Y-99690476D01*
X119619048Y-99738095D01*
X157997619Y-92605238D02*
X157950000Y-92700476D01*
X157854762Y-92795714D01*
X157711905Y-92938571D01*
X157664286Y-93033810D01*
X157664286Y-93129048D01*
X157902381Y-93081429D02*
X157854762Y-93176667D01*
X157759524Y-93271905D01*
X157569048Y-93319524D01*
X157235714Y-93319524D01*
X157045238Y-93271905D01*
X156950000Y-93176667D01*
X156902381Y-93081429D01*
X156902381Y-92890952D01*
X156950000Y-92795714D01*
X157045238Y-92700476D01*
X157235714Y-92652857D01*
X157569048Y-92652857D01*
X157759524Y-92700476D01*
X157854762Y-92795714D01*
X157902381Y-92890952D01*
X157902381Y-93081429D01*
X157902381Y-91700476D02*
X157902381Y-92271905D01*
X157902381Y-91986191D02*
X156902381Y-91986191D01*
X157045238Y-92081429D01*
X157140476Y-92176667D01*
X157188095Y-92271905D01*
X139452381Y-105166666D02*
X138976190Y-105500000D01*
X139452381Y-105738095D02*
X138452381Y-105738095D01*
X138452381Y-105357142D01*
X138500000Y-105261904D01*
X138547619Y-105214285D01*
X138642857Y-105166666D01*
X138785714Y-105166666D01*
X138880952Y-105214285D01*
X138928571Y-105261904D01*
X138976190Y-105357142D01*
X138976190Y-105738095D01*
X138547619Y-104785714D02*
X138500000Y-104738095D01*
X138452381Y-104642857D01*
X138452381Y-104404761D01*
X138500000Y-104309523D01*
X138547619Y-104261904D01*
X138642857Y-104214285D01*
X138738095Y-104214285D01*
X138880952Y-104261904D01*
X139452381Y-104833333D01*
X139452381Y-104214285D01*
X141238095Y-102452381D02*
X141809524Y-102452381D01*
X141523809Y-103452381D02*
X141523809Y-102452381D01*
X142142857Y-103452381D02*
X142142857Y-102452381D01*
X142523810Y-102452381D01*
X142619048Y-102500000D01*
X142666667Y-102547619D01*
X142714286Y-102642857D01*
X142714286Y-102785714D01*
X142666667Y-102880952D01*
X142619048Y-102928571D01*
X142523810Y-102976190D01*
X142142857Y-102976190D01*
X143666667Y-103452381D02*
X143095238Y-103452381D01*
X143380952Y-103452381D02*
X143380952Y-102452381D01*
X143285714Y-102595238D01*
X143190476Y-102690476D01*
X143095238Y-102738095D01*
X144738095Y-94981561D02*
X145309524Y-94981561D01*
X145023809Y-95981561D02*
X145023809Y-94981561D01*
X145642857Y-95981561D02*
X145642857Y-94981561D01*
X146023810Y-94981561D01*
X146119048Y-95029180D01*
X146166667Y-95076799D01*
X146214286Y-95172037D01*
X146214286Y-95314894D01*
X146166667Y-95410132D01*
X146119048Y-95457751D01*
X146023810Y-95505370D01*
X145642857Y-95505370D01*
X146595238Y-95076799D02*
X146642857Y-95029180D01*
X146738095Y-94981561D01*
X146976191Y-94981561D01*
X147071429Y-95029180D01*
X147119048Y-95076799D01*
X147166667Y-95172037D01*
X147166667Y-95267275D01*
X147119048Y-95410132D01*
X146547619Y-95981561D01*
X147166667Y-95981561D01*
X141238095Y-98452381D02*
X141809524Y-98452381D01*
X141523809Y-99452381D02*
X141523809Y-98452381D01*
X142142857Y-99452381D02*
X142142857Y-98452381D01*
X142523810Y-98452381D01*
X142619048Y-98500000D01*
X142666667Y-98547619D01*
X142714286Y-98642857D01*
X142714286Y-98785714D01*
X142666667Y-98880952D01*
X142619048Y-98928571D01*
X142523810Y-98976190D01*
X142142857Y-98976190D01*
X143047619Y-98452381D02*
X143666667Y-98452381D01*
X143333333Y-98833333D01*
X143476191Y-98833333D01*
X143571429Y-98880952D01*
X143619048Y-98928571D01*
X143666667Y-99023810D01*
X143666667Y-99261905D01*
X143619048Y-99357143D01*
X143571429Y-99404762D01*
X143476191Y-99452381D01*
X143190476Y-99452381D01*
X143095238Y-99404762D01*
X143047619Y-99357143D01*
X143738095Y-106302381D02*
X144309524Y-106302381D01*
X144023809Y-107302381D02*
X144023809Y-106302381D01*
X144642857Y-107302381D02*
X144642857Y-106302381D01*
X145023810Y-106302381D01*
X145119048Y-106350000D01*
X145166667Y-106397619D01*
X145214286Y-106492857D01*
X145214286Y-106635714D01*
X145166667Y-106730952D01*
X145119048Y-106778571D01*
X145023810Y-106826190D01*
X144642857Y-106826190D01*
X146071429Y-106635714D02*
X146071429Y-107302381D01*
X145833333Y-106254762D02*
X145595238Y-106969048D01*
X146214286Y-106969048D01*
X130638095Y-99452381D02*
X130638095Y-100261905D01*
X130685714Y-100357143D01*
X130733333Y-100404762D01*
X130828571Y-100452381D01*
X131019048Y-100452381D01*
X131114286Y-100404762D01*
X131161905Y-100357143D01*
X131209524Y-100261905D01*
X131209524Y-99452381D01*
X132209524Y-100452381D02*
X131638095Y-100452381D01*
X131923809Y-100452381D02*
X131923809Y-99452381D01*
X131828571Y-99595238D01*
X131733333Y-99690476D01*
X131638095Y-99738095D01*
X150683334Y-105702381D02*
X150350000Y-105226190D01*
X150111905Y-105702381D02*
X150111905Y-104702381D01*
X150492858Y-104702381D01*
X150588096Y-104750000D01*
X150635715Y-104797619D01*
X150683334Y-104892857D01*
X150683334Y-105035714D01*
X150635715Y-105130952D01*
X150588096Y-105178571D01*
X150492858Y-105226190D01*
X150111905Y-105226190D01*
X151635715Y-105702381D02*
X151064286Y-105702381D01*
X151350000Y-105702381D02*
X151350000Y-104702381D01*
X151254762Y-104845238D01*
X151159524Y-104940476D01*
X151064286Y-104988095D01*
X162666667Y-108413762D02*
X162809524Y-108461381D01*
X163047620Y-108461381D01*
X163142858Y-108413762D01*
X163190477Y-108366143D01*
X163238096Y-108270905D01*
X163238096Y-108175667D01*
X163190477Y-108080429D01*
X163142858Y-108032810D01*
X163047620Y-107985190D01*
X162857143Y-107937571D01*
X162761905Y-107889952D01*
X162714286Y-107842333D01*
X162666667Y-107747095D01*
X162666667Y-107651857D01*
X162714286Y-107556619D01*
X162761905Y-107509000D01*
X162857143Y-107461381D01*
X163095239Y-107461381D01*
X163238096Y-107509000D01*
X163571429Y-107461381D02*
X163809524Y-108461381D01*
X164000001Y-107747095D01*
X164190477Y-108461381D01*
X164428572Y-107461381D01*
X165333334Y-108461381D02*
X164761905Y-108461381D01*
X165047619Y-108461381D02*
X165047619Y-107461381D01*
X164952381Y-107604238D01*
X164857143Y-107699476D01*
X164761905Y-107747095D01*
M02*
