G04 #@! TF.FileFunction,Legend,Bot*
%FSLAX46Y46*%
G04 Gerber Fmt 4.6, Leading zero omitted, Abs format (unit mm)*
G04 Created by KiCad (PCBNEW 4.0.2+e4-6225~38~ubuntu15.04.1-stable) date Wed 22 Jun 2016 12:26:20 PM PDT*
%MOMM*%
G01*
G04 APERTURE LIST*
%ADD10C,0.100000*%
%ADD11C,0.300000*%
%ADD12C,0.425000*%
%ADD13C,0.275000*%
G04 APERTURE END LIST*
D10*
D11*
X161857143Y-104330000D02*
X162000000Y-104258571D01*
X162214286Y-104258571D01*
X162428571Y-104330000D01*
X162571429Y-104472857D01*
X162642857Y-104615714D01*
X162714286Y-104901429D01*
X162714286Y-105115714D01*
X162642857Y-105401429D01*
X162571429Y-105544286D01*
X162428571Y-105687143D01*
X162214286Y-105758571D01*
X162071429Y-105758571D01*
X161857143Y-105687143D01*
X161785714Y-105615714D01*
X161785714Y-105115714D01*
X162071429Y-105115714D01*
X162678571Y-103147143D02*
X162464285Y-103218571D01*
X162107142Y-103218571D01*
X161964285Y-103147143D01*
X161892856Y-103075714D01*
X161821428Y-102932857D01*
X161821428Y-102790000D01*
X161892856Y-102647143D01*
X161964285Y-102575714D01*
X162107142Y-102504286D01*
X162392856Y-102432857D01*
X162535714Y-102361429D01*
X162607142Y-102290000D01*
X162678571Y-102147143D01*
X162678571Y-102004286D01*
X162607142Y-101861429D01*
X162535714Y-101790000D01*
X162392856Y-101718571D01*
X162035714Y-101718571D01*
X161821428Y-101790000D01*
X162749999Y-99178571D02*
X161821428Y-99178571D01*
X162321428Y-99750000D01*
X162107142Y-99750000D01*
X161964285Y-99821429D01*
X161892856Y-99892857D01*
X161821428Y-100035714D01*
X161821428Y-100392857D01*
X161892856Y-100535714D01*
X161964285Y-100607143D01*
X162107142Y-100678571D01*
X162535714Y-100678571D01*
X162678571Y-100607143D01*
X162749999Y-100535714D01*
X142357143Y-104330000D02*
X142500000Y-104258571D01*
X142714286Y-104258571D01*
X142928571Y-104330000D01*
X143071429Y-104472857D01*
X143142857Y-104615714D01*
X143214286Y-104901429D01*
X143214286Y-105115714D01*
X143142857Y-105401429D01*
X143071429Y-105544286D01*
X142928571Y-105687143D01*
X142714286Y-105758571D01*
X142571429Y-105758571D01*
X142357143Y-105687143D01*
X142285714Y-105615714D01*
X142285714Y-105115714D01*
X142571429Y-105115714D01*
X142392856Y-101718571D02*
X143107142Y-101718571D01*
X143178571Y-102432857D01*
X143107142Y-102361429D01*
X142964285Y-102290000D01*
X142607142Y-102290000D01*
X142464285Y-102361429D01*
X142392856Y-102432857D01*
X142321428Y-102575714D01*
X142321428Y-102932857D01*
X142392856Y-103075714D01*
X142464285Y-103147143D01*
X142607142Y-103218571D01*
X142964285Y-103218571D01*
X143107142Y-103147143D01*
X143178571Y-103075714D01*
X143178571Y-100597143D02*
X142964285Y-100668571D01*
X142607142Y-100668571D01*
X142464285Y-100597143D01*
X142392856Y-100525714D01*
X142321428Y-100382857D01*
X142321428Y-100240000D01*
X142392856Y-100097143D01*
X142464285Y-100025714D01*
X142607142Y-99954286D01*
X142892856Y-99882857D01*
X143035714Y-99811429D01*
X143107142Y-99740000D01*
X143178571Y-99597143D01*
X143178571Y-99454286D01*
X143107142Y-99311429D01*
X143035714Y-99240000D01*
X142892856Y-99168571D01*
X142535714Y-99168571D01*
X142321428Y-99240000D01*
D12*
X159016666Y-101269048D02*
X159016666Y-99569048D01*
X158045238Y-101269048D01*
X158045238Y-99569048D01*
X156911905Y-99569048D02*
X156588095Y-99569048D01*
X156426190Y-99650000D01*
X156264286Y-99811905D01*
X156183333Y-100135714D01*
X156183333Y-100702381D01*
X156264286Y-101026190D01*
X156426190Y-101188095D01*
X156588095Y-101269048D01*
X156911905Y-101269048D01*
X157073809Y-101188095D01*
X157235714Y-101026190D01*
X157316666Y-100702381D01*
X157316666Y-100135714D01*
X157235714Y-99811905D01*
X157073809Y-99650000D01*
X156911905Y-99569048D01*
X154483334Y-101107143D02*
X154564286Y-101188095D01*
X154807143Y-101269048D01*
X154969048Y-101269048D01*
X155211905Y-101188095D01*
X155373810Y-101026190D01*
X155454762Y-100864286D01*
X155535714Y-100540476D01*
X155535714Y-100297619D01*
X155454762Y-99973810D01*
X155373810Y-99811905D01*
X155211905Y-99650000D01*
X154969048Y-99569048D01*
X154807143Y-99569048D01*
X154564286Y-99650000D01*
X154483334Y-99730952D01*
X153997619Y-99569048D02*
X153026191Y-99569048D01*
X153511905Y-101269048D02*
X153511905Y-99569048D01*
X152459524Y-101269048D02*
X152459524Y-99569048D01*
X151892857Y-99569048D02*
X151326191Y-101269048D01*
X150759524Y-99569048D01*
X149869048Y-99569048D02*
X149545238Y-99569048D01*
X149383333Y-99650000D01*
X149221429Y-99811905D01*
X149140476Y-100135714D01*
X149140476Y-100702381D01*
X149221429Y-101026190D01*
X149383333Y-101188095D01*
X149545238Y-101269048D01*
X149869048Y-101269048D01*
X150030952Y-101188095D01*
X150192857Y-101026190D01*
X150273809Y-100702381D01*
X150273809Y-100135714D01*
X150192857Y-99811905D01*
X150030952Y-99650000D01*
X149869048Y-99569048D01*
X147440477Y-101269048D02*
X148007143Y-100459524D01*
X148411905Y-101269048D02*
X148411905Y-99569048D01*
X147764286Y-99569048D01*
X147602381Y-99650000D01*
X147521429Y-99730952D01*
X147440477Y-99892857D01*
X147440477Y-100135714D01*
X147521429Y-100297619D01*
X147602381Y-100378571D01*
X147764286Y-100459524D01*
X148411905Y-100459524D01*
X146711905Y-100378571D02*
X146145238Y-100378571D01*
X145902381Y-101269048D02*
X146711905Y-101269048D01*
X146711905Y-99569048D01*
X145902381Y-99569048D01*
D13*
X159204761Y-105747619D02*
X159204761Y-104647619D01*
X158942856Y-104647619D01*
X158785714Y-104700000D01*
X158680952Y-104804762D01*
X158628571Y-104909524D01*
X158576190Y-105119048D01*
X158576190Y-105276190D01*
X158628571Y-105485714D01*
X158680952Y-105590476D01*
X158785714Y-105695238D01*
X158942856Y-105747619D01*
X159204761Y-105747619D01*
X157685714Y-105695238D02*
X157790476Y-105747619D01*
X157999999Y-105747619D01*
X158104761Y-105695238D01*
X158157142Y-105590476D01*
X158157142Y-105171429D01*
X158104761Y-105066667D01*
X157999999Y-105014286D01*
X157790476Y-105014286D01*
X157685714Y-105066667D01*
X157633333Y-105171429D01*
X157633333Y-105276190D01*
X158157142Y-105380952D01*
X157214285Y-105695238D02*
X157109523Y-105747619D01*
X156899999Y-105747619D01*
X156795238Y-105695238D01*
X156742857Y-105590476D01*
X156742857Y-105538095D01*
X156795238Y-105433333D01*
X156899999Y-105380952D01*
X157057142Y-105380952D01*
X157161904Y-105328571D01*
X157214285Y-105223810D01*
X157214285Y-105171429D01*
X157161904Y-105066667D01*
X157057142Y-105014286D01*
X156899999Y-105014286D01*
X156795238Y-105066667D01*
X156271428Y-105747619D02*
X156271428Y-105014286D01*
X156271428Y-104647619D02*
X156323809Y-104700000D01*
X156271428Y-104752381D01*
X156219047Y-104700000D01*
X156271428Y-104647619D01*
X156271428Y-104752381D01*
X155276190Y-105014286D02*
X155276190Y-105904762D01*
X155328571Y-106009524D01*
X155380952Y-106061905D01*
X155485713Y-106114286D01*
X155642856Y-106114286D01*
X155747618Y-106061905D01*
X155276190Y-105695238D02*
X155380952Y-105747619D01*
X155590475Y-105747619D01*
X155695237Y-105695238D01*
X155747618Y-105642857D01*
X155799999Y-105538095D01*
X155799999Y-105223810D01*
X155747618Y-105119048D01*
X155695237Y-105066667D01*
X155590475Y-105014286D01*
X155380952Y-105014286D01*
X155276190Y-105066667D01*
X154752380Y-105014286D02*
X154752380Y-105747619D01*
X154752380Y-105119048D02*
X154699999Y-105066667D01*
X154595237Y-105014286D01*
X154438095Y-105014286D01*
X154333333Y-105066667D01*
X154280952Y-105171429D01*
X154280952Y-105747619D01*
X153338095Y-105695238D02*
X153442857Y-105747619D01*
X153652380Y-105747619D01*
X153757142Y-105695238D01*
X153809523Y-105590476D01*
X153809523Y-105171429D01*
X153757142Y-105066667D01*
X153652380Y-105014286D01*
X153442857Y-105014286D01*
X153338095Y-105066667D01*
X153285714Y-105171429D01*
X153285714Y-105276190D01*
X153809523Y-105380952D01*
X152342857Y-105747619D02*
X152342857Y-104647619D01*
X152342857Y-105695238D02*
X152447619Y-105747619D01*
X152657142Y-105747619D01*
X152761904Y-105695238D01*
X152814285Y-105642857D01*
X152866666Y-105538095D01*
X152866666Y-105223810D01*
X152814285Y-105119048D01*
X152761904Y-105066667D01*
X152657142Y-105014286D01*
X152447619Y-105014286D01*
X152342857Y-105066667D01*
X150980952Y-105747619D02*
X150980952Y-104647619D01*
X150980952Y-105066667D02*
X150876190Y-105014286D01*
X150666667Y-105014286D01*
X150561905Y-105066667D01*
X150509524Y-105119048D01*
X150457143Y-105223810D01*
X150457143Y-105538095D01*
X150509524Y-105642857D01*
X150561905Y-105695238D01*
X150666667Y-105747619D01*
X150876190Y-105747619D01*
X150980952Y-105695238D01*
X150090476Y-105014286D02*
X149828571Y-105747619D01*
X149566667Y-105014286D02*
X149828571Y-105747619D01*
X149933333Y-106009524D01*
X149985714Y-106061905D01*
X150090476Y-106114286D01*
X148100000Y-104647619D02*
X147890477Y-104647619D01*
X147785715Y-104700000D01*
X147680953Y-104804762D01*
X147628572Y-105014286D01*
X147628572Y-105380952D01*
X147680953Y-105590476D01*
X147785715Y-105695238D01*
X147890477Y-105747619D01*
X148100000Y-105747619D01*
X148204762Y-105695238D01*
X148309524Y-105590476D01*
X148361905Y-105380952D01*
X148361905Y-105014286D01*
X148309524Y-104804762D01*
X148204762Y-104700000D01*
X148100000Y-104647619D01*
X147157143Y-105014286D02*
X147157143Y-106114286D01*
X147157143Y-105066667D02*
X147052381Y-105014286D01*
X146842858Y-105014286D01*
X146738096Y-105066667D01*
X146685715Y-105119048D01*
X146633334Y-105223810D01*
X146633334Y-105538095D01*
X146685715Y-105642857D01*
X146738096Y-105695238D01*
X146842858Y-105747619D01*
X147052381Y-105747619D01*
X147157143Y-105695238D01*
X146214286Y-105695238D02*
X146109524Y-105747619D01*
X145900000Y-105747619D01*
X145795239Y-105695238D01*
X145742858Y-105590476D01*
X145742858Y-105538095D01*
X145795239Y-105433333D01*
X145900000Y-105380952D01*
X146057143Y-105380952D01*
X146161905Y-105328571D01*
X146214286Y-105223810D01*
X146214286Y-105171429D01*
X146161905Y-105066667D01*
X146057143Y-105014286D01*
X145900000Y-105014286D01*
X145795239Y-105066667D01*
M02*
