G04 #@! TF.FileFunction,Legend,Top*
%FSLAX46Y46*%
G04 Gerber Fmt 4.6, Leading zero omitted, Abs format (unit mm)*
G04 Created by KiCad (PCBNEW 4.0.2+e4-6225~38~ubuntu15.04.1-stable) date Wed 22 Jun 2016 12:26:20 PM PDT*
%MOMM*%
G01*
G04 APERTURE LIST*
%ADD10C,0.100000*%
%ADD11C,0.300000*%
%ADD12C,0.150000*%
%ADD13C,0.127000*%
G04 APERTURE END LIST*
D10*
D11*
X142321429Y-100607143D02*
X142535715Y-100678571D01*
X142892858Y-100678571D01*
X143035715Y-100607143D01*
X143107144Y-100535714D01*
X143178572Y-100392857D01*
X143178572Y-100250000D01*
X143107144Y-100107143D01*
X143035715Y-100035714D01*
X142892858Y-99964286D01*
X142607144Y-99892857D01*
X142464286Y-99821429D01*
X142392858Y-99750000D01*
X142321429Y-99607143D01*
X142321429Y-99464286D01*
X142392858Y-99321429D01*
X142464286Y-99250000D01*
X142607144Y-99178571D01*
X142964286Y-99178571D01*
X143178572Y-99250000D01*
D12*
X138730000Y-101270000D02*
X138730000Y-106350000D01*
X138730000Y-106350000D02*
X141270000Y-106350000D01*
X141270000Y-106350000D02*
X141270000Y-101270000D01*
X141550000Y-98450000D02*
X141550000Y-100000000D01*
X141270000Y-101270000D02*
X138730000Y-101270000D01*
X138450000Y-100000000D02*
X138450000Y-98450000D01*
X138450000Y-98450000D02*
X141550000Y-98450000D01*
X149290000Y-99975000D02*
X150290000Y-99975000D01*
X150290000Y-101325000D02*
X149290000Y-101325000D01*
D13*
X156090000Y-105945000D02*
X161490000Y-105945000D01*
X154690000Y-104545000D02*
X156090000Y-105945000D01*
X154690000Y-100535000D02*
X154690000Y-104545000D01*
X156090000Y-99135000D02*
X154690000Y-100535000D01*
X161490000Y-99135000D02*
X156090000Y-99135000D01*
X161490000Y-105945000D02*
X161490000Y-99135000D01*
X145550000Y-103280000D02*
G75*
G03X145550000Y-103280000I-250000J0D01*
G01*
X144550000Y-106800000D02*
X144550000Y-102300000D01*
X151050000Y-106800000D02*
X144550000Y-106800000D01*
X151050000Y-102300000D02*
X151050000Y-106800000D01*
X144550000Y-102300000D02*
X151050000Y-102300000D01*
D12*
X163730000Y-101270000D02*
X163730000Y-106350000D01*
X163730000Y-106350000D02*
X166270000Y-106350000D01*
X166270000Y-106350000D02*
X166270000Y-101270000D01*
X166550000Y-98450000D02*
X166550000Y-100000000D01*
X166270000Y-101270000D02*
X163730000Y-101270000D01*
X163450000Y-100000000D02*
X163450000Y-98450000D01*
X163450000Y-98450000D02*
X166550000Y-98450000D01*
X146415000Y-98850000D02*
G75*
G03X146415000Y-98850000I-100000J0D01*
G01*
X146565000Y-98400000D02*
X146065000Y-98400000D01*
X146565000Y-101300000D02*
X146565000Y-98400000D01*
X146065000Y-101300000D02*
X146565000Y-101300000D01*
X146065000Y-98400000D02*
X146065000Y-101300000D01*
X152173334Y-101102381D02*
X151840000Y-100626190D01*
X151601905Y-101102381D02*
X151601905Y-100102381D01*
X151982858Y-100102381D01*
X152078096Y-100150000D01*
X152125715Y-100197619D01*
X152173334Y-100292857D01*
X152173334Y-100435714D01*
X152125715Y-100530952D01*
X152078096Y-100578571D01*
X151982858Y-100626190D01*
X151601905Y-100626190D01*
X153125715Y-101102381D02*
X152554286Y-101102381D01*
X152840000Y-101102381D02*
X152840000Y-100102381D01*
X152744762Y-100245238D01*
X152649524Y-100340476D01*
X152554286Y-100388095D01*
X157944762Y-103062381D02*
X157611428Y-102586190D01*
X157373333Y-103062381D02*
X157373333Y-102062381D01*
X157754286Y-102062381D01*
X157849524Y-102110000D01*
X157897143Y-102157619D01*
X157944762Y-102252857D01*
X157944762Y-102395714D01*
X157897143Y-102490952D01*
X157849524Y-102538571D01*
X157754286Y-102586190D01*
X157373333Y-102586190D01*
X158230476Y-102062381D02*
X158563809Y-103062381D01*
X158897143Y-102062381D01*
X159754286Y-103062381D02*
X159182857Y-103062381D01*
X159468571Y-103062381D02*
X159468571Y-102062381D01*
X159373333Y-102205238D01*
X159278095Y-102300476D01*
X159182857Y-102348095D01*
X147038095Y-104002381D02*
X147038095Y-104811905D01*
X147085714Y-104907143D01*
X147133333Y-104954762D01*
X147228571Y-105002381D01*
X147419048Y-105002381D01*
X147514286Y-104954762D01*
X147561905Y-104907143D01*
X147609524Y-104811905D01*
X147609524Y-104002381D01*
X148038095Y-104097619D02*
X148085714Y-104050000D01*
X148180952Y-104002381D01*
X148419048Y-104002381D01*
X148514286Y-104050000D01*
X148561905Y-104097619D01*
X148609524Y-104192857D01*
X148609524Y-104288095D01*
X148561905Y-104430952D01*
X147990476Y-105002381D01*
X148609524Y-105002381D01*
X148453095Y-98402381D02*
X148453095Y-99211905D01*
X148500714Y-99307143D01*
X148548333Y-99354762D01*
X148643571Y-99402381D01*
X148834048Y-99402381D01*
X148929286Y-99354762D01*
X148976905Y-99307143D01*
X149024524Y-99211905D01*
X149024524Y-98402381D01*
X150024524Y-99402381D02*
X149453095Y-99402381D01*
X149738809Y-99402381D02*
X149738809Y-98402381D01*
X149643571Y-98545238D01*
X149548333Y-98640476D01*
X149453095Y-98688095D01*
M02*
